<svg width="18" height="18" viewBox="0 0 18 18" fill="none" xmlns="http://www.w3.org/2000/svg">
<g clip-path="url(#clip0_3744_191)">
<path d="M0.359375 8.57334C0.359375 12.2087 2.63794 15.3125 5.84468 16.5338C5.76662 15.8689 5.6836 14.7725 5.86242 14.0033C6.01641 13.3419 6.85659 9.78961 6.85659 9.78961C6.85659 9.78961 6.60326 9.28224 6.60326 8.53076C6.60326 7.3528 7.28591 6.47288 8.13673 6.47288C8.86054 6.47288 9.20967 7.01574 9.20967 7.66645C9.20967 8.3938 8.74629 9.48093 8.50715 10.4893C8.30775 11.333 8.93079 12.0213 9.76245 12.0213C11.269 12.0213 12.4278 10.4325 12.4278 8.13905C12.4278 6.10885 10.9688 4.69034 8.88608 4.69034C6.47482 4.69034 5.05914 6.49914 5.05914 8.36897C5.05914 9.09774 5.33944 9.87831 5.68999 10.3034C5.71987 10.3355 5.74099 10.3747 5.75131 10.4174C5.76162 10.46 5.76079 10.5046 5.74888 10.5468C5.68431 10.815 5.54097 11.3905 5.51329 11.5083C5.47568 11.663 5.39053 11.6963 5.22945 11.6211C4.17071 11.1287 3.50935 9.58099 3.50935 8.33775C3.50935 5.66321 5.45156 3.20795 9.10961 3.20795C12.0502 3.20795 14.3359 5.30344 14.3359 8.10357C14.3359 11.025 12.4945 13.3767 9.93702 13.3767C9.07768 13.3767 8.27085 12.9296 7.9941 12.4024C7.9941 12.4024 7.56904 14.0217 7.46615 14.4177C7.26604 15.1869 6.71112 16.1605 6.36696 16.7133C7.1603 16.9574 8.0019 17.0887 8.87473 17.0887C13.5773 17.0887 17.3901 13.2759 17.3901 8.57334C17.3901 3.87073 13.5773 0.0579834 8.87473 0.0579834C4.17212 0.0579834 0.359375 3.87073 0.359375 8.57334Z" fill="#4D4D4D"/>
</g>
<defs>
<clipPath id="clip0_3744_191">
<rect width="17.0307" height="17.0307" fill="white" transform="translate(0.359375 0.0579834)"/>
</clipPath>
</defs>
</svg>
