<svg width="87" height="76" viewBox="0 0 87 76" fill="none" xmlns="http://www.w3.org/2000/svg">
<path d="M51.6095 2.72689C49.1013 1.08714 46.1696 0.213867 43.173 0.213867C40.1764 0.213867 37.2447 1.08714 34.7365 2.72689L1.39771 24.5211C0.923454 24.8307 0.543651 25.265 0.299969 25.7763C0.0562876 26.2876 -0.0418583 26.8562 0.0162998 27.4196C0.00751318 27.518 0.00339738 27.6168 0.0039659 27.7156V52.3836C0.0039659 53.2014 0.328834 53.9857 0.907103 54.564C1.48537 55.1423 2.26967 55.4671 3.08747 55.4671C3.90526 55.4671 4.68957 55.1423 5.26783 54.564C5.8461 53.9857 6.17097 53.2014 6.17097 52.3836V32.9206L12.338 37.0956V59.7902C12.3379 60.5251 12.6004 61.2359 13.078 61.7945L13.0904 61.813L13.1274 61.8561L13.2507 61.9918L13.67 62.4482C14.0339 62.8305 14.5581 63.3609 15.2365 63.9899C16.5932 65.2418 18.5852 66.8946 21.1506 68.5535C26.2692 71.8529 33.7868 75.2139 43.173 75.2139C52.5592 75.2139 60.0706 71.8529 65.1954 68.5535C67.7608 66.8946 69.7528 65.2418 71.1095 63.9899C71.7991 63.3519 72.4616 62.6853 73.0953 61.9918L73.2186 61.8561L73.2557 61.813L73.268 61.8006L73.2741 61.7883C73.7468 61.2321 74.0069 60.5263 74.008 59.7964V37.0895L84.9853 29.6582C85.4281 29.3965 85.7895 29.0168 86.0291 28.5616C86.2687 28.1064 86.377 27.5936 86.342 27.0804C86.3381 26.5714 86.2081 26.0713 85.9639 25.6247C85.7196 25.1782 85.3686 24.799 84.9421 24.5211L51.6095 2.72689ZM67.841 41.2583V58.5691C66.014 60.3687 64.0075 61.9764 61.8529 63.3671C57.4126 66.2224 51.0544 69.0407 43.173 69.0407C35.2916 69.0407 28.9272 66.2224 24.4931 63.3671C22.3382 61.9744 20.3317 60.3647 18.505 58.563V41.2645L34.533 52.1123C37.0838 53.8382 40.0931 54.7607 43.173 54.7607C46.2529 54.7607 49.2622 53.8382 51.813 52.1123L67.841 41.2583ZM15.4215 59.7902L13.078 61.7883L15.4215 59.784V59.7902ZM38.1099 7.88868C39.6151 6.90431 41.3745 6.38005 43.173 6.38005C44.9715 6.38005 46.7309 6.90431 48.2361 7.88868L77.6897 27.0989L48.3595 47.006C46.8285 48.0426 45.0219 48.5967 43.173 48.5967C41.3241 48.5967 39.5175 48.0426 37.9865 47.006L8.65011 27.1482L38.1161 7.88868H38.1099Z" fill="#016EB0"/>
</svg>
