<svg width="100" height="99" viewBox="0 0 100 99" fill="none" xmlns="http://www.w3.org/2000/svg">
<path d="M0 40.5629L10.3248 35.1962L5.93738 24.5576L17.5499 22.95L17.1445 11.5075L28.6139 13.8953L32.2383 3.0202L42.2293 9.09606L49.4544 0.112305L56.7271 9.1197L66.6704 3.11477L70.3663 14.0135L81.8358 11.6966L81.5019 23.1391L93.1144 24.794L88.7746 35.409L99.1233 40.8465L91.326 49.3575L99.171 57.9157L88.8462 63.3059L93.2336 73.9446L81.6212 75.5286L82.0265 86.971L70.5571 84.6069L66.9327 95.482L56.9417 89.4061L49.7167 98.3899L42.444 89.3588L32.5006 95.3638L28.8047 84.4887L17.3353 86.8056L17.6691 75.3631L6.05661 73.6845L10.3964 63.0695L0.0476855 57.632L7.84498 49.1211L0 40.5629Z" fill="url(#paint0_linear_1563_68044)"/>
<path d="M10 17.1772C10 17.1772 15.9637 9.38184 29.8789 9.38184C43.7941 9.38184 49.7577 17.1772 49.7577 17.1772V71.7445C49.7577 71.7445 43.7941 67.8468 29.8789 67.8468C15.9637 67.8468 10 71.7445 10 71.7445V17.1772ZM49.7577 17.1772C49.7577 17.1772 55.7214 9.38184 69.6366 9.38184C83.5518 9.38184 89.5155 17.1772 89.5155 17.1772V71.7445C89.5155 71.7445 83.5518 67.8468 69.6366 67.8468C55.7214 67.8468 49.7577 71.7445 49.7577 71.7445V17.1772Z" stroke="#023A9C" stroke-width="5.96366" stroke-linecap="round" stroke-linejoin="round"/>
<defs>
<linearGradient id="paint0_linear_1563_68044" x1="68" y1="7.1123" x2="49.0678" y2="98.2824" gradientUnits="userSpaceOnUse">
<stop stop-color="#104EBC"/>
<stop offset="0.46875" stop-color="#78A9FF"/>
<stop offset="1" stop-color="#005CFF"/>
</linearGradient>
</defs>
</svg>
