<svg width="84" height="97" viewBox="0 0 84 97" fill="none" xmlns="http://www.w3.org/2000/svg">
<path fill-rule="evenodd" clip-rule="evenodd" d="M45 1.1935C44.0879 0.666886 43.0532 0.389648 42 0.389648C40.9468 0.389648 39.9121 0.666886 39 1.1935L3 22.6555C2.08791 23.1821 1.33049 23.9395 0.803886 24.8516C0.277277 25.7637 2.67553e-05 26.7983 0 27.8515V68.9275C2.67553e-05 69.9807 0.277277 71.0153 0.803886 71.9274C1.33049 72.8395 2.08791 73.5969 3 74.1235L39 95.5855C39.9121 96.1121 40.9468 96.3893 42 96.3893C43.0532 96.3893 44.0879 96.1121 45 95.5855L81 74.1235C81.9121 73.5969 82.6695 72.8395 83.1961 71.9274C83.7227 71.0153 84 69.9807 84 68.9275V27.8515C84 26.7983 83.7227 25.7637 83.1961 24.8516C82.6695 23.9395 81.9121 23.1821 81 22.6555L45 1.1935Z" fill="url(#paint0_linear_897_42456)"/>
<defs>
<linearGradient id="paint0_linear_897_42456" x1="65.1724" y1="14.9328" x2="14.9655" y2="86.6569" gradientUnits="userSpaceOnUse">
<stop stop-color="#B39AE8"/>
<stop offset="0.479167" stop-color="#DECFFF"/>
<stop offset="1" stop-color="#7758B9"/>
</linearGradient>
</defs>
</svg>
