<svg width="66" height="66" viewBox="0 0 66 66" fill="none" xmlns="http://www.w3.org/2000/svg">
<path d="M30.2477 5.15895C31.2085 2.63712 34.8447 2.63712 35.8086 5.15895L42.0241 22.2919C42.2409 22.85 42.6227 23.3295 43.1191 23.6672C43.6156 24.0049 44.2032 24.1848 44.8045 24.1832H60.079C62.9015 24.1832 64.1325 27.6791 61.9136 29.3912L51.044 39.123C50.5571 39.4955 50.2013 40.0118 50.0276 40.598C49.8539 41.1842 49.8712 41.8101 50.0772 42.3858L54.0467 59.1273C55.0135 61.8165 51.8848 64.1262 49.5187 62.4709L34.7547 53.1484C34.2491 52.7948 33.6461 52.6051 33.0281 52.6051C32.4102 52.6051 31.8072 52.7948 31.3016 53.1484L16.5376 62.4709C14.1745 64.1262 11.0428 61.8135 12.0096 59.1273L15.9791 42.3858C16.185 41.8101 16.2024 41.1842 16.0287 40.598C15.855 40.0118 15.4992 39.4955 15.0123 39.123L4.1427 29.3912C1.92074 27.6791 3.15783 24.1832 5.97431 24.1832H21.2488C21.8502 24.1852 22.438 24.0055 22.9345 23.6677C23.431 23.33 23.8127 22.8502 24.0292 22.2919L30.2447 5.15895H30.2477Z" stroke="#830303" stroke-width="4.71922" stroke-linecap="round" stroke-linejoin="round"/>
</svg>
