<svg width="54" height="76" viewBox="0 0 54 76" fill="none" xmlns="http://www.w3.org/2000/svg">
<path d="M52.7672 20.2037L34.0174 1.45392C33.7817 1.1922 33.492 0.984804 33.1683 0.846062C32.8445 0.70732 32.4945 0.640547 32.1425 0.650358H5.35708C3.93759 0.654597 2.57746 1.22036 1.57373 2.22409C0.570005 3.22782 0.00423939 4.58795 0 6.00743V70.2923C0.00423939 71.7118 0.570005 73.072 1.57373 74.0757C2.57746 75.0794 3.93759 75.6452 5.35708 75.6494H48.2137C49.6332 75.6452 50.9933 75.0794 51.997 74.0757C53.0007 73.072 53.5665 71.7118 53.5708 70.2923V22.0787C53.5806 21.7266 53.5138 21.3766 53.375 21.0529C53.2363 20.7291 53.0289 20.4394 52.7672 20.2037ZM32.1425 7.07885L47.1423 22.0787H32.1425V7.07885ZM48.2137 70.2923H5.35708V6.00743H26.7854V22.0787C26.7896 23.4981 27.3554 24.8583 28.3591 25.862C29.3628 26.8657 30.723 27.4315 32.1425 27.4357H48.2137V70.2923Z" fill="#ED8E00"/>
</svg>
