<svg width="23" height="23" viewBox="0 0 23 23" fill="none" xmlns="http://www.w3.org/2000/svg">
<path d="M18.1697 3.24707H4.54509C3.70834 3.24707 3.03125 3.92416 3.03125 4.76091V18.3855C3.03125 19.2222 3.70834 19.8993 4.54509 19.8993H12.1143V13.087H9.84353V10.8163H12.1143V9.59663C12.1143 7.28891 13.2393 6.27475 15.1582 6.27475C16.0763 6.27475 16.5627 6.34276 16.7933 6.3738V8.54551H15.4835C14.6704 8.54551 14.3851 8.97571 14.3851 9.84647V10.8163H16.7726L16.4488 13.087H14.3851V19.8993H18.1697C19.0064 19.8993 19.6835 19.2222 19.6835 18.3855V4.76091C19.6835 3.92416 19.0049 3.24707 18.1697 3.24707Z" fill="#4D4D4D"/>
</svg>
