<svg width="87" height="100" viewBox="0 0 87 100" fill="none" xmlns="http://www.w3.org/2000/svg">
<path fill-rule="evenodd" clip-rule="evenodd" d="M46.6071 0.837344C45.6625 0.28879 44.5908 0 43.5 0C42.4092 0 41.3375 0.28879 40.3929 0.837344L3.10714 23.1937C2.16248 23.7422 1.37801 24.5312 0.832596 25.4813C0.28718 26.4314 2.77109e-05 27.5091 0 28.6062V71.3938C2.77109e-05 72.4909 0.28718 73.5686 0.832596 74.5187C1.37801 75.4688 2.16248 76.2578 3.10714 76.8063L40.3929 99.1627C41.3375 99.7112 42.4092 100 43.5 100C44.5908 100 45.6625 99.7112 46.6071 99.1627L83.8929 76.8063C84.8375 76.2578 85.622 75.4688 86.1674 74.5187C86.7128 73.5686 87 72.4909 87 71.3938V28.6062C87 27.5091 86.7128 26.4314 86.1674 25.4813C85.622 24.5312 84.8375 23.7422 83.8929 23.1937L46.6071 0.837344Z" fill="url(#paint0_linear_897_42334)"/>
<g clip-path="url(#clip0_897_42334)">
<path d="M60.125 12.375C57.2739 12.375 54.5396 13.5076 52.5236 15.5236C50.5076 17.5396 49.375 20.2739 49.375 23.125V44.625C52.2261 44.625 54.9604 45.7576 56.9764 47.7736C58.9924 49.7896 60.125 52.5239 60.125 55.375V82.25C60.125 85.1011 58.9924 87.8354 56.9764 89.8514C54.9604 91.8674 52.2261 93 49.375 93H17.125C14.2739 93 11.5396 91.8674 9.5236 89.8514C7.50759 87.8354 6.375 85.1011 6.375 82.25V55.375C6.375 52.5239 7.50759 49.7896 9.5236 47.7736C11.5396 45.7576 14.2739 44.625 17.125 44.625H44V23.125C44 18.8484 45.6989 14.7469 48.7229 11.7229C51.7469 8.69888 55.8484 7 60.125 7C64.4016 7 68.5031 8.69888 71.5271 11.7229C74.5511 14.7469 76.25 18.8484 76.25 23.125V44.625C76.25 45.3378 75.9669 46.0213 75.4629 46.5253C74.9588 47.0294 74.2753 47.3125 73.5625 47.3125C72.8497 47.3125 72.1662 47.0294 71.6621 46.5253C71.1581 46.0213 70.875 45.3378 70.875 44.625V23.125C70.875 20.2739 69.7424 17.5396 67.7264 15.5236C65.7104 13.5076 62.9761 12.375 60.125 12.375ZM17.125 50C15.6995 50 14.3323 50.5663 13.3243 51.5743C12.3163 52.5823 11.75 53.9495 11.75 55.375V82.25C11.75 83.6755 12.3163 85.0427 13.3243 86.0507C14.3323 87.0587 15.6995 87.625 17.125 87.625H49.375C50.8005 87.625 52.1677 87.0587 53.1757 86.0507C54.1837 85.0427 54.75 83.6755 54.75 82.25V55.375C54.75 53.9495 54.1837 52.5823 53.1757 51.5743C52.1677 50.5663 50.8005 50 49.375 50H17.125Z" fill="#598F00"/>
</g>
<defs>
<linearGradient id="paint0_linear_897_42334" x1="43.5" y1="0" x2="43.5" y2="100" gradientUnits="userSpaceOnUse">
<stop stop-color="#92CF2F"/>
<stop offset="0.463542" stop-color="#C6F876"/>
<stop offset="1" stop-color="#699F13"/>
</linearGradient>
<clipPath id="clip0_897_42334">
<rect width="86" height="86" fill="white" transform="translate(1 7)"/>
</clipPath>
</defs>
</svg>
