<svg width="103" height="103" viewBox="0 0 103 103" fill="none" xmlns="http://www.w3.org/2000/svg">
<path d="M69.6119 33.2423L102.854 51.4148L69.6119 69.6119L51.4394 102.854L33.2423 69.6119L0 51.4148L33.2423 33.2423L51.4394 0L69.6119 33.2423Z" fill="url(#paint0_linear_897_42342)"/>
<path d="M16.3438 16.3594H83.2385C83.2385 16.3594 91.1084 20.3499 91.1084 30.3263C91.1084 40.3026 83.2385 44.2932 83.2385 44.2932H16.3438C16.3438 44.2932 24.2137 40.3026 24.2137 30.3263C24.2137 20.3499 16.3438 16.3594 16.3438 16.3594ZM91.1084 60.2554H24.2137C24.2137 60.2554 16.3438 64.2459 16.3438 74.2223C16.3438 84.1986 24.2137 88.1892 24.2137 88.1892H91.1084C91.1084 88.1892 83.2385 84.1986 83.2385 74.2223C83.2385 64.2459 91.1084 60.2554 91.1084 60.2554Z" stroke="#830303" stroke-width="3.42047" stroke-linecap="round" stroke-linejoin="round"/>
<defs>
<linearGradient id="paint0_linear_897_42342" x1="30.1299" y1="8.31503" x2="47.3483" y2="110.901" gradientUnits="userSpaceOnUse">
<stop offset="0.00216588" stop-color="#D31D0E"/>
<stop offset="0.515625" stop-color="#FA8A8A"/>
<stop offset="1" stop-color="#FF1600"/>
</linearGradient>
</defs>
</svg>
