<svg width="130" height="84" viewBox="0 0 130 84" fill="none" xmlns="http://www.w3.org/2000/svg">
<path d="M0.00236511 74.4068C0.00236511 38.524 28.9169 9.41797 64.5637 9.41797C100.21 9.4492 129.125 38.524 129.125 74.4068" fill="url(#paint0_linear_897_42322)"/>
<path d="M80.7189 72.8449L78.2005 52.3973C77.8436 49.5011 76.4556 46.8368 74.2976 44.9055C72.1396 42.9743 69.3602 41.909 66.482 41.9102H57.8093C54.9325 41.911 52.155 42.9771 49.9986 44.9082C47.8422 46.8393 46.4554 49.5024 46.0987 52.3973L43.5764 72.8449C43.4379 73.9683 43.5368 75.1087 43.8663 76.1903C44.1958 77.272 44.7485 78.2702 45.4876 79.1187C46.2267 79.9671 47.1354 80.6464 48.1533 81.1114C49.1711 81.5764 50.2749 81.8164 51.3913 81.8156H72.9079C74.0239 81.8159 75.1272 81.5754 76.1446 81.1102C77.162 80.6449 78.0702 79.9656 78.8089 79.1172C79.5476 78.2688 80.0999 77.2708 80.4292 76.1894C80.7585 75.108 80.8572 73.9679 80.7189 72.8449V72.8449Z" stroke="#023A9C" stroke-width="3.42047" stroke-linecap="round" stroke-linejoin="round"/>
<path d="M62.1488 25.9433C68.6685 25.9433 73.9538 20.5834 73.9538 13.9716C73.9538 7.35988 68.6685 2 62.1488 2C55.629 2 50.3438 7.35988 50.3438 13.9716C50.3438 20.5834 55.629 25.9433 62.1488 25.9433Z" stroke="#023A9C" stroke-width="3.42047"/>
<path d="M30.6668 37.9114C35.0133 37.9114 38.5368 34.3382 38.5368 29.9303C38.5368 25.5225 35.0133 21.9492 30.6668 21.9492C26.3204 21.9492 22.7969 25.5225 22.7969 29.9303C22.7969 34.3382 26.3204 37.9114 30.6668 37.9114Z" stroke="#023A9C" stroke-width="3.42047"/>
<path d="M93.62 37.9114C97.9664 37.9114 101.49 34.3382 101.49 29.9303C101.49 25.5225 97.9664 21.9492 93.62 21.9492C89.2735 21.9492 85.75 25.5225 85.75 29.9303C85.75 34.3382 89.2735 37.9114 93.62 37.9114Z" stroke="#023A9C" stroke-width="3.42047"/>
<path d="M30.6667 49.8867H29.4626C27.5996 49.8865 25.7969 50.5565 24.3753 51.7775C22.9537 52.9985 22.0053 54.6914 21.6988 56.5549L20.3885 64.536C20.2004 65.6795 20.2603 66.8508 20.5638 67.9684C20.8674 69.0861 21.4074 70.1232 22.1463 71.0077C22.8852 71.8923 23.8053 72.603 24.8425 73.0903C25.8797 73.5777 27.0091 73.8301 28.1522 73.83H42.4717M93.6267 49.8867H94.8308C96.6938 49.8865 98.4964 50.5565 99.9181 51.7775C101.34 52.9985 102.288 54.6914 102.595 56.5549L103.905 64.536C104.093 65.6795 104.033 66.8508 103.73 67.9684C103.426 69.0861 102.886 70.1232 102.147 71.0077C101.408 71.8923 100.488 72.603 99.4509 73.0903C98.4137 73.5777 97.2843 73.8301 96.1412 73.83H81.8217" stroke="#023A9C" stroke-width="3.42047" stroke-linecap="round" stroke-linejoin="round"/>
<defs>
<linearGradient id="paint0_linear_897_42322" x1="119.928" y1="53.9798" x2="13.4369" y2="9.64385" gradientUnits="userSpaceOnUse">
<stop stop-color="#104EBC"/>
<stop offset="0.46875" stop-color="#78A9FF"/>
<stop offset="1" stop-color="#005CFF"/>
</linearGradient>
</defs>
</svg>
