<svg width="97" height="108" viewBox="0 0 97 108" fill="none" xmlns="http://www.w3.org/2000/svg">
<path d="M0 52.3994L9.88206 47.2629L5.68275 37.0805L16.7972 35.5418L16.4092 24.5901L27.3868 26.8755L30.8558 16.4668L40.4183 22.2821L47.3335 13.6836L54.2943 22.3047L63.8112 16.5573L67.3486 26.9886L78.3262 24.7711L78.0066 35.7229L89.1211 37.3068L84.9674 47.4666L94.8723 52.6709L87.4094 60.8168L94.918 69.008L85.0359 74.1671L89.2352 84.3495L78.1208 85.8656L78.5087 96.8173L67.5312 94.5546L64.0622 104.963L54.4997 99.148L47.5845 107.746L40.6237 99.1027L31.1068 104.85L27.5693 94.4414L16.5918 96.6589L16.9113 85.7072L5.79686 84.1006L9.95052 73.9408L0.0456404 68.7365L7.50854 60.5906L0 52.3994Z" fill="url(#paint0_linear_897_42313)"/>
<path d="M48.75 47.8859V37.9095L78.6791 7.98047L88.6554 17.9568L58.7264 47.8859H48.75Z" stroke="#ED8E00" stroke-width="3.42047" stroke-linecap="round" stroke-linejoin="round"/>
<path d="M32.787 47.8906H18.8201C16.1742 47.8906 13.6367 48.9417 11.7658 50.8126C9.89483 52.6836 8.84375 55.2211 8.84375 57.867C8.84375 60.5129 9.89483 63.0504 11.7658 64.9213C13.6367 66.7923 16.1742 67.8433 18.8201 67.8433H78.6783C81.3242 67.8433 83.8617 68.8944 85.7326 70.7654C87.6036 72.6363 88.6546 75.1738 88.6546 77.8197C88.6546 80.4656 87.6036 83.0031 85.7326 84.8741C83.8617 86.745 81.3242 87.7961 78.6783 87.7961H36.7776" stroke="#ED8E00" stroke-width="3.42047" stroke-linecap="round" stroke-linejoin="round"/>
<defs>
<linearGradient id="paint0_linear_897_42313" x1="70.661" y1="23.9069" x2="28.4192" y2="102.567" gradientUnits="userSpaceOnUse">
<stop stop-color="#FFCC30"/>
<stop offset="0.385417" stop-color="#EB9B00"/>
<stop offset="1" stop-color="#FFF3CF"/>
</linearGradient>
</defs>
</svg>
