<svg width="208" height="7" viewBox="0 0 208 7" fill="none" xmlns="http://www.w3.org/2000/svg">
<path d="M205.977 2.31111C206.177 2.32364 206.377 2.33618 206.606 2.3505C206.792 2.5826 206.779 2.7922 206.365 2.9867C206.561 3.0691 206.765 3.01177 207.185 3.17835C206.74 3.87188 207.122 4.18638 206.681 4.81004C206.061 4.63093 205.439 4.95261 204.61 4.90069C204.605 4.97055 204.801 5.05296 204.792 5.20266C204.392 5.1776 204.159 5.23314 204.154 5.303C202.305 5.0469 201.865 5.66058 200.618 5.87302C198.351 5.87131 197.354 5.30785 196.561 4.67706C194.494 4.68788 193.265 4.61089 191.398 4.64422C190.998 4.61915 191.394 4.71408 191.384 4.86379C189.951 4.84413 188.918 4.84954 187.251 4.8954C186.222 4.83095 184.141 5.06134 183.955 4.82924C182.271 5.15455 179.408 5.04538 177.126 4.83229C170.721 4.93206 164.525 4.90464 158.329 4.87721C153.995 4.8963 149.675 4.69581 145.533 4.86715C145.541 4.72743 145.346 4.63505 145.146 4.62252C144.746 4.59745 145.142 4.69238 145.132 4.84209C144.112 4.63791 143.075 4.71318 141.846 4.63619C140.594 4.9185 139.77 4.79673 138.112 4.69289C137.483 4.6535 137.474 4.79323 137.269 4.86054C136.454 4.58905 135.612 4.75669 135.207 4.80148C134.174 4.80689 131.725 4.5132 130.887 4.60101C130.482 4.64581 130.473 4.79551 130.044 4.76866C128.178 4.79201 126.544 4.7698 124.882 4.73582C123.648 4.72869 121.764 5.04148 121.157 4.64279C119.897 5.06483 117.875 4.36703 117.415 4.8392C114.966 4.5455 113.472 5.02308 111.437 4.53488C110.804 4.56535 111.428 4.6746 111.019 4.79924C108.328 4.70081 103.98 4.93946 101.336 4.55339C100.936 4.52832 100.922 4.7479 100.689 4.80344C99.0401 4.55987 98.2086 5.00877 97.4023 4.59755C97.3841 4.88698 95.7177 4.92286 93.8885 4.80828C93.8929 4.73841 93.8972 4.66855 93.6972 4.65602L93.7015 4.58616C93.5015 4.57363 93.4971 4.64348 93.6972 4.65602C93.6928 4.72588 93.4927 4.71335 93.4834 4.86306C91.8169 4.89894 90.1922 4.72703 89.3539 4.82481C89.3627 4.68509 88.9901 4.22089 89.5809 4.40819C89.5897 4.26847 89.3895 4.25593 89.1945 4.16356C88.7675 4.56765 87.1323 4.10451 87.3098 4.47633C87.1098 4.4638 87.1142 4.39395 86.9141 4.38141L86.9185 4.31154C87.1185 4.32408 87.1186 4.32409 87.1229 4.25422C86.9229 4.24169 86.9228 4.24168 86.9185 4.31154C86.7184 4.29901 86.714 4.36888 86.9141 4.38141C86.9053 4.52114 86.0715 4.54906 86.0809 4.39935C86.0946 4.17978 86.9054 4.52113 86.0809 4.39935C84.6518 4.30983 84.3919 4.79453 83.3805 4.45062C83.1804 4.43809 83.1761 4.50795 83.3717 4.59035C83.1717 4.57782 82.9629 4.70501 82.743 4.55096C82.7473 4.4811 82.9474 4.49363 82.743 4.55096C82.3341 4.66562 82.1185 4.44171 81.9278 4.27947C81.2947 4.30994 82.1098 4.58144 81.7053 4.62623C81.3095 4.53131 80.4807 4.47939 80.4944 4.25982C79.8519 4.44 78.8099 4.58514 77.3852 4.42576C77.3896 4.3559 77.1938 4.2735 76.9938 4.26096C76.9981 4.1911 77.0025 4.12124 77.0075 4.04139C76.6074 4.01633 76.1787 3.98947 75.7786 3.96441C75.7829 3.89455 75.7873 3.82468 75.7923 3.74484C74.9678 3.62306 75.1548 3.84518 74.5546 3.80758C74.5684 3.58801 73.9345 3.62846 73.7257 3.75566L73.5257 3.74313C73.5213 3.81299 73.7213 3.82552 73.7257 3.75566C74.1171 3.92045 73.9258 3.76819 74.5546 3.80758C74.5502 3.87744 74.5458 3.94731 74.5408 4.02715C74.3452 3.94475 73.5119 3.96269 73.1074 4.00749C73.0987 4.14721 74.3364 4.08448 74.5408 4.02715C74.7409 4.03968 74.7452 3.96981 75.174 3.99667C75.5603 4.2413 74.3364 4.08447 74.9602 4.20371C73.9087 4.49855 71.2402 4.04082 71.2084 4.54982C71.1946 4.76939 70.5796 4.51044 70.817 4.38503C69.6018 4.08848 68.9411 4.5581 67.7258 4.26154C68.5685 4.09389 67.5483 3.88971 67.3345 4.09675C67.1344 4.08422 66.7057 4.05736 66.5056 4.04483C65.8856 3.86572 65.0678 4.09502 64.434 4.13548C64.234 4.12295 64.234 4.12295 64.0339 4.11041C64.0295 4.18028 64.4297 4.20534 64.434 4.13548C65.4492 4.4195 65.6768 3.99291 66.5056 4.04483C66.2874 4.32173 67.13 4.15408 67.3345 4.09675C67.7077 4.55098 65.663 4.21248 66.0742 4.51879C65.6829 4.354 65.6785 4.42386 65.2454 4.46687C65.241 4.53673 65.6411 4.56179 65.8698 4.57611C65.4609 4.69077 64.427 4.70615 63.7938 4.73663C63.7982 4.66677 63.8026 4.59692 64.0077 4.52961C62.7562 4.81192 61.0941 4.77794 59.6606 4.75828C59.665 4.68842 59.6694 4.61856 59.2692 4.59349C59.278 4.45376 58.4448 4.4717 58.436 4.61143C58.6274 4.76368 58.6361 4.62396 59.2605 4.73322C58.8516 4.84788 58.4229 4.82102 57.8227 4.78342C59.0742 4.50111 56.1788 4.46 55.9693 4.59718C56.1606 4.74944 57.0026 4.59177 57.627 4.70102C56.9939 4.73149 56.1755 4.9708 55.5604 4.71184C55.9693 4.59718 55.5692 4.57211 54.9404 4.53272C54.7316 4.65992 55.1317 4.68498 55.5604 4.71184C54.5046 5.07654 51.6223 4.82586 49.5464 4.98639C49.1462 4.96132 49.355 4.83412 49.3644 4.68441C48.74 4.57516 48.5312 4.70236 48.1311 4.6773C47.9354 4.5949 47.931 4.66477 48.1311 4.6773C48.1267 4.74716 47.9266 4.73462 47.7266 4.72209C47.9041 5.09392 48.5642 4.63429 49.1512 4.88148C48.3136 4.96928 46.6751 5.01694 45.2131 4.99549C45.2087 5.06535 45.2044 5.13522 45.3994 5.2276C46.0282 5.26698 46.042 5.0474 46.8372 5.17737C46.6284 5.30457 45.9996 5.26518 45.9859 5.48475C45.5995 5.24011 44.7612 5.33791 43.9324 5.28599C43.9236 5.42571 44.5568 5.39524 44.3188 5.53062C43.9187 5.50556 43.6813 5.63095 43.0854 5.52349C43.0942 5.38377 43.7186 5.49302 43.728 5.34331C42.6947 5.34872 43.3278 5.31826 43.5416 5.11122C42.9216 4.93211 42.6859 5.48845 42.2764 5.61309C42.0763 5.60055 42.0807 5.5307 41.8807 5.51817C42.0895 5.39097 42.5275 5.26811 42.1076 5.10153C41.7031 5.14633 41.8938 5.30858 41.4745 5.13202C41.0743 5.10695 41.4607 5.35159 41.8658 5.29681C41.0232 5.46446 40.8325 5.30222 39.7993 5.30763C39.7905 5.44735 40.4237 5.41688 40.1856 5.55226C40.8144 5.59165 40.8231 5.45192 41.4233 5.48952C40.572 5.7969 39.3249 6.00934 37.4809 5.67339C37.4627 5.96282 36.4476 5.6788 35.8144 5.70928C34.9812 5.72722 33.9298 6.02206 32.7139 5.73549C31.6762 5.81076 29.991 6.14606 29.3908 6.10846C28.9907 6.0834 26.3128 5.77537 26.2816 6.2744C19.6767 6.36163 12.1825 6.90416 5.21308 6.39745C2.79575 5.59475 1.40123 4.49541 0.0346988 3.40785C1.35809 1.97778 7.9603 2.39137 11.6698 2.26303C11.8698 2.27556 11.8655 2.34543 11.8611 2.41529C12.6856 2.53707 12.0881 1.99867 13.3083 2.21538C13.0901 2.49228 13.9371 2.25477 13.3083 2.21538C14.7417 2.23504 16.2131 2.10677 17.4283 2.40333C17.6284 2.41586 17.8328 2.35853 17.8422 2.20882C18.0285 2.44092 19.4999 2.31267 20.1045 2.2804C21.1334 2.34486 21.5423 2.2302 22.3624 2.42184C22.9956 2.39137 22.1711 2.26958 22.3805 2.1324C23.0049 2.24165 24.2295 2.38851 24.2427 2.17892C25.0628 2.37057 26.9293 2.34721 28.172 2.20463C28.3721 2.21716 29.0009 2.25655 28.9965 2.32641C29.3966 2.35147 29.4054 2.21175 29.4148 2.06205C29.6061 2.21431 30.8301 2.37114 31.0725 2.16589C35.8351 2.17366 39.7265 2.34728 43.6783 2.0137C46.9514 2.43916 50.0969 1.69435 54.1944 2.2416C57.1174 1.84356 61.028 2.1687 64.3511 1.79573C65.3619 2.14961 66.4358 1.49548 67.8467 1.87443C68.2512 1.82963 68.4842 1.77408 68.6937 1.63691C68.8894 1.7193 69.7089 1.92094 69.5269 1.61897C70.342 1.89047 71.5935 1.60815 71.9849 1.77295C71.5804 1.81774 71.9805 1.84281 71.9849 1.77295C73.0363 1.4781 75.2854 1.75927 76.9519 1.72338C78.1896 1.66064 79.4367 1.44819 80.9037 1.3898C85.0419 1.28832 89.5665 1.43146 93.3139 1.15521C94.3516 1.07993 95.5718 1.29665 96.6051 1.29124C98.2716 1.25536 99.5231 0.973048 101.157 0.995256C101.557 1.02032 101.553 1.09018 101.982 1.11703C103.411 1.20655 104.891 0.93857 106.124 0.945693C108.386 1.01727 110.054 0.971407 112.12 0.960588C112.32 0.97312 112.325 0.903265 112.125 0.890732C114.596 0.825135 116.249 1.00882 118.963 0.737972C127.213 0.964168 134.073 0.462094 141.889 0.731297C145.836 0.477556 152.019 0.714568 155.962 0.530691C156.357 0.625618 156.786 0.652474 156.982 0.734869C157.829 0.497358 158.648 0.698994 159.887 0.626274C163.387 0.625129 166.716 0.623222 170.012 0.679408C170.412 0.704474 169.821 0.527148 170.221 0.552214C172.67 0.845912 175.383 0.585048 178.074 0.683481C178.275 0.696014 178.266 0.83574 178.074 0.683481C178.708 0.653006 180.537 0.767589 181.361 0.889373C183.655 0.451947 187.353 0.974119 189.433 0.74373C193.553 0.93168 199.13 0.77001 204.297 0.732982C205.503 1.16926 204.652 1.47665 205.254 1.94519C205.654 1.97026 205.663 1.83052 205.672 1.68082C205.804 1.86942 206.386 2.19645 205.977 2.31111C205.973 2.38097 205.573 2.35591 205.977 2.31111ZM25.1713 6.13472C25.3714 6.14725 25.5714 6.15977 25.5758 6.08991C25.3757 6.07738 25.1757 6.06485 25.1713 6.13472ZM33.4701 5.57245C33.6702 5.58499 33.8703 5.59751 33.8746 5.52765C33.6746 5.51512 33.4745 5.50259 33.4701 5.57245ZM34.0703 5.61005C34.2704 5.62258 34.4705 5.63511 34.4749 5.56525C34.3034 5.5545 34.0747 5.54019 34.0703 5.61005ZM36.9751 5.50144C36.9839 5.36171 37.1752 5.51398 37.3709 5.59637C37.3753 5.52651 37.7754 5.55157 38.0041 5.56589C38.0128 5.42617 38.0178 5.34633 37.8222 5.26393C37.4264 5.16901 37.1796 5.44411 37.1977 5.15468C36.7976 5.12961 35.7599 5.20488 36.3551 5.32232C36.5975 5.11708 36.57 5.55622 36.9751 5.50144ZM39.2868 4.78456C38.6581 4.74517 38.4536 4.8025 38.2442 4.93968C38.8686 5.04893 38.8823 4.82936 39.2868 4.78456ZM39.7693 3.9531C39.5692 3.94056 39.3779 3.78831 39.1493 3.77398C39.1405 3.91371 38.9405 3.90118 38.7354 3.96849C38.9361 3.97104 39.7606 4.09282 39.7693 3.9531ZM39.3994 2.98809C39.5994 3.00063 39.7995 3.01315 39.8039 2.94329C39.6324 2.93255 39.4038 2.91823 39.3994 2.98809ZM39.8012 3.4441C40.0013 3.45663 40.2013 3.46917 40.2057 3.39931C40.0056 3.38678 39.8056 3.37424 39.8012 3.4441ZM42.4636 3.54075C42.6637 3.55328 42.8638 3.56581 42.8681 3.49595C42.6966 3.4852 42.468 3.47089 42.4636 3.54075ZM43.0743 3.86957C43.2743 3.8821 43.4744 3.89462 43.4788 3.82476C43.2787 3.81223 43.0787 3.7997 43.0743 3.86957ZM45.2828 4.79945C45.4828 4.81198 45.6829 4.82452 45.6873 4.75466L45.8874 4.7672C45.8692 5.05663 46.7162 4.81912 45.8874 4.7672C45.8917 4.69733 45.6917 4.6848 45.6873 4.75466C45.2915 4.65973 45.0723 4.49571 44.8585 4.70274C45.0871 4.71707 45.2872 4.72959 45.2828 4.79945C45.269 5.01902 44.4583 4.67767 45.2828 4.79945ZM45.1909 3.06031C45.391 3.07284 45.591 3.08538 45.5954 3.01552C45.3953 3.00299 45.1953 2.99045 45.1909 3.06031ZM47.6713 2.85498C47.2712 2.82992 46.8513 2.66335 46.6381 2.8604C46.8667 2.87473 47.6619 3.00469 47.6713 2.85498C48.6959 2.9893 47.9131 2.65972 47.6713 2.85498ZM49.3021 3.38799C49.0883 3.59503 48.6734 3.3486 48.4777 3.2662C48.4733 3.33606 48.0732 3.31101 47.8445 3.29668C47.8358 3.43641 47.6357 3.42388 47.6307 3.50372C48.4552 3.6255 48.2551 3.61296 49.0554 3.66309C49.0883 3.59502 49.9259 3.50722 49.3021 3.38799C49.1021 3.37546 49.1065 3.3056 49.3021 3.38799ZM48.9939 5.10207C48.9896 5.17193 48.5894 5.14686 48.3608 5.13254C48.3652 5.06268 48.7939 5.08954 48.9939 5.10207ZM49.3803 5.34671C49.3716 5.48643 48.7428 5.44704 48.5471 5.36464C48.5514 5.29478 48.9802 5.32164 49.3803 5.34671ZM49.9622 2.92836C49.5291 2.97137 49.9578 2.99822 49.9622 2.92836C50.1623 2.94089 50.1666 2.87102 49.9666 2.85849C49.9709 2.78862 49.9753 2.71876 49.7753 2.70623C49.7709 2.77609 48.3462 2.61671 49.1327 2.88641C49.1371 2.81655 49.5372 2.84161 49.9659 2.86846L49.9622 2.92836ZM49.8272 5.08412C49.8228 5.15398 49.4226 5.12893 49.194 5.1146C49.1984 5.04474 49.5985 5.0698 49.8272 5.08412ZM49.7067 3.34319C49.6979 3.48291 49.898 3.49545 49.893 3.57529C49.4885 3.62009 49.8886 3.64515 49.893 3.57529C50.0974 3.51796 50.7218 3.62721 50.7306 3.48749C50.7487 3.19805 51.5594 3.53941 50.7306 3.48749C50.3311 3.45244 50.3398 3.31271 49.7067 3.34319ZM50.0635 4.5178C50.2636 4.53034 50.6923 4.55718 50.6967 4.48732C50.468 4.473 50.0679 4.44794 50.0635 4.5178ZM51.2093 2.7159C50.8092 2.69084 50.3805 2.66398 50.3717 2.80371C50.7712 2.83875 51.3956 2.94801 51.2093 2.7159ZM51.2562 5.17364C51.2424 5.39321 50.6274 5.13425 50.8648 5.00885C51.0649 5.02138 51.0561 5.16111 51.2562 5.17364ZM51.018 2.56364C51.2181 2.57618 51.6468 2.60304 51.6512 2.53318C51.4225 2.51886 51.0224 2.49378 51.018 2.56364ZM51.3193 4.16562C51.3237 4.09576 51.5238 4.10829 51.3193 4.16562C50.9148 4.21042 51.315 4.23548 51.3193 4.16562ZM52.402 3.37176C51.7776 3.26251 51.5594 3.53941 51.9838 3.63613C51.7689 3.40224 52.589 3.59388 52.402 3.37176ZM55.2844 3.62246C54.9024 3.30796 56.122 3.53464 56.1313 3.38493C54.4693 3.35096 53.4404 3.2865 52.1845 3.63868C53.4085 3.79551 53.8405 3.31158 55.2844 3.62246ZM52.4765 5.39035C52.4721 5.46022 52.272 5.44769 52.0719 5.43516C52.0763 5.3653 52.2764 5.37782 52.4765 5.39035ZM52.4383 2.79289C52.6384 2.80542 52.8384 2.81796 52.8428 2.7481C52.6427 2.73557 52.4427 2.72303 52.4383 2.79289ZM54.1091 2.68715C54.3092 2.69968 54.3048 2.76955 54.3005 2.83941C54.7006 2.86448 54.9336 2.80893 55.138 2.7516C55.5426 2.70681 58.0335 2.7927 55.9851 2.51409C55.9713 2.73366 54.9561 2.44964 55.138 2.7516C54.9144 2.65744 54.1185 2.53744 54.1091 2.68715ZM54.4736 3.28109C54.478 3.21123 54.478 3.21123 54.4824 3.14137C54.2823 3.12883 54.2823 3.12883 54.0822 3.1163C54.0779 3.18616 54.0779 3.18616 54.0735 3.25603C54.2736 3.26856 54.2736 3.26856 54.4736 3.28109ZM54.8244 4.09462C55.0244 4.10715 55.2245 4.11968 55.2289 4.04982C55.0574 4.03907 54.8287 4.02476 54.8244 4.09462ZM55.2437 4.27118C55.4438 4.28371 55.6439 4.29624 55.6482 4.22637C55.4482 4.21384 55.2481 4.20132 55.2437 4.27118ZM55.9158 3.16103C56.7628 2.92352 56.7315 3.42254 55.9158 3.16103C54.8919 3.01673 55.7026 3.35809 55.9158 3.16103ZM55.8577 4.0892C56.0577 4.10174 56.2578 4.11428 56.2622 4.04441C56.0907 4.03367 55.862 4.01934 55.8577 4.0892ZM56.7272 3.4924C56.1028 3.38315 56.3183 3.60707 56.0846 3.67259C56.709 3.78184 56.5221 3.55972 56.7272 3.4924ZM56.9447 3.22548C58.3825 3.17528 56.5358 3.34014 56.936 3.36521C57.5691 3.33474 57.9649 3.42966 58.1562 3.58192C58.365 3.45473 58.9988 3.41427 59.2077 3.28708C59.399 3.43934 59.832 3.39633 59.3939 3.51918C59.7985 3.47438 60.2315 3.43137 60.441 3.29419C59.8166 3.18494 59.8035 3.39454 59.2077 3.28708C59.0213 3.05498 60.2366 3.35152 60.0546 3.04956C59.2214 3.0675 59.4215 3.08003 58.6256 2.96004C57.5923 2.96545 58.4393 2.72794 58.6256 2.96004C58.6074 3.24947 56.7672 2.85366 56.9447 3.22548ZM57.7605 3.48699C57.5604 3.47445 57.3603 3.46192 57.1317 3.4476C57.323 3.59986 56.4891 3.62779 57.1136 3.73704C57.1509 3.5991 57.556 3.54432 57.7605 3.48699ZM58.6474 2.61073C58.2473 2.58567 56.9854 2.57676 57.6048 2.76585C57.8142 2.62868 58.6387 2.75046 58.6474 2.61073ZM57.5241 4.05332L58.1485 4.16258C58.5574 4.04792 57.5335 3.90361 57.5241 4.05332ZM58.4524 2.51835C58.6524 2.53089 58.8525 2.54341 58.8569 2.47355C58.6568 2.46102 58.4567 2.44849 58.4524 2.51835ZM59.5776 4.2521C59.582 4.18224 59.582 4.18224 59.5863 4.11237C59.5951 3.97265 58.7575 4.06044 58.553 4.11777C58.9532 4.14284 58.9444 4.28257 59.5776 4.2521ZM63.1814 2.60417C63.1858 2.53431 63.4144 2.54863 63.1814 2.60417C62.9857 2.52178 61.9524 2.52719 61.748 2.58452C61.1236 2.47527 61.3522 2.4896 60.7278 2.38034C60.714 2.59991 60.5233 2.43767 60.3233 2.42513C60.4965 2.86683 59.2944 2.36068 59.2719 2.71998C59.9094 2.61964 60.7053 2.73964 61.1252 2.90622C61.134 2.76649 60.9339 2.75396 60.9389 2.67412C61.3391 2.69918 61.7678 2.72604 61.7765 2.58631C62.1437 2.67945 62.5724 2.7063 63.1814 2.60417ZM59.782 4.19476C59.9821 4.20729 60.4108 4.23416 60.4152 4.16429C60.2151 4.15176 59.7864 4.1249 59.782 4.19476ZM61.0698 3.33358C61.2698 3.34612 61.2655 3.41599 61.4655 3.42852C61.6656 3.44105 61.6569 3.58078 61.4655 3.42852C61.6794 3.22148 61.8613 3.52345 62.4945 3.49297C62.4901 3.56283 62.0899 3.53777 62.0856 3.60763C62.4857 3.6327 62.9144 3.65955 63.1232 3.53236C62.9232 3.51983 62.7231 3.5073 62.4945 3.49297C62.9033 3.37831 63.9322 3.44276 64.3747 3.25005C63.1457 3.17306 62.7033 3.36577 61.6838 3.15161C61.6881 3.08175 61.6975 2.93204 61.8976 2.94457C61.8932 3.01443 61.8932 3.01443 61.8888 3.0843C62.2889 3.10936 62.5219 3.05382 62.7264 2.99649C62.7308 2.92663 62.9308 2.93916 62.7264 2.99649C62.5263 2.98396 62.0976 2.9571 61.8976 2.94457C61.9019 2.87471 61.9019 2.87471 61.9063 2.80485C61.2731 2.83532 61.2594 3.05489 60.6548 3.08716C61.0462 3.25195 61.055 3.11222 61.6838 3.15161C62.0943 3.4679 61.0785 3.19386 61.0698 3.33358ZM61.2622 3.92677C61.2578 3.99664 60.4245 4.01458 61.0483 4.13381C61.0248 4.05218 61.858 4.03423 61.2622 3.92677ZM61.3991 4.94732C61.3947 5.01719 61.1946 5.00466 60.9946 4.99213C60.9704 4.92048 61.199 4.93479 61.3991 4.94732ZM61.3566 2.41973C61.5566 2.43227 61.7567 2.44479 61.7611 2.37493C61.5616 2.35241 61.3616 2.33989 61.3566 2.41973ZM62.1618 2.39002C62.1662 2.32015 62.3949 2.33448 62.1618 2.39002C61.7567 2.4448 62.1568 2.46986 62.1618 2.39002ZM62.2911 3.99123C62.905 3.80926 63.7158 4.15061 62.2911 3.99123C61.4666 3.86944 62.278 4.20082 62.2911 3.99123ZM63.7833 3.07273C63.9834 3.08526 64.1747 3.23752 64.4121 3.11212C64.1834 3.09779 63.9921 2.94553 63.7833 3.07273ZM64.1021 4.39525C64.7353 4.36478 64.4935 4.56004 64.9222 4.5869C65.131 4.4597 64.3402 4.25987 64.1021 4.39525ZM65.2167 3.09238C65.4168 3.10491 65.6169 3.11745 65.6212 3.04759C65.4497 3.03684 65.2211 3.02251 65.2167 3.09238ZM67.1889 4.58861C67.1933 4.51875 67.3977 4.4614 67.5978 4.47394C67.6226 4.53561 67.6176 4.61547 67.1889 4.58861ZM67.5126 3.08591C67.5082 3.15577 67.5082 3.15577 67.5038 3.22563C67.7039 3.23816 67.6995 3.30802 67.8996 3.32055C67.9083 3.18082 68.1084 3.19336 68.1134 3.11351C68.3135 3.12604 68.5048 3.2783 68.7334 3.29263C68.7559 2.93333 69.5579 3.41442 70.3955 3.32661C70.3999 3.25675 70.4042 3.18689 70.2042 3.17435L70.2085 3.10448C69.8084 3.07942 70.2129 3.03462 70.2173 2.96476C70.0216 2.88236 69.3928 2.84298 68.9927 2.81792C69.6034 3.14674 68.5788 3.01242 68.1414 3.12529C67.9127 3.11097 67.7127 3.09844 67.5126 3.08591ZM67.7214 2.95871C67.9214 2.97124 68.1215 2.98377 68.1259 2.91391C67.9258 2.90137 67.7258 2.88885 67.7214 2.95871ZM70.6531 2.42095C69.6241 2.35649 68.5953 2.29204 68.1814 2.48655C69.3774 2.63161 70.0155 2.52128 70.6531 2.42095ZM70.9407 4.2425L71.1408 4.25503C71.5546 4.06052 72.8122 4.1393 72.8347 3.78C71.41 3.62062 71.1589 3.96559 69.7342 3.80621C69.9118 4.17804 67.8677 3.82956 68.6784 4.17091C69.3116 4.14043 70.3449 4.13502 70.3586 3.91545C70.7587 3.94052 70.745 4.1601 70.9407 4.2425C70.9363 4.31236 70.5362 4.28729 70.9407 4.2425ZM69.7748 3.15747C69.7705 3.22734 70.1706 3.2524 70.175 3.18254C69.9749 3.17001 69.9749 3.17001 69.7748 3.15747ZM70.8081 3.15207C71.0082 3.1646 71.2039 3.24699 71.6326 3.27385C72.0459 3.08932 70.8169 3.01235 70.8081 3.15207ZM71.4671 2.25151C71.6672 2.26404 71.8673 2.27657 71.8716 2.2067C71.7001 2.19596 71.4715 2.18164 71.4671 2.25151ZM71.7045 2.1261C71.9046 2.13863 72.1046 2.15116 72.109 2.0813C71.9089 2.06876 71.7089 2.05624 71.7045 2.1261ZM72.2778 2.59285C72.2866 2.45313 72.4867 2.46566 72.4917 2.38582C73.1248 2.35534 72.883 2.55061 72.678 2.61792C73.3067 2.65731 73.7113 2.61251 73.9157 2.55518C73.5156 2.53011 73.0825 2.57313 73.0912 2.4334C73.4957 2.38861 74.3202 2.51039 74.9577 2.41005C75.3579 2.43512 75.5909 2.37958 75.5953 2.30971C75.1951 2.28465 74.9621 2.34019 74.9577 2.41005C74.7577 2.39752 74.7664 2.25779 74.5663 2.24526C74.3482 2.52216 72.7042 2.19874 72.4904 2.40578C71.9002 2.2085 71.8777 2.56779 72.2778 2.59285ZM72.2234 3.46116C72.4235 3.47369 72.6236 3.48622 72.6279 3.41636C72.4285 3.39384 72.2284 3.38132 72.2234 3.46116ZM72.4642 2.82496C72.4685 2.75509 72.6972 2.76942 72.4642 2.82496C72.0597 2.86976 72.4598 2.89482 72.4642 2.82496ZM73.1023 2.71464C73.0979 2.78451 72.6934 2.82931 73.0885 2.93421C73.0929 2.86435 73.4974 2.81955 73.1023 2.71464ZM73.4843 3.02913C73.8844 3.0542 74.3132 3.08106 74.3088 3.15093C73.6844 3.04168 72.8616 3.35083 73.6619 3.40096L73.6575 3.47083C74.8777 3.68755 74.3044 3.22078 75.1047 3.27091C75.1134 3.13119 74.9133 3.11866 74.9227 2.96895C74.5176 3.02373 73.7217 2.90373 73.4843 3.02913C73.4799 3.099 73.0798 3.07393 73.4843 3.02913ZM74.1762 2.0605C73.7805 1.96558 73.1335 2.21562 73.7623 2.25501C73.7667 2.18515 74.1712 2.14035 74.1762 2.0605ZM73.7311 2.75403C74.1356 2.70923 73.9224 2.90629 74.3511 2.93315C74.5649 2.72611 75.7845 2.95279 76.0269 2.74755C74.7731 2.60889 74.7731 2.6089 73.7311 2.75403C73.7261 2.83387 73.2974 2.80702 73.7311 2.75403ZM74.4994 3.31316C74.295 3.37049 74.0906 3.42782 73.6619 3.40096C73.4706 3.24871 74.5088 3.16345 74.4994 3.31316ZM74.2319 4.37852C74.2275 4.44838 74.0274 4.43585 73.8274 4.42332C73.8318 4.35346 74.0318 4.36598 74.2319 4.37852ZM74.4276 4.46092C74.6414 4.25388 75.0607 4.43044 75.861 4.48057C75.4565 4.52536 74.6518 4.5451 74.4276 4.46092ZM75.1551 2.9234C75.1414 3.14297 75.9659 3.26474 75.9796 3.04517C75.7796 3.03264 75.5553 2.94846 75.1551 2.9234ZM76.7453 4.10513C76.7366 4.24485 75.9121 4.12306 75.712 4.11053C75.7214 3.96082 76.3122 4.14813 76.7453 4.10513ZM77.5681 3.79596C76.9349 3.82643 76.3435 3.6491 75.906 3.76197C76.326 3.92856 77.3593 3.92315 77.5681 3.79596C77.8017 3.73044 77.5731 3.71612 77.5681 3.79596ZM76.8085 3.09709C76.8041 3.16696 76.604 3.15442 76.5997 3.22429C77.6242 3.3586 78.2799 2.96884 78.6619 3.28334C78.8757 3.0763 78.8707 3.15615 78.6844 2.92404C78.0556 2.88465 77.8468 3.01184 77.4372 3.13648C77.4416 3.06662 77.446 2.99676 77.2459 2.98422C77.2086 3.12216 77.0085 3.10963 76.8085 3.09709C76.5936 2.8632 75.7752 3.1025 76.8085 3.09709ZM77.4581 2.34624C78.105 2.0962 78.0737 2.59522 77.4581 2.34624C75.8339 2.16435 76.8447 2.51824 77.4581 2.34624ZM77.4268 2.84527C77.6269 2.8578 77.8269 2.87032 77.8313 2.80046C77.6312 2.78793 77.4312 2.7754 77.4268 2.84527ZM78.5882 4.00014C78.7883 4.01267 78.984 4.09507 78.9746 4.24478C78.3458 4.20539 77.9414 4.25019 77.7319 4.38736C78.3607 4.42675 78.7652 4.38195 79.1697 4.33716C79.3835 4.13012 78.9878 4.03518 79.5967 3.93305C79.0307 3.80742 78.8306 3.79489 78.5882 4.00014C78.5839 4.07 78.1837 4.04494 78.5882 4.00014ZM78.0018 3.74297C78.2019 3.75551 78.6306 3.78235 78.635 3.71249C78.4063 3.69817 78.0062 3.67311 78.0018 3.74297ZM81.3962 2.23223C80.3672 2.16777 79.534 2.18572 79.1245 2.31036C80.1541 2.36483 80.9873 2.34689 81.3962 2.23223ZM79.0351 3.73756C79.2352 3.75009 79.4353 3.76263 79.4396 3.69277C79.2396 3.68023 79.0395 3.66769 79.0351 3.73756ZM80.2685 3.74469C80.2728 3.67482 80.2728 3.67482 80.2772 3.60496C79.8771 3.57989 79.644 3.63543 79.6397 3.7053C79.8683 3.71962 80.0684 3.73215 80.2685 3.74469C80.4598 3.89694 80.4685 3.75722 80.2685 3.74469ZM80.5179 2.96876C80.3179 2.95622 80.3222 2.88637 79.8935 2.85951C79.6797 3.06655 80.2755 3.174 79.8666 3.28866C80.4954 3.32805 80.3091 3.09595 80.5179 2.96876ZM80.6598 3.90948C80.6773 3.63002 81.4887 3.9614 80.6598 3.90948C79.8639 3.78948 80.6461 4.12905 80.6598 3.90948ZM81.1155 3.50717C81.0973 3.7966 81.7305 3.76613 81.9399 3.62896C81.5112 3.6021 81.3112 3.58956 81.1155 3.50717ZM81.5381 3.17294C81.9339 3.26786 83.2045 3.13706 83.8141 3.02495C83.0088 3.05466 81.7563 2.89604 81.5381 3.17294C81.5337 3.2428 81.1336 3.21773 81.5381 3.17294ZM81.7563 2.89604C81.9563 2.90857 82.1564 2.9211 82.1608 2.85124C81.9893 2.84049 81.7607 2.82618 81.7563 2.89604ZM82.8027 2.68104C82.6026 2.66851 82.4026 2.65597 82.1783 2.57178C82.1739 2.64165 81.9695 2.69898 81.9645 2.77882C82.3938 2.7957 82.5983 2.73837 82.8027 2.68104ZM83.0182 2.90495C83.2183 2.91748 83.4184 2.93002 83.4227 2.86016C83.2227 2.84762 83.0226 2.83508 83.0182 2.90495ZM83.5734 3.66114C83.3734 3.64861 83.1777 3.56622 82.949 3.5519C82.9446 3.62176 82.9446 3.62176 82.9403 3.69162C83.1639 3.78579 83.364 3.79831 83.5734 3.66114C83.7779 3.60381 83.5778 3.59128 83.5734 3.66114ZM84.501 2.13615C84.4923 2.27587 83.0676 2.11649 83.8585 2.31633C83.8679 2.16662 85.3211 2.3278 84.501 2.13615ZM83.9302 4.83575C83.9259 4.90562 83.7258 4.89308 83.5257 4.88054C83.5015 4.80889 83.7016 4.82143 83.9302 4.83575ZM84.8518 2.94968C84.8562 2.87981 84.8562 2.87981 84.8605 2.80995C84.6605 2.79742 84.6605 2.79742 84.4604 2.78489C84.456 2.85475 84.456 2.85475 84.4517 2.92461C84.6517 2.93714 84.6517 2.93714 84.8518 2.94968ZM86.4601 3.84197C86.4463 4.06154 85.6269 3.85992 85.8132 4.09202C86.4376 4.20127 86.8559 3.93689 86.4601 3.84197ZM86.9321 2.71929C86.7321 2.70675 86.7321 2.70675 86.532 2.69422C86.5276 2.76408 86.3275 2.75155 86.3232 2.82141C86.7233 2.84648 86.9234 2.85901 86.9321 2.71929ZM86.4013 4.78013C86.4101 4.6404 87.0389 4.6798 87.0483 4.53009C87.4484 4.55516 87.2396 4.68235 87.0345 4.74966C87.2346 4.7622 87.2346 4.76219 87.4346 4.77473C87.4259 4.91445 86.6014 4.79266 86.4013 4.78013ZM86.9684 2.14042C87.1685 2.15295 87.3685 2.16549 87.3729 2.09563C87.2014 2.08489 86.9728 2.07056 86.9684 2.14042ZM88.1178 3.94581C87.4847 3.97628 87.7133 3.99061 87.0889 3.88135C87.0801 4.02108 87.2752 4.11347 87.4709 4.19586C87.4796 4.05613 88.1084 4.09551 88.1178 3.94581ZM87.5878 2.32951C87.3921 2.24711 87.3877 2.31698 87.5878 2.32951C87.7879 2.34204 87.7791 2.48177 87.5878 2.32951ZM87.6016 2.10995C87.8016 2.12249 88.2303 2.14933 88.2347 2.07947C88.0061 2.06515 87.6059 2.04009 87.6016 2.10995ZM88.1309 3.73623C87.2933 3.82403 87.9446 3.50412 87.5159 3.47727C87.5115 3.54713 87.5022 3.69683 87.4978 3.76669C87.6978 3.77923 88.1266 3.80609 88.1309 3.73623ZM87.4346 4.77473C87.439 4.70487 87.8391 4.72992 88.2678 4.75678C88.2722 4.68691 87.8721 4.66185 87.6478 4.57766C87.8522 4.52033 88.281 4.54719 88.6855 4.50239C88.6811 4.57225 88.8768 4.65464 88.8674 4.80435C89.0675 4.81688 89.0675 4.81688 89.2676 4.82942C89.088 4.94842 88.0684 4.73427 87.4346 4.77473ZM87.7385 3.1305C87.9385 3.14304 88.1386 3.15556 88.143 3.0857C87.9429 3.07316 87.7428 3.06064 87.7385 3.1305ZM88.7899 2.83566C88.9899 2.84819 89.19 2.86072 89.1944 2.79085C88.9943 2.77832 88.7943 2.7658 88.7899 2.83566ZM90.607 3.60076C90.6114 3.5309 90.8115 3.54343 90.607 3.60076C90.4113 3.51836 90.2113 3.50584 90.2025 3.64556C89.8024 3.6205 89.5781 3.53631 89.3824 3.45392C89.1686 3.66095 90.3845 3.94753 90.2025 3.64556C90.4026 3.6581 90.6027 3.67062 90.607 3.60076ZM89.423 2.80518C89.6231 2.81771 90.0518 2.84457 90.0562 2.77471C89.8276 2.76039 89.4274 2.73532 89.423 2.80518ZM89.3468 4.02279C89.5468 4.03533 89.7469 4.04787 89.7513 3.978C89.5512 3.96547 89.3511 3.95293 89.3468 4.02279ZM90.3576 4.37669C90.5576 4.38922 90.9863 4.41607 90.9907 4.34621C90.7621 4.33188 90.3619 4.30682 90.3576 4.37669ZM92.0784 3.4725C92.0828 3.40263 92.2829 3.41517 92.0784 3.4725C91.2539 3.35071 92.0647 3.69207 92.0784 3.4725ZM93.3974 2.11231C93.6019 2.05498 93.8113 1.91781 93.4112 1.89274C93.4024 2.03247 92.3867 1.75843 92.7687 2.07292C92.9687 2.08546 93.1688 2.09799 93.3974 2.11231C93.5881 2.27455 93.5975 2.12485 93.3974 2.11231ZM93.867 4.23582C93.0519 3.96433 93.02 4.47333 93.867 4.23582C93.8713 4.16595 94.0714 4.17849 93.867 4.23582ZM95.7291 4.28232C94.6958 4.28773 94.8959 4.30027 94.3045 4.12295C94.3001 4.19281 94.2907 4.34251 94.2863 4.41237C95.1289 4.24473 94.9013 4.67134 95.4972 4.7788C95.7066 4.64163 95.5109 4.55922 95.7291 4.28232C95.9292 4.29486 95.9336 4.225 95.7335 4.21247C94.9003 4.23041 95.7473 3.9929 95.7335 4.21247L95.7291 4.28232ZM95.0447 1.92492C95.0403 1.99478 95.0403 1.99478 95.0359 2.06465C95.236 2.07718 95.2316 2.14705 95.4317 2.15958C95.2404 2.00732 95.8362 2.11478 95.8456 1.96508C96.0594 1.75804 96.8701 2.09939 95.8456 1.96508C95.6734 1.96432 95.2733 1.93924 95.0447 1.92492ZM96.7624 4.27692C96.9581 4.35932 97.1625 4.30198 97.3912 4.31631C97.5912 4.32884 97.5825 4.46857 97.3912 4.31631C97.3955 4.24644 97.3999 4.17658 97.1999 4.16405C97.1675 4.22214 96.7674 4.19708 96.7624 4.27692C96.758 4.34678 96.3579 4.32172 96.7624 4.27692ZM97.9964 4.27406C98.0008 4.2042 98.2294 4.21852 97.9964 4.27406C97.3962 4.23646 98.2069 4.57782 97.9964 4.27406ZM98.9734 1.96062C99.1735 1.97315 99.6022 2 99.6066 1.93014C99.4065 1.91761 98.9778 1.89076 98.9734 1.96062ZM98.834 4.18625C99.034 4.19879 99.4628 4.22564 99.4671 4.15577C99.2671 4.14324 98.8383 4.11639 98.834 4.18625ZM99.8491 4.47028C100.063 4.26324 100.874 4.6046 99.8491 4.47028C99.0253 4.33851 99.836 4.67987 99.8491 4.47028ZM102.074 1.93441C102.274 1.94694 102.474 1.95947 102.478 1.88961C102.278 1.87707 102.078 1.86455 102.074 1.93441ZM103.307 1.94153C102.507 1.8914 103.289 2.23096 103.307 1.94153C103.507 1.95406 103.712 1.89673 103.716 1.82687C103.721 1.757 103.921 1.76954 103.716 1.82687C103.316 1.8018 103.312 1.87167 103.307 1.94153ZM106.631 2.00949C106.832 2.02202 107.032 2.03456 107.036 1.9647C106.837 1.94218 106.636 1.92964 106.631 2.00949ZM107.264 1.53809C107.255 1.67781 107.037 1.95471 107.641 1.92245C107.45 1.77019 107.459 1.62048 107.264 1.53809ZM107.284 4.42498C107.484 4.43751 107.684 4.45005 107.688 4.38019C107.517 4.36944 107.288 4.35511 107.284 4.42498ZM108.092 1.59001C108.292 1.60254 108.493 1.61507 108.497 1.5452C108.297 1.53267 108.097 1.52015 108.092 1.59001ZM107.989 3.24675C108.189 3.25928 108.389 3.27182 108.393 3.20196C108.193 3.18943 107.993 3.17689 107.989 3.24675ZM109.112 1.80416C109.516 1.75936 109.741 1.84355 109.741 1.84355C111.999 1.98499 110.363 1.52185 109.112 1.80416ZM110.337 1.95102C110.537 1.96355 110.737 1.97608 110.741 1.90621C110.541 1.89368 110.341 1.88115 110.337 1.95102ZM111.012 4.44814C111.212 4.46067 111.412 4.4732 111.417 4.40334C111.217 4.38082 111.017 4.3683 111.012 4.44814ZM112.304 3.5171C112.109 3.4347 112.104 3.50456 112.304 3.5171C112.291 3.72668 113.138 3.49915 112.304 3.5171ZM113.976 3.40138C114.176 3.41391 114.376 3.42644 114.38 3.35658C114.18 3.34404 113.98 3.33152 113.976 3.40138ZM114.872 2.37541C115.277 2.33061 115.487 2.63437 115.701 2.42733C115.301 2.40227 115.705 2.35747 115.71 2.28761C115.714 2.21775 115.914 2.23028 115.71 2.28761C115.281 2.26075 115.077 2.31808 114.872 2.37541ZM115.722 1.63708C115.317 1.68188 115.717 1.70694 115.722 1.63708C115.917 1.71948 116.546 1.75887 116.555 1.61915C116.355 1.60661 115.926 1.57975 115.931 1.50989C115.935 1.44003 116.135 1.45256 115.931 1.50989C115.731 1.49736 115.726 1.56722 115.722 1.63708ZM119.242 1.78744C119.651 1.67278 118.627 1.52848 118.617 1.67818C118.817 1.69072 118.817 1.69072 118.813 1.76059C119.042 1.77491 119.042 1.77491 119.242 1.78744ZM119.161 3.07491C119.165 3.00505 119.365 3.01758 119.161 3.07491C118.727 3.1279 119.156 3.15476 119.161 3.07491ZM120.893 1.5302C120.493 1.50513 120.064 1.47827 119.869 1.39587C119.855 1.61544 119.231 1.49622 119.442 1.79997C120.28 1.70219 120.475 1.79456 120.893 1.5302ZM123.384 1.61609C123.584 1.62862 124.013 1.65548 124.017 1.58562C123.789 1.56132 123.389 1.53624 123.384 1.61609ZM125.251 1.58276C125.451 1.5953 125.651 1.60783 125.88 1.62215C125.889 1.48243 125.694 1.39005 125.494 1.37752C125.298 1.29512 125.294 1.36498 125.494 1.37752C125.456 1.52543 125.256 1.5129 125.251 1.58276ZM125.425 2.02445C125.625 2.03698 125.825 2.04952 125.829 1.97966C125.629 1.96712 125.429 1.95458 125.425 2.02445ZM127.089 1.55762C126.894 1.47523 125.874 1.26106 126.056 1.56302C126.689 1.53255 126.46 1.51823 126.88 1.68481C126.885 1.61495 127.085 1.62748 127.089 1.55762C127.289 1.57015 127.489 1.58268 127.494 1.51282C127.498 1.44295 127.698 1.45549 127.494 1.51282C127.322 1.50207 127.094 1.48776 127.089 1.55762ZM125.939 3.42938C126.139 3.44191 126.568 3.46876 126.572 3.39889C126.372 3.38636 125.943 3.35951 125.939 3.42938ZM126.453 2.0889C126.458 2.01904 126.658 2.03157 126.453 2.0889C125.825 2.04951 126.635 2.39086 126.453 2.0889ZM128.15 1.11306C128.35 1.1256 128.779 1.15246 128.783 1.0826C128.583 1.07006 128.154 1.0432 128.15 1.11306ZM129.165 1.39709C128.536 1.3577 128.528 1.49742 128.323 1.56474C128.951 1.60412 129.152 1.61666 129.165 1.39709ZM128.853 3.18104C129.053 3.19357 129.253 3.20611 129.257 3.13624C129.057 3.12371 128.857 3.11117 128.853 3.18104ZM129.949 2.1676C129.953 2.09774 130.154 2.11027 129.949 2.1676C129.125 2.04582 129.935 2.38717 129.949 2.1676ZM131.039 4.47024L131.043 4.40037C130.643 4.3753 130.41 4.43084 130.405 4.5007C130.834 4.52756 130.839 4.4577 131.039 4.47024C131.258 4.63426 131.267 4.48456 131.039 4.47024ZM130.832 1.3612C130.623 1.4884 130.413 1.62557 131.218 1.60584C131.227 1.45613 131.032 1.37374 130.832 1.3612ZM130.841 1.2115L131.041 1.22403C131.241 1.23657 131.232 1.37629 131.041 1.22403C131.046 1.15417 130.845 1.14164 130.841 1.2115C130.837 1.28137 130.437 1.2563 130.841 1.2115ZM131.866 1.34581C132.066 1.35835 131.861 1.41567 131.857 1.48554C132.257 1.5106 132.481 1.5948 132.681 1.60733C132.895 1.40029 132.29 1.44254 132.299 1.29284C132.313 1.07327 133.124 1.41462 132.299 1.29284C132.07 1.28849 131.87 1.27595 131.866 1.34581ZM131.717 3.72116C131.917 3.73369 132.117 3.74623 132.121 3.67637C131.921 3.66384 131.721 3.6513 131.717 3.72116ZM135.786 1.52124C135.79 1.45137 135.794 1.38151 135.394 1.35645C135.39 1.42631 135.38 1.57602 135.581 1.58855C135.586 1.50871 135.586 1.5087 135.786 1.52124ZM137.419 1.55342C137.423 1.48355 137.428 1.41369 137.433 1.33385C136.8 1.36432 136.608 1.21208 136.195 1.3966C136.39 1.48898 136.819 1.51582 137.419 1.55342ZM137.446 1.12427C137.45 1.0544 137.679 1.06873 137.446 1.12427C137.041 1.16906 137.442 1.19413 137.446 1.12427ZM137.852 1.51042C137.675 1.13859 138.877 1.64474 137.852 1.51042C137.419 1.55343 137.848 1.58028 137.852 1.51042ZM140.766 1.26208C140.966 1.27461 141.157 1.42687 141.166 1.28714C141.171 1.2073 140.771 1.18224 140.766 1.26208ZM141.562 1.38208C141.366 1.29968 141.362 1.36955 141.562 1.38208C141.79 1.3964 141.782 1.53613 141.562 1.38208ZM142.609 1.15709C142.613 1.08723 142.842 1.10155 142.609 1.15709C141.384 1.01024 142.195 1.3516 142.609 1.15709ZM142.19 1.42147C141.986 1.4788 141.777 1.61597 142.177 1.64104C142.181 1.57118 142.386 1.51385 142.391 1.434C142.395 1.36414 142.595 1.37667 142.391 1.434L142.19 1.42147ZM143.419 1.49846C143.201 1.77536 144.444 1.63276 144.053 1.46797C143.858 1.3756 143.419 1.49846 143.419 1.49846ZM144.266 1.26093C144.271 1.19107 144.271 1.19107 144.275 1.12121C144.075 1.10868 144.075 1.10868 143.875 1.09614C143.871 1.16601 143.871 1.16601 143.866 1.23587C144.066 1.2484 144.066 1.2484 144.266 1.26093ZM144.064 4.4946C144.264 4.50713 144.464 4.51967 144.468 4.44981C144.268 4.43728 144.068 4.42474 144.064 4.4946ZM145.944 4.25168C145.935 4.39141 145.311 4.28217 145.526 4.51606C145.922 4.61099 146.34 4.34661 145.944 4.25168ZM146.724 1.41491L146.953 1.42923C146.939 1.6488 147.786 1.41129 146.953 1.42923C146.957 1.35937 146.729 1.34504 146.724 1.41491C146.931 1.78853 145.7 1.28059 146.724 1.41491ZM147.991 1.35396C147.767 1.25979 147.762 1.33963 147.991 1.35396C148.178 1.57608 149.025 1.33857 147.991 1.35396ZM149.02 1.41841C149.22 1.43094 149.42 1.44348 149.424 1.37362C149.225 1.35111 149.025 1.33857 149.02 1.41841ZM149.121 3.00785C149.125 2.93799 149.325 2.95052 149.121 3.00785C148.688 3.05086 149.117 3.07772 149.121 3.00785ZM150.049 1.48286C150.249 1.4954 150.249 1.4954 150.449 1.50793C150.457 1.3682 150.257 1.35567 150.057 1.34314C149.415 1.52332 149.671 1.0985 150.057 1.34314C150.054 1.40302 150.054 1.40302 150.049 1.48286ZM150.209 2.13414C150.409 2.14668 150.609 2.15922 150.613 2.08935C150.413 2.07682 150.213 2.06428 150.209 2.13414ZM150.469 4.39483C150.287 4.09287 151.097 4.43422 150.469 4.39483C150.064 4.43963 150.464 4.4647 150.469 4.39483ZM151.487 1.42268C151.087 1.39762 150.854 1.45316 150.849 1.52302C151.278 1.55986 151.483 1.49255 151.487 1.42268ZM151.224 2.41817C151.228 2.34831 151.428 2.36084 151.224 2.41817C150.791 2.46118 151.219 2.48803 151.224 2.41817ZM151.097 4.43422C151.102 4.35438 151.303 4.36691 151.097 4.43422C150.664 4.47723 151.093 4.50408 151.097 4.43422ZM152.116 1.46207C152.12 1.39221 152.32 1.40474 152.116 1.46207C151.683 1.50508 152.111 1.53193 152.116 1.46207ZM152.734 1.21024C152.534 1.19771 152.53 1.26756 152.73 1.2801C152.725 1.34996 152.925 1.36249 152.93 1.29263C153.13 1.30516 153.13 1.30516 153.33 1.3177C153.53 1.33023 153.521 1.46996 153.33 1.3177C153.334 1.24783 153.134 1.23531 152.934 1.22278C152.939 1.15291 152.943 1.08305 152.743 1.07052C152.114 1.03113 152.961 0.793617 152.743 1.07052C152.738 1.14038 152.738 1.14038 152.734 1.21024ZM152.929 1.30261L152.934 1.23275L152.733 1.22022L152.729 1.29007L152.929 1.30261ZM154.783 1.48885C154.796 1.26928 154.172 1.16002 154.158 1.37959C154.387 1.39391 154.582 1.47632 154.783 1.48885ZM160.398 4.36558C160.403 4.29572 160.603 4.30825 160.398 4.36558C159.965 4.40859 160.394 4.43544 160.398 4.36558ZM165.345 1.42912C165.35 1.35925 165.55 1.37179 165.345 1.42912C164.912 1.47212 165.341 1.49898 165.345 1.42912ZM167.41 4.65451C166.581 4.60259 166.39 4.45033 167.024 4.40987C166.399 4.30062 165.995 4.34542 165.586 4.46008C166.39 4.45032 166.959 4.98695 167.41 4.65451ZM168.017 1.37605C168.217 1.38858 168.417 1.40112 168.422 1.33126C168.222 1.31873 168.022 1.30619 168.017 1.37605ZM167.823 4.46999C168.023 4.48252 168.223 4.49505 168.228 4.42519C168.028 4.41265 167.828 4.40013 167.823 4.46999ZM168.163 2.25688C168.363 2.26941 168.563 2.28195 168.567 2.21209C168.396 2.19136 168.168 2.17703 168.163 2.25688ZM172.775 1.46367C172.58 1.37129 172.575 1.45114 172.775 1.46367C172.975 1.4762 172.966 1.61593 172.775 1.46367ZM175.201 2.11667C175.402 2.1292 175.602 2.14172 175.606 2.07186C175.406 2.05933 175.206 2.0468 175.201 2.11667ZM176.72 4.44614C176.32 4.42108 176.087 4.47661 176.082 4.54648C176.51 4.58331 176.715 4.516 176.72 4.44614ZM177.509 1.46964C177.109 1.44458 176.876 1.50012 176.871 1.56998C177.3 1.59683 177.504 1.5395 177.509 1.46964ZM180.595 1.663C180.796 1.67553 180.996 1.68807 181 1.61821C180.829 1.60747 180.6 1.59314 180.595 1.663ZM180.834 1.52762C181.034 1.54016 181.234 1.55268 181.238 1.48282C181.038 1.47029 180.838 1.45776 180.834 1.52762ZM182.483 4.51656C181.858 4.40731 181.449 4.52198 181.049 4.49692C180.835 4.70395 182.473 4.66627 182.483 4.51656ZM186.007 4.59705C186.207 4.60959 186.636 4.63645 186.64 4.56659C186.411 4.55226 186.011 4.52719 186.007 4.59705ZM189.302 4.66322C189.503 4.67576 190.327 4.79755 190.336 4.65782C189.931 4.70262 189.312 4.51352 189.302 4.66322ZM191.547 5.01426C192.403 4.63702 194.448 4.97551 195.49 4.83037C194.825 5.36985 192.794 4.80181 191.547 5.01426Z" fill="#005CFF"/>
</svg>
