<svg width="631" height="733" viewBox="0 0 631 733" fill="none" xmlns="http://www.w3.org/2000/svg">
<path d="M803.474 369.716H402.438V745H803.474V369.716Z" fill="#009EFF"/>
<path d="M600.703 682.927V431.34L803.465 371.587V742.59L600.703 682.927Z" fill="#005CFF"/>
<path d="M601.085 431.34V682.927L401.188 742.59V371.587L601.085 431.34Z" fill="#1CC6F3"/>
<path d="M803.474 -1.82031H402.438V369.629H803.474V-1.82031Z" fill="#1CC6F3"/>
<path d="M402.432 -1.28467H0.25V370.343H402.432V-1.28467Z" fill="#009EFF"/>
<path d="M402.432 369.716H0.25V744.733H402.432V369.716Z" fill="#009EFF"/>
<path d="M201.679 744.646C312.554 744.646 402.435 660.676 402.435 557.093C402.435 453.51 312.554 369.54 201.679 369.54C90.8037 369.54 0.921875 453.51 0.921875 557.093C0.921875 660.676 90.8037 744.646 201.679 744.646Z" fill="#005CFF"/>
<path d="M721.849 76.6631H319.477V296.59H721.849V76.6631Z" fill="#005CFF"/>
<path d="M204.445 151.309L245.78 131.064L228.215 90.9316L274.705 84.8671L273.083 41.7023L319 50.7098L333.51 9.68539L373.509 32.6056L402.434 -1.28418L431.55 32.6947L471.357 10.0421L486.154 51.1557L532.071 42.4158L530.735 85.5806L577.225 91.8234L559.851 131.867L601.281 152.379L570.065 184.485L601.472 216.77L560.137 237.103L577.702 277.236L531.212 283.211L532.835 326.376L486.918 317.458L472.407 358.482L432.409 335.562L403.484 369.452L374.368 335.384L334.56 358.036L319.764 317.012L273.846 325.752L275.183 282.587L228.693 276.255L246.067 236.212L204.636 215.699L235.852 183.593L204.445 151.309Z" fill="#009EFF"/>
<path d="M272.411 491.273L401.284 557.09L272.411 622.997L201.959 743.395L131.413 622.997L2.53906 557.09L131.413 491.273L201.959 370.875L272.411 491.273Z" fill="#009EFF"/>
<path d="M299.336 180.204L195.664 -1.28467H403.008L299.336 180.204Z" fill="#005CFF"/>
<path d="M299.61 369.805L196.32 180.201H402.996L299.61 369.805Z" fill="#005CFF"/>
<path d="M103.922 180.204L0.25 -1.28467H207.498L103.922 180.204Z" fill="#005CFF"/>
<path d="M103.54 369.805L0.25 180.201H206.925L103.54 369.805Z" fill="#005CFF"/>
<path d="M804.719 369.721C695.033 369.721 606.062 286.602 606.062 184.13C606.158 81.6586 695.033 -1.46045 804.719 -1.46045" fill="#009EFF"/>
</svg>
