<svg width="123" height="89" viewBox="0 0 123 89" fill="none" xmlns="http://www.w3.org/2000/svg">
<path d="M15.6029 75.6158C16.0827 74.0308 15.6216 73.5739 14.5889 72.496C14.1527 72.0396 13.7679 71.8704 13.4002 71.1671C13.0677 70.5313 12.7353 69.8954 12.4028 69.2596C11.9998 68.4889 11.5968 67.7181 11.1888 66.9378C10.5944 65.8009 10.4494 65.7124 10.682 64.5046C11.0643 62.4264 12.2036 62.0557 14.0631 61.197C15.0077 60.7608 15.4311 60.7207 16.3129 60.6364C17.0252 60.5587 17.0261 60.7018 17.7428 60.5144C19.3107 60.1133 20.9247 59.045 22.3864 58.37C22.6449 58.2506 22.8935 58.1358 23.152 58.0164C23.5983 57.595 24.0716 57.5558 24.5819 57.8943C25.5134 57.7871 24.5187 58.1985 25.9864 57.7002C26.8471 57.4103 27.6967 56.9104 28.522 56.5292C29.0887 56.2675 29.6655 56.0012 30.2322 55.7394C30.7314 55.8677 31.2405 55.9915 31.7396 56.1198C32.8557 56.0349 34.2049 54.8617 35.4027 56.0428C36.0091 56.6359 35.7076 57.9951 35.2272 58.5638C34.4597 59.4804 32.5035 59.9651 31.3898 60.4794C29.938 61.1498 27.6388 61.7811 26.4081 62.7799C25.897 63.1954 25.05 63.2516 26.0249 63.7941C26.0549 63.8042 27.3906 63.7854 27.4056 63.7905C28.448 63.919 29.5154 64.0481 30.538 64.1858C31.6004 64.3291 32.3351 64.6955 33.4119 64.7245C34.713 64.7575 35.9006 64.9984 37.1262 64.887C37.9482 64.8064 38.8405 64.8368 39.6723 64.7278C40.1455 64.6648 41.0148 64.1318 41.3887 64.1385C42.0617 64.1507 42.7559 65.3132 43.4338 65.3111C44.341 65.3227 45.3963 64.1775 46.2776 63.9978C47.0244 63.8443 48.1672 64.094 48.94 64.1318C49.4984 64.161 50.0568 64.1902 50.6252 64.2147C50.7929 63.8981 50.9556 63.5718 51.1332 63.2505C51.7104 63.0558 51.7096 62.9126 52.573 63.1238C53.7909 63.4226 53.4675 63.536 54.7316 63.1915C56.1899 62.7932 57.6451 61.846 59.0173 61.2124C59.6437 60.9231 60.9099 60.0394 61.6026 60.0185C62.7538 59.9772 62.6413 60.376 63.8657 60.0498C64.6122 59.8486 65.2125 59.3441 65.7088 58.9475C65.8317 58.6395 65.9546 58.3316 66.0776 58.0237C66.4521 58.1497 66.8416 58.2809 67.2161 58.4069C67.3049 58.2463 67.3838 58.0902 67.4726 57.9296C67.5941 57.3592 67.9661 57.0319 68.5837 56.9381C69.1796 56.5433 69.9758 56.2952 70.642 55.9876C72.044 55.3401 72.1735 54.4072 73.3255 53.6121C73.8419 53.254 74.7387 53.1987 75.1297 52.6952C75.2733 52.5212 75.1466 52.1372 75.2854 52.0014C76.034 51.261 76.8781 50.6798 77.577 49.9624C78.1221 49.3996 78.7942 49.2448 79.3744 48.7017C79.6769 48.4305 79.8126 47.7219 80.0749 47.3736C80.3272 47.0298 80.7343 46.7461 81.0016 46.4074C81.6848 45.5656 82.2079 44.6065 82.946 43.7752C83.6395 43.0005 84.6624 42.2889 85.116 41.3857C85.6287 40.3596 85.6854 38.8862 86.093 37.777C86.5054 36.6297 87.274 35.9279 87.8416 34.9123C89.2137 32.4367 90.2718 29.9747 91.2136 27.2194C91.4736 26.4654 91.6479 25.5238 92.0228 24.8244C92.2252 24.4559 92.6168 24.0717 92.755 23.8165C93.0511 23.2731 93.0318 23.4016 93.1722 22.655C93.2644 22.1938 93.0972 21.7089 93.2342 21.239C93.5379 20.2615 94.3524 19.7418 94.8112 18.8722C95.2255 18.0828 95.4294 17.0797 95.7188 16.2403C95.92 15.6571 96.1211 15.0738 96.3223 14.4906C96.2457 14.1552 96.169 13.8198 96.0924 13.4844C96.2694 13.0438 96.9655 12.7224 97.1524 12.2772C97.295 11.9124 96.7829 11.2399 96.8655 10.8549C97.0652 10.0092 98.1384 9.39395 98.277 8.31331C98.4253 7.18036 98.5881 5.98087 98.6616 4.84657C98.7215 3.94583 98.4583 2.30919 99.6422 1.88205C103.08 0.665384 102.228 6.11819 102.291 7.70349C102.395 10.2391 101.844 13.3879 101.015 15.7682C99.9008 18.9737 98.7121 22.1539 97.6133 25.3644C96.593 28.3472 95.9136 31.6989 94.4288 34.5016C93.1511 36.9216 92.2067 39.1996 91.2838 41.7787C90.6801 43.4808 89.3046 45.3359 88.161 46.7372C86.6162 48.6226 85.4622 50.854 83.7724 52.6509C82.9548 53.5189 82.0461 54.1419 81.3086 55.0924C80.9028 55.6147 80.5478 56.3288 79.9968 56.7387C79.5394 56.95 79.092 57.1566 78.6346 57.3678C77.9621 57.4511 77.6002 57.7977 77.5388 58.4121C76.9933 58.9271 77.237 58.8265 76.433 59.4609C75.3461 60.3097 75.9628 60.0489 75.1903 60.9797C74.5763 61.7177 73.0783 62.1344 72.3742 62.7945C71.67 63.4546 72.3931 63.5153 71.3477 63.7589C70.5114 63.9537 70.4202 63.6849 69.7894 64.0838C69.6958 64.2825 69.5922 64.4859 69.5036 64.6942C69.0363 64.91 68.559 65.1304 68.0917 65.3462C67.3559 65.686 66.6201 66.0258 65.8842 66.3656C65.0092 66.7697 64.5807 66.8002 63.7589 66.9046C63.1989 66.5891 62.6759 66.6512 62.1948 67.1006C61.7673 67.2981 61.3397 67.4955 60.9122 67.693C59.1323 68.5149 57.2251 69.7544 55.3239 70.2736C54.0697 70.6136 54.227 70.2061 53.0559 70.2565C52.2586 70.2898 51.3165 71.1794 50.5701 71.4045C49.0076 71.8868 47.3099 71.3312 45.7713 71.6231C44.7257 71.819 43.6159 72.1282 42.459 72.0405C41.0578 71.934 40.2867 72.2064 38.902 72.3675C38.7472 72.3313 38.5925 72.2951 38.4428 72.2685C37.9775 71.9452 37.5392 72.0041 37.1131 72.464C36.6222 72.9418 36.1141 72.9851 35.5736 72.5888C35.229 72.4729 34.8747 72.3854 34.5154 72.3121C33.0032 71.9698 31.3928 71.8882 29.8516 71.7029C28.2505 71.4975 26.7354 71.5273 25.1407 71.5701C22.8631 71.6291 23.4426 71.8639 24.3353 73.76C24.6077 74.3518 25.0399 74.9895 25.2028 75.608C25.4827 76.6628 25.2362 77.1593 25.591 78.2155C25.7371 78.4949 25.8781 78.7646 26.0242 79.044C26.5152 79.5109 26.5927 80.0134 26.2517 80.5416C26.1832 80.7646 26.1146 80.9876 26.0461 81.2107C26.3383 81.7695 26.6254 82.3186 26.9176 82.8774C27.0111 84.4728 25.725 86.2627 24.2271 86.7033C23.2716 86.9771 23.4665 87.0665 22.4487 86.8906C21.5008 86.7304 20.2815 86.1691 19.7246 85.5054C19.1576 84.8223 19.4099 84.4786 19.3364 83.7949C19.4049 83.5719 19.4686 83.3631 19.5372 83.1401C19.245 82.5813 18.9578 82.0322 18.6657 81.4734C17.6431 79.5176 16.6205 77.5619 15.6029 75.6158C16.9126 78.1207 15.74 75.1698 15.6029 75.6158Z" fill="#FDD763"/>
</svg>
