<svg width="346" height="9" viewBox="0 0 346 9" fill="none" xmlns="http://www.w3.org/2000/svg">
<path d="M343.768 2.0671C344.103 2.0776 344.438 2.08811 344.821 2.10012C345.149 2.33378 345.143 2.5468 344.466 2.74894C344.799 2.83045 345.136 2.76995 345.849 2.93447C345.157 3.64378 345.818 3.95895 345.128 4.59725C344.08 4.42223 343.064 4.75586 341.677 4.71233C341.675 4.78334 342.007 4.86485 342.003 5.017C341.333 4.99599 340.948 5.05499 340.946 5.12599C337.841 4.88643 337.151 5.51459 335.085 5.74421C331.301 5.76765 329.594 5.20647 328.225 4.57463C324.776 4.60858 322.719 4.54403 319.605 4.59863C318.935 4.57762 319.603 4.66963 319.598 4.82178C317.204 4.81775 315.479 4.83471 312.7 4.89981C310.978 4.84578 307.522 5.10289 307.194 4.86923C304.406 5.21834 299.62 5.13927 295.795 4.9482C285.111 5.12068 274.767 5.16167 264.422 5.20265C257.189 5.27018 249.963 5.11455 243.061 5.3346C243.066 5.19259 242.733 5.10094 242.398 5.09043C241.728 5.06942 242.396 5.16144 242.391 5.31359C240.674 5.11755 238.947 5.20553 236.89 5.14099C234.822 5.44162 233.436 5.3271 230.662 5.24005C229.609 5.20703 229.605 5.34904 229.268 5.41968C227.887 5.153 226.493 5.33262 225.821 5.38262C224.096 5.39959 219.987 5.12852 218.595 5.227C217.923 5.27699 217.918 5.42914 217.201 5.40663C214.087 5.45109 211.358 5.44668 208.581 5.43064C206.521 5.4371 203.398 5.77571 202.357 5.37753C200.285 5.82017 196.858 5.13393 196.125 5.61858C192.015 5.34751 189.557 5.84914 186.124 5.37592C185.069 5.41391 186.12 5.51792 185.445 5.64906C180.946 5.57899 173.707 5.86967 169.264 5.50694C168.594 5.48593 168.588 5.70909 168.203 5.76809C165.432 5.53903 164.077 6.00418 162.701 5.59549C162.692 5.88965 159.913 5.9446 156.851 5.84855C156.854 5.77755 156.856 5.70654 156.521 5.69604L156.523 5.62504C156.188 5.61454 156.186 5.68553 156.521 5.69604C156.519 5.76704 156.184 5.75654 156.179 5.90869C153.4 5.96365 150.675 5.8071 149.283 5.91572C149.288 5.77372 148.632 5.30641 149.632 5.49007C149.636 5.34807 149.301 5.33756 148.969 5.2459C148.286 5.66106 145.522 5.20884 145.846 5.58451C145.511 5.574 145.513 5.50301 145.178 5.4925L145.18 5.42149C145.515 5.432 145.515 5.432 145.517 5.361C145.183 5.3505 145.183 5.35049 145.18 5.42149C144.845 5.41098 144.843 5.482 145.178 5.4925C145.174 5.63451 143.784 5.67212 143.789 5.51997C143.795 5.29682 145.174 5.6345 143.789 5.51997C141.397 5.44493 140.999 5.94009 139.285 5.60205C138.95 5.59154 138.948 5.66255 139.281 5.74406C138.946 5.73355 138.607 5.86505 138.228 5.71104C138.23 5.64003 138.565 5.65054 138.228 5.71104C137.554 5.83203 137.178 5.60701 136.848 5.44436C135.793 5.48234 137.173 5.74902 136.502 5.79901C135.834 5.707 134.447 5.66348 134.453 5.44033C133.394 5.63046 131.665 5.78945 129.276 5.6434C129.278 5.5724 128.945 5.49089 128.61 5.48038C128.612 5.40938 128.614 5.33837 128.617 5.25723C127.947 5.23622 127.23 5.2137 126.56 5.19269C126.562 5.12169 126.564 5.05069 126.567 4.96954C125.181 4.85501 125.51 5.07853 124.505 5.04701C124.512 4.82386 123.457 4.87198 123.118 5.00348L122.783 4.99298C122.781 5.06398 123.116 5.07449 123.118 5.00348C123.783 5.1665 123.453 5.01399 124.505 5.04701C124.503 5.11801 124.501 5.18902 124.498 5.27016C124.166 5.18866 122.776 5.21613 122.104 5.26612C122.1 5.40812 124.161 5.33066 124.498 5.27016C124.833 5.28067 124.835 5.20966 125.553 5.23217C126.216 5.47633 124.161 5.33065 125.211 5.44482C123.478 5.75595 118.99 5.32072 118.974 5.83803C118.967 6.06118 117.922 5.80501 118.309 5.67501C116.258 5.38732 115.19 5.87162 113.14 5.58393C114.534 5.4043 112.816 5.20827 112.474 5.42091C112.14 5.41041 111.422 5.3879 111.087 5.37739C110.039 5.20237 108.691 5.44434 107.636 5.49247C107.301 5.48196 107.301 5.48197 106.966 5.47146C106.964 5.54246 107.634 5.56347 107.636 5.49247C109.351 5.76965 109.7 5.33387 111.087 5.37739C110.743 5.66104 112.137 5.48141 112.474 5.42091C113.131 5.87809 109.693 5.55702 110.402 5.86355C109.736 5.70053 109.734 5.77153 109.015 5.82002C109.012 5.89102 109.682 5.91203 110.065 5.92403C109.391 6.04503 107.666 6.07214 106.611 6.11012C106.614 6.03912 106.616 5.96813 106.953 5.89749C104.885 6.19812 102.108 6.18207 99.7138 6.17803C99.716 6.10703 99.7181 6.03603 99.0484 6.01502C99.0527 5.87301 97.6632 5.90048 97.6589 6.04249C97.9894 6.195 97.9937 6.053 99.044 6.15702C98.37 6.27802 97.6524 6.2555 96.6477 6.22399C98.716 5.92336 93.8798 5.91378 93.5403 6.05542C93.8709 6.20794 95.2647 6.03845 96.315 6.14247C95.2604 6.18046 93.9119 6.43259 92.8662 6.17642C93.5403 6.05542 92.8706 6.03441 91.8181 6.00139C91.4789 6.13289 92.1486 6.15391 92.8662 6.17642C91.1307 6.55855 86.3011 6.33597 82.8476 6.52207C82.1779 6.50106 82.517 6.36955 82.5217 6.2174C81.4714 6.11338 81.1322 6.24489 80.4624 6.22388C80.1297 6.14237 80.1276 6.21337 80.4624 6.22388C80.4603 6.29488 80.1254 6.28437 79.7905 6.27386C80.1143 6.64953 81.1822 6.17539 82.1803 6.41991C80.7887 6.51839 78.0571 6.585 75.6151 6.57946C75.6129 6.65046 75.6108 6.72147 75.9432 6.81312C76.9957 6.84614 77.0025 6.62297 78.3395 6.74614C78.0003 6.87764 76.9478 6.84462 76.941 7.06777C76.2781 6.82361 74.8861 6.93224 73.4987 6.88872C73.4944 7.03073 74.5491 6.99274 74.1617 7.13289C73.492 7.11188 73.1049 7.24187 72.1024 7.13935C72.1067 6.99734 73.1571 7.10136 73.1617 6.94921C71.4373 6.96618 72.4919 6.92821 72.8336 6.71556C71.7854 6.54054 71.433 7.10819 70.7586 7.23933C70.4237 7.22882 70.4259 7.15783 70.091 7.14732C70.4302 7.01582 71.1524 6.88618 70.4391 6.72166C69.7672 6.77165 70.0975 6.93431 69.3845 6.75965C68.7148 6.73864 69.3777 6.9828 70.05 6.92267C68.6558 7.1023 68.3256 6.93964 66.6012 6.95661C66.5968 7.09862 67.6515 7.06064 67.2641 7.20078C68.3166 7.2338 68.3209 7.09179 69.3255 7.12331C67.927 7.44494 65.861 7.67456 62.7582 7.35385C62.7492 7.64801 61.0338 7.37083 59.9792 7.40881C58.5896 7.43629 56.8563 7.74742 54.8056 7.46988C53.0791 7.55785 50.2908 7.91711 49.2862 7.8856C48.6164 7.86458 44.1238 7.5815 44.1083 8.08867C33.0897 8.25065 20.6201 8.88491 8.94934 8.44771C4.85519 7.65932 2.44652 6.5583 0.0854198 5.46892C2.18919 4.00181 13.2402 4.34851 19.4227 4.17696C19.7576 4.18746 19.7554 4.25846 19.7533 4.32947C21.1385 4.444 20.1014 3.90382 22.1542 4.11036C21.8104 4.39401 23.2067 4.14338 22.1542 4.11036C24.5484 4.1144 26.995 3.96778 29.0453 4.25547C29.3802 4.26597 29.7173 4.20547 29.7219 4.05332C30.05 4.28698 32.4966 4.14038 33.5034 4.10089C35.2256 4.15492 35.8997 4.03393 37.2828 4.21946C38.3374 4.18147 36.9522 4.06694 37.2917 3.92529C38.3421 4.02932 40.397 4.16486 40.4035 3.95185C41.7865 4.13738 44.9004 4.09293 46.9643 3.93431C47.2992 3.94482 48.3517 3.97783 48.3495 4.04883C49.0193 4.06984 49.0236 3.92784 49.0283 3.77569C49.3588 3.9282 51.4135 4.07389 51.803 3.86274C59.7534 3.81772 66.2618 3.95083 72.8337 3.56813C78.3285 3.96387 83.5243 3.17248 90.4043 3.68276C95.254 3.24603 101.806 3.5328 107.325 3.11708C109.038 3.46527 110.783 2.78898 113.166 3.15818C113.838 3.10818 114.223 3.04918 114.562 2.90753C114.895 2.98904 116.278 3.18473 115.952 2.88006C117.332 3.14674 119.401 2.84612 120.066 3.00913C119.394 3.05913 120.064 3.08014 120.066 3.00913C121.799 2.698 125.574 2.95857 128.353 2.90362C130.415 2.82615 132.481 2.59652 134.925 2.52091C141.825 2.37187 149.389 2.46699 155.623 2.14478C157.35 2.05681 159.403 2.26336 161.127 2.24638C163.906 2.19142 165.974 1.8908 168.704 1.8952C169.374 1.91621 169.371 1.98721 170.089 2.00972C172.481 2.08476 174.932 1.79615 176.991 1.78968C180.773 1.83724 183.552 1.77214 187.001 1.73819C187.336 1.7487 187.338 1.6777 187.003 1.6672C191.124 1.57311 193.896 1.74131 198.407 1.43608C212.194 1.57416 223.608 0.988022 236.675 1.17459C243.245 0.87304 253.583 1.04507 260.15 0.814515C260.818 0.90653 261.536 0.929042 261.868 1.01055C263.265 0.759919 264.647 0.955601 266.709 0.867985C272.552 0.827933 278.108 0.789017 283.615 0.809462C284.284 0.830473 283.284 0.656949 283.954 0.67796C288.064 0.949038 292.574 0.653952 297.073 0.724026C297.408 0.734532 297.404 0.876538 297.073 0.724026C298.128 0.686041 301.189 0.782093 302.575 0.896619C306.372 0.426872 312.582 0.916126 316.038 0.659025C322.929 0.804141 332.225 0.577989 340.848 0.482977C342.894 0.912673 341.495 1.23432 342.535 1.7035C343.204 1.72451 343.209 1.5825 343.213 1.43035C343.447 1.62043 344.443 1.9461 343.768 2.0671C343.766 2.1381 343.096 2.11709 343.768 2.0671ZM42.2447 7.95914C42.5796 7.96965 42.9145 7.98014 42.9166 7.90914C42.5818 7.89864 42.2469 7.88814 42.2447 7.95914ZM56.0559 7.2959C56.3908 7.3064 56.7257 7.3169 56.7279 7.2459C56.393 7.23539 56.0581 7.22489 56.0559 7.2959ZM57.0606 7.32741C57.3955 7.33792 57.7304 7.34842 57.7325 7.27741C57.4455 7.26841 57.0628 7.25641 57.0606 7.32741ZM61.9014 7.18483C61.9057 7.04282 62.2362 7.19534 62.569 7.27685C62.5711 7.20585 63.2409 7.22685 63.6236 7.23886C63.6279 7.09685 63.6304 7.01572 63.2977 6.93421C62.6301 6.84219 62.2384 7.12433 62.2474 6.83018C61.5777 6.80917 59.851 6.89714 60.8532 7.00981C61.2427 6.79866 61.2291 7.24497 61.9014 7.18483ZM65.7073 6.43107C64.6549 6.39805 64.3178 6.45855 63.9783 6.60019C65.0286 6.70422 65.0354 6.48106 65.7073 6.43107ZM66.4515 5.58125C66.1166 5.57075 65.786 5.41824 65.4033 5.40623C65.399 5.54824 65.0641 5.53773 64.7268 5.60837C65.062 5.60874 66.4472 5.72326 66.4515 5.58125ZM65.763 4.60528C66.0978 4.61579 66.4327 4.62629 66.4349 4.55528C66.1478 4.54628 65.7651 4.53428 65.763 4.60528ZM66.4672 5.06395C66.8021 5.07446 67.137 5.08497 67.1392 5.01397C66.8043 5.00346 66.4694 4.99295 66.4672 5.06395ZM70.9186 5.13253C71.2534 5.14304 71.5883 5.15354 71.5905 5.08253C71.3034 5.07353 70.9207 5.06153 70.9186 5.13253ZM71.9621 5.4597C72.297 5.47021 72.6318 5.4807 72.634 5.4097C72.2991 5.3992 71.9642 5.3887 71.9621 5.4597ZM75.717 6.37958C76.0519 6.39009 76.3867 6.4006 76.3889 6.3296L76.7238 6.3401C76.7149 6.63426 78.1112 6.38363 76.7238 6.3401C76.726 6.2691 76.3911 6.25859 76.3889 6.3296C75.7213 6.23758 75.3433 6.07343 75.0016 6.28607C75.3843 6.29808 75.7191 6.30858 75.717 6.37958C75.7102 6.60273 74.3318 6.26505 75.717 6.37958ZM75.4356 4.61429C75.7705 4.62479 76.1054 4.6353 76.1075 4.5643C75.7726 4.5538 75.4378 4.54328 75.4356 4.61429ZM79.5609 4.37819C78.8911 4.35718 78.1779 4.19267 77.8366 4.39518C78.2193 4.40718 79.5563 4.53034 79.5609 4.37819C81.281 4.50323 79.9501 4.17719 79.5609 4.37819ZM82.3223 4.90141C81.9806 5.11406 81.2699 4.86839 80.9372 4.78688C80.935 4.85788 80.2652 4.83688 79.8825 4.82487C79.8782 4.96688 79.5433 4.95637 79.5408 5.03752C80.926 5.15205 80.5911 5.14153 81.9306 5.18356C81.9806 5.11405 83.3723 5.01558 82.3223 4.90141C81.9874 4.89091 81.9896 4.8199 82.3223 4.90141ZM81.934 6.6457C81.9319 6.7167 81.2621 6.69568 80.8794 6.68368C80.8815 6.61267 81.5991 6.63519 81.934 6.6457ZM82.597 6.88987C82.5927 7.03187 81.5401 6.99884 81.2074 6.91734C81.2096 6.84633 81.9272 6.86885 82.597 6.88987ZM83.3903 4.42726C82.6705 4.47576 83.3881 4.49827 83.3903 4.42726C83.7251 4.43777 83.7273 4.36676 83.3924 4.35625C83.3946 4.28525 83.3968 4.21425 83.0619 4.20374C83.0597 4.27475 80.6699 4.1287 82.0026 4.39388C82.0048 4.32288 82.6745 4.34388 83.3921 4.36639L83.3903 4.42726ZM83.3235 6.61821C83.3213 6.68922 82.6516 6.66821 82.2689 6.6562C82.271 6.5852 82.9408 6.60621 83.3235 6.61821ZM82.9942 4.85141C82.9899 4.99342 83.3248 5.00393 83.3224 5.08507C82.6504 5.13507 83.3202 5.15608 83.3224 5.08507C83.6594 5.02458 84.7097 5.1286 84.714 4.98659C84.723 4.69243 86.1014 5.03012 84.714 4.98659C84.0446 4.95544 84.0489 4.81343 82.9942 4.85141ZM83.6764 6.04042C84.0112 6.05093 84.7288 6.07343 84.731 6.00243C84.3483 5.99042 83.6785 5.96942 83.6764 6.04042ZM85.4564 4.19764C84.7866 4.17662 84.069 4.15411 84.0646 4.29612C84.7341 4.32727 85.7845 4.43129 85.4564 4.19764ZM85.7155 6.69325C85.7087 6.91641 84.663 6.66024 85.0501 6.53024C85.385 6.54074 85.3806 6.68275 85.7155 6.69325ZM85.1258 4.04512C85.4607 4.05563 86.1783 4.07815 86.1804 4.00715C85.7977 3.99514 85.1279 3.97412 85.1258 4.04512ZM85.7467 5.66878C85.7489 5.59778 86.0838 5.60828 85.7467 5.66878C85.0748 5.71877 85.7446 5.73979 85.7467 5.66878ZM87.4955 4.85049C86.4452 4.74646 86.1014 5.03012 86.8168 5.12364C86.4409 4.88848 87.8239 5.074 87.4955 4.85049ZM92.3252 5.07308C91.6644 4.75791 93.7169 4.97459 93.7215 4.82244C90.9447 4.80639 89.2224 4.75236 87.152 5.12399C89.2067 5.26967 89.8922 4.77339 92.3252 5.07308ZM87.7683 6.8998C87.7662 6.9708 87.4313 6.9603 87.0964 6.9498C87.0986 6.87879 87.4335 6.88929 87.7683 6.8998ZM87.5134 4.26217C87.8483 4.27268 88.1832 4.28319 88.1854 4.21219C87.8505 4.20168 87.5156 4.19117 87.5134 4.26217ZM90.2947 4.13622C90.6295 4.14672 90.6274 4.21773 90.6252 4.28873C91.295 4.30974 91.6799 4.25074 92.0169 4.19025C92.6888 4.14025 96.8531 4.19982 93.4133 3.93961C93.4065 4.16276 91.691 3.88558 92.0169 4.19025C91.6367 4.09709 90.2993 3.98407 90.2947 4.13622ZM90.9468 4.73539C90.949 4.66439 90.949 4.66439 90.9511 4.59338C90.6162 4.58288 90.6163 4.58288 90.2814 4.57237C90.2792 4.64338 90.2792 4.64338 90.2771 4.71438C90.6119 4.72488 90.6119 4.72488 90.9468 4.73539ZM91.5922 5.55773C91.927 5.56824 92.2619 5.57874 92.2641 5.50773C91.977 5.49873 91.5943 5.48673 91.5922 5.55773ZM92.3052 5.73239C92.64 5.7429 92.9749 5.75339 92.9771 5.68239C92.6422 5.67189 92.3073 5.66139 92.3052 5.73239ZM93.3453 4.59743C94.7416 4.3468 94.7262 4.85396 93.3453 4.59743C91.6255 4.46225 93.0039 4.79993 93.3453 4.59743ZM93.3166 5.54075C93.6514 5.55126 93.9863 5.56177 93.9885 5.49077C93.7014 5.48176 93.3187 5.46975 93.3166 5.54075ZM94.724 4.92497C93.6737 4.82095 94.0499 5.04596 93.6648 5.1151C94.7151 5.21912 94.3867 4.99561 94.724 4.92497ZM95.0675 4.65146C97.4639 4.58449 94.3934 4.77245 95.0632 4.79347C96.1178 4.75548 96.7855 4.8475 97.116 5.00001C97.4552 4.86851 98.5102 4.82038 98.8494 4.68888C99.1799 4.84139 99.8997 4.7929 99.1774 4.92254C99.8494 4.87254 100.569 4.82405 100.909 4.6824C99.8583 4.57838 99.8519 4.7914 98.8494 4.68888C98.5213 4.45522 100.572 4.7429 100.246 4.43823C98.8562 4.46571 99.191 4.47622 97.8537 4.36319C96.1293 4.38017 97.5256 4.12954 97.8537 4.36319C97.8447 4.65735 94.7438 4.27579 95.0675 4.65146ZM96.4484 4.90799C96.1136 4.89748 95.7787 4.88697 95.396 4.87497C95.7265 5.02748 94.3367 5.06511 95.387 5.16913C95.4392 5.02863 96.1114 4.96848 96.4484 4.90799ZM97.8645 4.00819C97.1947 3.98718 95.0876 3.99214 96.1355 4.17731C96.475 4.03567 97.8602 4.15019 97.8645 4.00819ZM96.0956 5.48579L97.1459 5.58982C97.82 5.46883 96.1002 5.33364 96.0956 5.48579ZM97.5321 3.91653C97.8669 3.92704 98.2019 3.93754 98.2041 3.86653C97.8692 3.85603 97.5342 3.84553 97.5321 3.91653ZM99.5379 5.66486C99.5401 5.59386 99.5401 5.59386 99.5422 5.52286C99.5466 5.38085 98.1549 5.47933 97.8178 5.53982C98.4876 5.56084 98.4833 5.70285 99.5379 5.66486ZM105.432 3.95115C105.434 3.88015 105.817 3.89216 105.432 3.95115C105.099 3.86964 103.375 3.88662 103.038 3.94712C101.988 3.8431 102.37 3.85511 101.32 3.75109C101.313 3.97424 100.983 3.81158 100.648 3.80107C100.97 4.24774 98.9259 3.74704 98.9148 4.1122C99.9716 4.00321 101.309 4.11624 102.022 4.28076C102.027 4.13876 101.692 4.12825 101.694 4.0471C102.364 4.06812 103.082 4.09063 103.086 3.94862C103.706 4.03914 104.423 4.06164 105.432 3.95115ZM99.8749 5.60436C100.21 5.61486 100.927 5.63738 100.93 5.56638C100.595 5.55588 99.8771 5.53336 99.8749 5.60436ZM101.961 4.71542C102.296 4.72592 102.294 4.79694 102.629 4.80744C102.964 4.81795 102.959 4.95995 102.629 4.80744C102.97 4.59479 103.296 4.89946 104.351 4.86147C104.349 4.93247 103.679 4.91146 103.677 4.98247C104.347 5.00348 105.064 5.02599 105.403 4.89449C105.069 4.88398 104.734 4.87348 104.351 4.86147C105.025 4.74048 106.747 4.7945 107.472 4.59386C105.415 4.52933 104.69 4.72996 102.973 4.52378C102.975 4.45278 102.979 4.30063 103.314 4.31113C103.312 4.38214 103.312 4.38214 103.31 4.45314C103.98 4.47415 104.365 4.41515 104.702 4.35466C104.704 4.28365 105.039 4.29416 104.702 4.35466C104.367 4.34415 103.649 4.32164 103.314 4.31113C103.316 4.24013 103.316 4.24013 103.319 4.16913C102.264 4.20711 102.257 4.43027 101.25 4.46975C101.916 4.63277 101.92 4.49076 102.973 4.52378C103.681 4.84045 101.965 4.57341 101.961 4.71542ZM102.326 5.31574C102.324 5.38674 100.934 5.41422 101.984 5.52839C101.939 5.44574 103.328 5.41826 102.326 5.31574ZM102.63 6.35072C102.627 6.42172 102.293 6.41122 101.958 6.40072C101.912 6.32821 102.295 6.34021 102.63 6.35072ZM102.373 3.7841C102.707 3.79461 103.042 3.80511 103.045 3.73411C102.71 3.71346 102.375 3.70296 102.373 3.7841ZM103.715 3.74498C103.717 3.67398 104.099 3.68598 103.715 3.74498C103.042 3.80511 103.712 3.82612 103.715 3.74498ZM104.048 5.36977C105.06 5.17814 106.438 5.51581 104.048 5.36977C102.663 5.25524 104.042 5.58278 104.048 5.36977ZM106.471 4.42034C106.806 4.43085 107.137 4.58336 107.524 4.45336C107.141 4.44135 106.811 4.28884 106.471 4.42034ZM107.101 5.75999C108.156 5.722 107.766 5.923 108.484 5.94552C108.823 5.81402 107.488 5.61984 107.101 5.75999ZM108.866 4.42437C109.2 4.43488 109.535 4.44539 109.537 4.37439C109.25 4.36538 108.868 4.35337 108.866 4.42437ZM112.268 5.92208C112.27 5.85107 112.607 5.79056 112.942 5.80107C112.988 5.86343 112.985 5.94459 112.268 5.92208ZM112.697 4.39229C112.695 4.4633 112.695 4.4633 112.693 4.5343C113.028 4.54481 113.026 4.6158 113.361 4.62631C113.365 4.4843 113.7 4.4948 113.702 4.41366C114.037 4.42416 114.368 4.57668 114.75 4.58868C114.762 4.22352 116.136 4.70322 117.527 4.60473C117.529 4.53373 117.532 4.46273 117.197 4.45222L117.199 4.38121C116.529 4.3602 117.201 4.31021 117.203 4.2392C116.871 4.1577 115.818 4.12469 115.148 4.10368C116.192 4.43085 114.472 4.30582 113.75 4.42531C113.367 4.41331 113.032 4.4028 112.697 4.39229ZM113.037 4.26079C113.371 4.2713 113.706 4.2818 113.708 4.21079C113.374 4.20029 113.039 4.18979 113.037 4.26079ZM117.891 3.68205C116.168 3.62802 114.446 3.574 113.77 3.77614C115.777 3.91018 116.834 3.79104 117.891 3.68205ZM118.505 5.52887L118.84 5.53938C119.516 5.33723 121.621 5.40327 121.632 5.03811C119.242 4.89206 118.849 5.24522 116.459 5.09917C116.783 5.47484 113.345 5.14362 114.723 5.4813C115.778 5.44331 117.502 5.42634 117.509 5.20319C118.179 5.2242 118.172 5.44736 118.505 5.52887C118.503 5.59987 117.833 5.57886 118.505 5.52887ZM116.479 4.43985C116.477 4.51085 117.146 4.53186 117.149 4.46086C116.814 4.45035 116.814 4.45035 116.479 4.43985ZM118.203 4.42288C118.538 4.43339 118.871 4.51489 119.588 4.5374C120.265 4.3454 118.208 4.28088 118.203 4.42288ZM119.237 3.50092C119.572 3.51143 119.907 3.52193 119.909 3.45093C119.622 3.44192 119.239 3.42992 119.237 3.50092ZM119.624 3.37092C119.959 3.38143 120.294 3.39193 120.296 3.32092C119.961 3.31042 119.626 3.29992 119.624 3.37092ZM120.615 3.8386C120.62 3.69659 120.955 3.7071 120.957 3.62595C122.012 3.58797 121.622 3.78897 121.285 3.85961C122.338 3.89263 123.01 3.84264 123.347 3.78214C122.677 3.76113 121.957 3.80963 121.961 3.66762C122.633 3.61763 124.018 3.73215 125.075 3.62317C125.745 3.64418 126.13 3.58518 126.132 3.51418C125.462 3.49317 125.077 3.55216 125.075 3.62317C124.74 3.61266 124.745 3.47065 124.41 3.46015C124.066 3.7438 121.298 3.43359 120.956 3.64624C119.957 3.45243 119.946 3.81759 120.615 3.8386ZM120.588 4.72108C120.923 4.73158 121.258 4.74208 121.26 4.67108C120.926 4.65043 120.591 4.63993 120.588 4.72108ZM120.943 4.07226C120.946 4.00126 121.328 4.01326 120.943 4.07226C120.272 4.12225 120.941 4.14326 120.943 4.07226ZM122.001 3.95313C121.998 4.02413 121.326 4.07413 121.994 4.17629C121.996 4.10528 122.668 4.05529 122.001 3.95313ZM122.661 4.26829C123.331 4.2893 124.049 4.31183 124.047 4.38283C122.996 4.27881 121.646 4.60194 122.985 4.64396L122.983 4.71497C125.036 4.92151 124.044 4.45382 125.384 4.49585C125.388 4.35384 125.053 4.34334 125.058 4.19119C124.386 4.25132 123.048 4.13829 122.661 4.26829C122.659 4.3393 121.989 4.31828 122.661 4.26829ZM123.745 3.27684C123.077 3.18483 122.016 3.44596 123.068 3.47898C123.071 3.40798 123.743 3.35799 123.745 3.27684ZM123.053 3.98615C123.725 3.93616 123.384 4.13866 124.101 4.16117C124.443 3.94853 126.495 4.1652 126.885 3.95406C124.782 3.82716 124.782 3.82717 123.053 3.98615C123.051 4.0673 122.333 4.04478 123.053 3.98615ZM124.377 4.54548C124.04 4.60597 123.703 4.66647 122.985 4.64396C122.655 4.49145 124.381 4.39333 124.377 4.54548ZM124.009 5.63045C124.006 5.70146 123.671 5.69096 123.337 5.68045C123.339 5.60945 123.674 5.61995 124.009 5.63045ZM124.341 5.71197C124.683 5.49932 125.396 5.67398 126.735 5.716C126.063 5.76599 124.722 5.79498 124.341 5.71197ZM125.443 4.14234C125.436 4.36549 126.821 4.48001 126.828 4.25686C126.493 4.24635 126.112 4.16335 125.443 4.14234ZM128.184 5.32487C128.18 5.46688 126.794 5.35234 126.459 5.34183C126.464 5.18968 127.464 5.37336 128.184 5.32487ZM129.535 5.00173C128.48 5.03972 127.48 4.86618 126.758 4.98568C127.471 5.1502 129.195 5.13323 129.535 5.00173C129.92 4.93259 129.537 4.92059 129.535 5.00173ZM128.215 4.30038C128.213 4.37139 127.878 4.36088 127.876 4.43188C129.596 4.55692 130.662 4.15378 131.323 4.46895C131.664 4.2563 131.662 4.33745 131.334 4.10379C130.281 4.07077 129.942 4.20226 129.268 4.3334C129.27 4.2624 129.272 4.1914 128.937 4.18089C128.885 4.3214 128.55 4.31089 128.215 4.30038C127.839 4.06522 126.491 4.31736 128.215 4.30038ZM129.244 3.53058C130.306 3.26945 130.29 3.77661 129.244 3.53058C126.52 3.36389 128.233 3.71208 129.244 3.53058ZM129.229 4.03775C129.564 4.04826 129.898 4.05875 129.901 3.98775C129.566 3.97725 129.231 3.96675 129.229 4.03775ZM131.252 5.19777C131.587 5.20827 131.92 5.28978 131.915 5.44193C130.863 5.40891 130.191 5.45891 129.851 5.60055C130.904 5.63357 131.576 5.58358 132.248 5.53359C132.589 5.32094 131.922 5.22892 132.931 5.11843C131.977 4.99712 131.642 4.98662 131.252 5.19777C131.25 5.26877 130.58 5.24776 131.252 5.19777ZM130.255 4.9431C130.589 4.9536 131.307 4.97611 131.309 4.9051C130.927 4.8931 130.257 4.87209 130.255 4.9431ZM135.809 3.37104C134.087 3.31701 132.698 3.34449 132.023 3.47563C133.746 3.51951 135.135 3.49203 135.809 3.37104ZM131.979 4.92612C132.314 4.93662 132.649 4.94714 132.651 4.87613C132.316 4.86563 131.981 4.85511 131.979 4.92612ZM134.038 4.91966C134.04 4.84865 134.04 4.84865 134.043 4.77765C133.373 4.75664 132.988 4.81563 132.986 4.88664C133.368 4.89864 133.703 4.90915 134.038 4.91966C134.369 5.07217 134.373 4.93016 134.038 4.91966ZM134.398 4.12883C134.063 4.11832 134.065 4.04733 133.347 4.02482C133.006 4.23746 134.008 4.33998 133.334 4.46097C134.386 4.49399 134.058 4.26033 134.398 4.12883ZM134.704 5.08267C134.712 4.79866 136.091 5.1262 134.704 5.08267C133.366 4.96965 134.697 5.30582 134.704 5.08267ZM135.435 4.66901C135.426 4.96317 136.48 4.92519 136.82 4.78355C136.102 4.76104 135.767 4.75052 135.435 4.66901ZM136.116 4.32487C136.783 4.41688 138.895 4.26991 139.904 4.14928C138.562 4.1884 136.459 4.04121 136.116 4.32487C136.113 4.39587 135.444 4.37486 136.116 4.32487ZM136.459 4.04122C136.794 4.05173 137.129 4.06222 137.131 3.99122C136.844 3.98222 136.461 3.97022 136.459 4.04122ZM138.19 3.81124C137.855 3.80073 137.52 3.79022 137.14 3.70721C137.138 3.77821 136.801 3.83871 136.798 3.91986C137.516 3.93223 137.853 3.87174 138.19 3.81124ZM138.566 4.03625C138.901 4.04675 139.236 4.05727 139.238 3.98626C138.903 3.97576 138.569 3.96524 138.566 4.03625ZM139.549 4.79809C139.214 4.78758 138.881 4.70608 138.499 4.69407C138.496 4.76507 138.496 4.76507 138.494 4.83608C138.874 4.92923 139.209 4.93973 139.549 4.79809C139.886 4.73759 139.551 4.72708 139.549 4.79809ZM140.985 3.23896C140.981 3.38097 138.591 3.23492 139.926 3.4291C139.93 3.27695 142.368 3.42449 140.985 3.23896ZM140.231 5.98709C140.229 6.05809 139.894 6.04758 139.559 6.03707C139.513 5.96457 139.848 5.97508 140.231 5.98709ZM141.63 4.0613C141.633 3.9903 141.633 3.9903 141.635 3.9193C141.3 3.90879 141.3 3.90879 140.965 3.89829C140.963 3.96929 140.963 3.96929 140.961 4.04029C141.295 4.0508 141.295 4.0508 141.63 4.0613ZM144.381 4.94967C144.374 5.17282 142.991 4.97716 143.319 5.21081C144.37 5.31484 145.048 5.04168 144.381 4.94967ZM145.086 3.8042C144.751 3.7937 144.751 3.7937 144.416 3.78319C144.414 3.85419 144.079 3.84369 144.077 3.91469C144.747 3.9357 145.082 3.94621 145.086 3.8042ZM144.352 5.90314C144.356 5.76114 145.408 5.79416 145.413 5.64201C146.083 5.66302 145.744 5.79453 145.406 5.86517C145.741 5.87567 145.741 5.87567 146.076 5.88618C146.072 6.02818 144.686 5.91365 144.352 5.90314ZM145.104 3.21589C145.439 3.22639 145.774 3.23691 145.776 3.1659C145.489 3.1569 145.106 3.14488 145.104 3.21589ZM147.155 5.03672C146.101 5.0747 146.483 5.08671 145.433 4.98269C145.429 5.12469 145.761 5.21635 146.094 5.29786C146.098 5.15586 147.151 5.18887 147.155 5.03672ZM146.152 3.40105C145.819 3.31954 145.817 3.39054 146.152 3.40105C146.487 3.41156 146.482 3.55356 146.152 3.40105ZM146.159 3.17791C146.493 3.18842 147.211 3.21092 147.213 3.13992C146.83 3.12791 146.161 3.10691 146.159 3.17791ZM147.162 4.82371C145.77 4.9222 146.834 4.59005 146.116 4.56754C146.114 4.63854 146.109 4.79069 146.107 4.86169C146.442 4.8722 147.16 4.89472 147.162 4.82371ZM146.076 5.88618C146.078 5.81517 146.748 5.83618 147.466 5.85869C147.468 5.78769 146.798 5.76668 146.417 5.68367C146.754 5.62317 147.472 5.64568 148.144 5.59569C148.142 5.66669 148.474 5.7482 148.47 5.90035C148.805 5.91085 148.805 5.91085 149.14 5.92136C148.849 6.04422 147.131 5.83805 146.076 5.88618ZM146.462 4.21289C146.797 4.22339 147.132 4.23389 147.134 4.16289C146.799 4.15238 146.464 4.14188 146.462 4.21289ZM148.196 3.90176C148.53 3.91226 148.865 3.92276 148.867 3.85176C148.533 3.84125 148.198 3.83075 148.196 3.90176ZM151.285 4.65862C151.287 4.58762 151.622 4.59812 151.285 4.65862C150.952 4.57711 150.617 4.56661 150.613 4.70862C149.943 4.68761 149.563 4.6046 149.23 4.52309C148.888 4.73574 150.939 5.01328 150.613 4.70862C150.948 4.71913 151.283 4.72962 151.285 4.65862ZM149.25 3.86376C149.585 3.87427 150.303 3.89679 150.305 3.82579C149.922 3.81378 149.252 3.79276 149.25 3.86376ZM149.212 5.10125C149.547 5.11176 149.882 5.12227 149.884 5.05127C149.549 5.04076 149.215 5.03025 149.212 5.10125ZM150.926 5.44945C151.261 5.45995 151.978 5.48246 151.98 5.41145C151.598 5.39945 150.928 5.37844 150.926 5.44945ZM153.732 4.51201C153.734 4.441 154.069 4.45151 153.732 4.51201C152.346 4.39748 153.725 4.73516 153.732 4.51201ZM155.833 3.11592C156.17 3.05542 156.51 2.91377 155.84 2.89276C155.836 3.03477 154.12 2.76773 154.781 3.0829C155.116 3.0934 155.451 3.10391 155.833 3.11592C156.164 3.27857 156.168 3.12642 155.833 3.11592ZM156.773 5.26738C155.393 5.00071 155.377 5.51802 156.773 5.26738C156.775 5.19638 157.11 5.20689 156.773 5.26738ZM159.885 5.29393C158.161 5.3109 158.496 5.32142 157.495 5.14789C157.493 5.2189 157.489 5.37104 157.486 5.44204C158.881 5.26241 158.532 5.69822 159.534 5.80074C159.874 5.6591 159.541 5.57758 159.885 5.29393C160.22 5.30444 160.222 5.23344 159.887 5.22293C158.498 5.25041 159.894 4.99978 159.887 5.22293L159.885 5.29393ZM158.569 2.9073C158.567 2.9783 158.567 2.9783 158.565 3.0493C158.9 3.05981 158.898 3.13082 159.232 3.14133C158.902 2.98881 159.904 3.09133 159.909 2.93918C160.251 2.72654 161.629 3.06422 159.909 2.93918C159.622 2.94032 158.952 2.9193 158.569 2.9073ZM161.61 5.27696C161.942 5.35847 162.279 5.29797 162.662 5.30998C162.997 5.32049 162.993 5.46249 162.662 5.30998C162.664 5.23898 162.666 5.16797 162.331 5.15747C162.282 5.21683 161.612 5.19582 161.61 5.27696C161.607 5.34797 160.938 5.32696 161.61 5.27696ZM163.669 5.26035C163.671 5.18935 164.054 5.20135 163.669 5.26035C162.664 5.22883 164.043 5.56651 163.669 5.26035ZM165.13 2.89991C165.465 2.91041 166.182 2.93292 166.184 2.86192C165.849 2.85141 165.132 2.82891 165.13 2.89991ZM165.061 5.16187C165.396 5.17237 166.113 5.19488 166.115 5.12387C165.781 5.11337 165.063 5.09086 165.061 5.16187ZM166.776 5.43905C167.118 5.2264 168.496 5.56408 166.776 5.43905C165.391 5.31438 166.77 5.65206 166.776 5.43905ZM170.303 2.83884C170.638 2.84935 170.973 2.85985 170.975 2.78884C170.64 2.77834 170.305 2.76784 170.303 2.83884ZM172.362 2.83237C171.023 2.79035 172.354 3.12653 172.362 2.83237C172.697 2.84287 173.034 2.78238 173.037 2.71137C173.039 2.64037 173.374 2.65088 173.037 2.71137C172.367 2.69036 172.365 2.76137 172.362 2.83237ZM177.916 2.86446C178.251 2.87496 178.586 2.88548 178.588 2.81448C178.254 2.79383 177.919 2.78331 177.916 2.86446ZM178.937 2.37867C178.932 2.52068 178.588 2.80433 179.595 2.76484C179.265 2.61233 179.269 2.46018 178.937 2.37867ZM179.183 5.31045C179.517 5.32095 179.852 5.33147 179.854 5.26046C179.567 5.25146 179.185 5.23944 179.183 5.31045ZM180.324 2.4222C180.659 2.4327 180.994 2.4432 180.996 2.3722C180.661 2.36169 180.326 2.35119 180.324 2.4222ZM180.273 4.10598C180.608 4.11648 180.942 4.127 180.945 4.05599C180.61 4.04549 180.275 4.03497 180.273 4.10598ZM182.042 2.62837C182.714 2.57838 183.094 2.66139 183.094 2.66139C186.873 2.77995 184.11 2.32775 182.042 2.62837ZM184.097 2.76391C184.431 2.77442 184.766 2.78492 184.768 2.71392C184.434 2.70341 184.099 2.69291 184.097 2.76391ZM185.408 5.29255C185.743 5.30306 186.078 5.31355 186.08 5.24255C185.746 5.2219 185.411 5.2114 185.408 5.29255ZM187.497 4.3326C187.164 4.25109 187.162 4.32209 187.497 4.3326C187.49 4.54561 188.886 4.30512 187.497 4.3326ZM190.278 4.19651C190.613 4.20702 190.948 4.21751 190.95 4.14651C190.615 4.13601 190.28 4.12551 190.278 4.19651ZM191.699 3.14455C192.371 3.09456 192.744 3.40072 193.086 3.18808C192.416 3.16706 193.088 3.11707 193.09 3.04607C193.093 2.97507 193.428 2.98557 193.09 3.04607C192.373 3.02356 192.036 3.08405 191.699 3.14455ZM193.063 2.38524C192.391 2.43523 193.06 2.45625 193.063 2.38524C193.395 2.46675 194.448 2.49978 194.452 2.35777C194.117 2.34727 193.4 2.32475 193.402 2.25374C193.404 2.18274 193.739 2.19325 193.402 2.25374C193.067 2.24324 193.065 2.31424 193.063 2.38524ZM198.949 2.49885C199.623 2.37786 197.903 2.24267 197.899 2.39482C198.234 2.40533 198.234 2.40533 198.232 2.47634C198.614 2.48834 198.614 2.48834 198.949 2.49885ZM198.909 3.80733C198.911 3.73633 199.246 3.74684 198.909 3.80733C198.189 3.86597 198.907 3.88848 198.909 3.80733ZM201.687 2.21924C201.017 2.19822 200.3 2.1757 199.967 2.09419C199.96 2.31735 198.91 2.20319 199.284 2.50936C200.676 2.40073 201.008 2.49238 201.687 2.21924ZM205.851 2.2788C206.186 2.2893 206.904 2.31182 206.906 2.24082C206.524 2.21867 205.854 2.19765 205.851 2.2788ZM208.966 2.22421C209.301 2.23471 209.635 2.24522 210.018 2.25722C210.022 2.11522 209.69 2.02356 209.355 2.01306C209.022 1.93155 209.02 2.00255 209.355 2.01306C209.303 2.16371 208.968 2.1532 208.966 2.22421ZM209.287 2.67087C209.622 2.68137 209.957 2.69189 209.959 2.62088C209.624 2.61038 209.289 2.59986 209.287 2.67087ZM212.032 2.17825C211.699 2.09674 209.981 1.89056 210.307 2.19522C211.362 2.15723 210.979 2.14523 211.692 2.30975C211.695 2.23875 212.03 2.24926 212.032 2.17825C212.367 2.18876 212.701 2.19926 212.704 2.12825C212.706 2.05725 213.041 2.06776 212.704 2.12825C212.417 2.11925 212.034 2.10725 212.032 2.17825ZM210.25 4.09203C210.584 4.10254 211.302 4.12504 211.304 4.05404C210.969 4.04353 210.252 4.02103 210.25 4.09203ZM211.009 2.7249C211.012 2.65389 211.346 2.6644 211.009 2.7249C209.957 2.69188 211.335 3.02956 211.009 2.7249ZM213.77 1.71496C214.105 1.72547 214.822 1.74799 214.824 1.67699C214.489 1.66648 213.772 1.64396 213.77 1.71496ZM215.485 1.99215C214.433 1.95913 214.428 2.10114 214.091 2.17178C215.143 2.2048 215.478 2.2153 215.485 1.99215ZM215.095 3.80744C215.429 3.81795 215.764 3.82846 215.767 3.75746C215.432 3.74695 215.097 3.73644 215.095 3.80744ZM216.85 2.76599C216.852 2.69499 217.187 2.70549 216.85 2.76599C215.465 2.65146 216.843 2.98914 216.85 2.76599ZM218.838 5.0925L218.841 5.02149C218.171 5.00048 217.786 5.05948 217.784 5.13048C218.501 5.15299 218.504 5.082 218.838 5.0925C219.217 5.25666 219.221 5.10451 218.838 5.0925ZM218.264 1.93719C217.925 2.06869 217.585 2.21034 218.927 2.18136C218.932 2.02921 218.599 1.9477 218.264 1.93719ZM218.269 1.78505L218.604 1.79555C218.939 1.80606 218.934 1.94806 218.604 1.79555C218.606 1.72455 218.271 1.71404 218.269 1.78505C218.267 1.85605 217.597 1.83504 218.269 1.78505ZM219.989 1.91007C220.324 1.92058 219.987 1.98107 219.985 2.05208C220.654 2.07309 221.035 2.1561 221.37 2.16661C221.711 1.95396 220.704 2.0036 220.709 1.85145C220.716 1.6283 222.094 1.96598 220.709 1.85145C220.326 1.84959 219.991 1.83907 219.989 1.91007ZM219.915 4.32419C220.25 4.33469 220.585 4.34521 220.587 4.2742C220.252 4.2637 219.918 4.25319 219.915 4.32419ZM226.545 2.04469C226.547 1.97368 226.549 1.90268 225.88 1.88167C225.878 1.95267 225.873 2.10482 226.208 2.11533C226.21 2.03418 226.21 2.03418 226.545 2.04469ZM229.274 2.05922C229.276 1.98822 229.278 1.91721 229.281 1.83607C228.226 1.87405 227.896 1.72156 227.219 1.91356C227.552 2.00521 228.269 2.02771 229.274 2.05922ZM229.287 1.62307C229.29 1.55206 229.672 1.56407 229.287 1.62307C228.615 1.67306 229.285 1.69407 229.287 1.62307ZM229.994 2.01074C229.67 1.63508 231.714 2.13577 229.994 2.01074C229.274 2.05923 229.992 2.08174 229.994 2.01074ZM234.839 1.72615C235.174 1.73666 235.504 1.88917 235.509 1.74716C235.511 1.66602 234.841 1.64501 234.839 1.72615ZM236.176 1.83919C235.844 1.75768 235.841 1.82868 236.176 1.83919C236.559 1.85119 236.555 1.9932 236.176 1.83919ZM237.908 1.59905C237.91 1.52805 238.292 1.54005 237.908 1.59905C235.853 1.46351 237.231 1.80119 237.908 1.59905ZM237.229 1.8722C236.892 1.9327 236.552 2.07435 237.222 2.09536C237.224 2.02436 237.561 1.96386 237.564 1.88271C237.566 1.81171 237.901 1.82221 237.564 1.88271L237.229 1.8722ZM239.286 1.93674C238.942 2.22039 241.006 2.06177 240.341 1.89875C240.008 1.8071 239.286 1.93674 239.286 1.93674ZM240.682 1.6861C240.684 1.6151 240.684 1.6151 240.687 1.54409C240.352 1.53359 240.352 1.53359 240.017 1.52308C240.015 1.59408 240.015 1.59408 240.013 1.66509C240.347 1.67559 240.347 1.67559 240.682 1.6861ZM240.582 4.97254C240.917 4.98305 241.252 4.99356 241.254 4.92256C240.919 4.91205 240.584 4.90154 240.582 4.97254ZM243.703 4.70494C243.699 4.84694 242.648 4.74293 243.024 4.97809C243.692 5.07011 244.371 4.79695 243.703 4.70494ZM244.797 1.81517L245.179 1.82718C245.172 2.05033 246.569 1.7997 245.179 1.82718C245.181 1.75617 244.799 1.74417 244.797 1.81517C245.168 2.19234 243.076 1.69014 244.797 1.81517ZM246.906 1.7392C246.526 1.64605 246.523 1.72719 246.906 1.7392C247.234 1.96272 248.631 1.71208 246.906 1.7392ZM248.628 1.79323C248.963 1.80374 249.298 1.81425 249.3 1.74325C248.965 1.7226 248.631 1.71208 248.628 1.79323ZM248.914 3.40638C248.916 3.33538 249.251 3.34588 248.914 3.40638C248.194 3.45487 248.912 3.47739 248.914 3.40638ZM250.35 1.84726C250.685 1.85777 250.685 1.85777 251.02 1.86827C251.024 1.72626 250.689 1.71576 250.355 1.70525C249.295 1.89539 249.692 1.46109 250.355 1.70525C250.353 1.76611 250.353 1.76611 250.35 1.84726ZM250.665 2.50694C251 2.51744 251.335 2.52796 251.337 2.45695C251.002 2.44645 250.668 2.43593 250.665 2.50694ZM251.266 4.80006C250.94 4.4954 252.318 4.83308 251.266 4.80006C250.594 4.85005 251.264 4.87106 251.266 4.80006ZM252.747 1.77016C252.077 1.74915 251.692 1.80814 251.69 1.87914C252.407 1.9118 252.745 1.84116 252.747 1.77016ZM252.381 2.78412C252.383 2.71312 252.718 2.72362 252.381 2.78412C251.661 2.83261 252.379 2.85512 252.381 2.78412ZM252.318 4.83308C252.321 4.75193 252.656 4.76244 252.318 4.83308C251.599 4.88157 252.316 4.90408 252.318 4.83308ZM253.799 1.80318C253.802 1.73217 254.136 1.74268 253.799 1.80318C253.08 1.85167 253.797 1.87418 253.799 1.80318ZM254.813 1.54054C254.478 1.53004 254.476 1.60103 254.811 1.61154C254.809 1.68254 255.144 1.69305 255.146 1.62204C255.481 1.63255 255.481 1.63255 255.815 1.64305C256.15 1.65356 256.146 1.79557 255.815 1.64305C255.818 1.57205 255.483 1.56155 255.148 1.55105C255.15 1.48005 255.152 1.40904 254.817 1.39854C253.765 1.36552 255.161 1.11488 254.817 1.39854C254.815 1.46954 254.815 1.46954 254.813 1.54054ZM255.145 1.63218L255.148 1.56119L254.813 1.55068L254.81 1.62167L255.145 1.63218ZM258.253 1.80074C258.26 1.57759 257.209 1.47356 257.202 1.69672C257.585 1.70872 257.918 1.79024 258.253 1.80074ZM267.839 4.66004C267.841 4.58903 268.176 4.59954 267.839 4.66004C267.119 4.70853 267.836 4.73104 267.839 4.66004ZM275.88 1.62273C275.882 1.55173 276.217 1.56223 275.88 1.62273C275.16 1.67122 275.878 1.69373 275.88 1.62273ZM279.564 4.87558C278.177 4.83205 277.846 4.67954 278.901 4.63141C277.851 4.52739 277.179 4.57738 276.505 4.69838C277.846 4.67954 278.835 5.21823 279.564 4.87558ZM280.336 1.53915C280.671 1.54966 281.006 1.56017 281.008 1.48917C280.673 1.47866 280.338 1.46815 280.336 1.53915ZM280.24 4.68359C280.575 4.69409 280.91 4.70459 280.912 4.63359C280.577 4.62308 280.242 4.61258 280.24 4.68359ZM280.644 2.43212C280.979 2.44263 281.314 2.45314 281.316 2.38214C281.029 2.36299 280.647 2.35097 280.644 2.43212ZM288.284 1.57529C287.952 1.48363 287.949 1.56478 288.284 1.57529C288.619 1.58579 288.615 1.7278 288.284 1.57529ZM292.383 2.21152C292.718 2.22203 293.053 2.23253 293.055 2.16152C292.72 2.15102 292.385 2.14052 292.383 2.21152ZM295.089 4.56053C294.419 4.53952 294.034 4.59851 294.032 4.66952C294.749 4.70217 295.086 4.63153 295.089 4.56053ZM296.186 1.52875C295.517 1.50774 295.132 1.56674 295.13 1.63774C295.847 1.66025 296.184 1.59976 296.186 1.52875ZM301.353 1.69084C301.688 1.70135 302.023 1.71186 302.025 1.64086C301.738 1.63186 301.355 1.61984 301.353 1.69084ZM301.741 1.55071C302.075 1.56121 302.41 1.57171 302.412 1.50071C302.078 1.4902 301.743 1.4797 301.741 1.55071ZM304.713 4.56803C303.663 4.46401 302.989 4.58501 302.319 4.564C301.978 4.77665 304.709 4.72018 304.713 4.56803ZM310.602 4.61062C310.937 4.62113 311.654 4.64365 311.657 4.57265C311.274 4.56064 310.604 4.53962 310.602 4.61062ZM316.108 4.64121C316.443 4.65172 317.828 4.76625 317.832 4.62425C317.16 4.67424 316.113 4.48906 316.108 4.64121ZM319.881 4.97279C321.281 4.58015 324.719 4.90122 326.448 4.74224C325.378 5.29753 321.947 4.74317 319.881 4.97279Z" fill="#6125E1"/>
</svg>
