<svg width="311" height="8" viewBox="0 0 311 8" fill="none" xmlns="http://www.w3.org/2000/svg">
<path d="M308.3 3.54098C308.6 3.55713 308.9 3.57329 309.242 3.59175C309.531 3.83086 309.52 4.04368 308.908 4.23431C309.204 4.3214 309.508 4.26662 310.143 4.44311C309.506 5.14044 310.09 5.46664 309.456 6.09302C308.521 5.90037 307.602 6.21671 306.359 6.14978C306.356 6.22071 306.652 6.30782 306.644 6.45982C306.044 6.42751 305.698 6.47998 305.694 6.55092C302.916 6.25903 302.283 6.87527 300.425 7.06991C297.033 7.02945 295.517 6.43968 294.305 5.78498C291.212 5.76068 289.37 5.66143 286.577 5.66341C285.977 5.6311 286.573 5.73435 286.565 5.88636C284.419 5.84189 282.873 5.82974 280.38 5.84788C278.838 5.76479 275.734 5.96343 275.446 5.72433C272.938 6.02622 268.649 5.86636 265.225 5.61078C255.644 5.60278 246.37 5.46907 237.097 5.33535C230.611 5.28072 224.138 5.00314 217.945 5.10654C217.953 4.96467 217.657 4.86744 217.357 4.85128C216.757 4.81897 217.353 4.92222 217.346 5.07423C215.81 4.84927 214.261 4.90805 212.418 4.80881C210.557 5.07438 209.318 4.93652 206.833 4.80266C205.89 4.75188 205.883 4.89375 205.579 4.95867C204.348 4.66879 203.094 4.82479 202.49 4.86342C200.944 4.85127 197.266 4.51091 196.017 4.58585C195.413 4.62447 195.405 4.77648 194.762 4.74186C191.97 4.73371 189.523 4.68322 187.035 4.62029C185.189 4.59199 182.381 4.87772 181.457 4.46212C179.588 4.86957 176.534 4.12575 175.865 4.59783C172.187 4.25746 169.972 4.71739 166.906 4.18639C165.96 4.20656 166.899 4.32826 166.291 4.44796C162.259 4.30194 155.763 4.47025 151.79 4.03266C151.19 4.00035 151.178 4.2233 150.832 4.27578C148.354 4.00004 147.128 4.44211 145.904 4.01035C145.889 4.30424 143.397 4.31224 140.654 4.16452C140.658 4.09359 140.662 4.02265 140.362 4.00649L140.366 3.93556C140.066 3.91941 140.062 3.99034 140.362 4.00649C140.358 4.07743 140.058 4.06128 140.05 4.21328C137.558 4.22129 135.119 4.0188 133.869 4.10387C133.876 3.962 133.3 3.48381 134.191 3.68428C134.199 3.54241 133.899 3.52625 133.603 3.42902C132.981 3.83246 130.515 3.33377 130.795 3.71475C130.496 3.69859 130.499 3.62766 130.199 3.61151L130.203 3.54056C130.503 3.55672 130.503 3.55673 130.507 3.48579C130.207 3.46964 130.207 3.46963 130.203 3.54056C129.903 3.52441 129.899 3.59535 130.199 3.61151C130.192 3.75338 128.945 3.76751 128.953 3.61551C128.965 3.39256 130.192 3.75337 128.953 3.61551C126.811 3.5001 126.442 3.98833 124.914 3.6215C124.614 3.60534 124.61 3.67628 124.907 3.76337C124.607 3.74721 124.299 3.87293 123.964 3.71259C123.968 3.64166 124.268 3.65781 123.964 3.71259C123.357 3.82215 123.025 3.59088 122.733 3.42271C121.787 3.44287 123.018 3.73275 122.414 3.77138C121.818 3.66813 120.575 3.6012 120.587 3.37825C119.633 3.55042 118.079 3.68015 115.941 3.49381C115.944 3.42287 115.648 3.33578 115.348 3.31962C115.352 3.24868 115.355 3.17775 115.36 3.09668C114.76 3.06436 114.117 3.02974 113.517 2.99743C113.521 2.9265 113.525 2.85556 113.529 2.77449C112.29 2.63662 112.579 2.86558 111.679 2.81712C111.691 2.59417 110.744 2.62446 110.437 2.75018L110.137 2.73403C110.133 2.80496 110.433 2.82112 110.437 2.75018C111.029 2.92437 110.736 2.76634 111.679 2.81712C111.675 2.88805 111.672 2.95899 111.668 3.04006C111.371 2.95297 110.125 2.95696 109.521 2.99559C109.514 3.13746 111.364 3.09484 111.668 3.04006C111.967 3.05622 111.971 2.98527 112.614 3.01989C113.202 3.27515 111.364 3.09483 112.302 3.22668C110.741 3.50841 106.729 2.99758 106.702 3.5144C106.69 3.73735 105.759 3.46363 106.109 3.34022C104.278 3.01803 103.309 3.48409 101.478 3.1619C102.732 3.00588 101.197 2.78092 100.886 2.98771C100.586 2.97155 99.943 2.93693 99.643 2.92078C98.7078 2.72813 97.4933 2.94724 96.5465 2.97753C96.2466 2.96137 96.2466 2.96137 95.9466 2.94522C95.9429 3.01616 96.5428 3.04847 96.5465 2.97753C98.0774 3.28356 98.4005 2.85385 99.643 2.92078C99.3278 3.1985 100.582 3.04249 100.886 2.98771C101.463 3.45578 98.3889 3.07679 99.0168 3.39516C98.4243 3.22097 98.4206 3.29191 97.7742 3.32822C97.7705 3.39916 98.3704 3.43147 98.7132 3.44993C98.1059 3.55949 96.5592 3.55747 95.6129 3.57763C95.6166 3.50669 95.6203 3.43577 95.9245 3.37085C94.0631 3.63643 91.5743 3.5735 89.4283 3.52903C89.4319 3.4581 89.4356 3.38716 88.8358 3.35485C88.8432 3.21297 87.5969 3.21697 87.5896 3.35884C87.8821 3.51687 87.8895 3.37501 88.8284 3.49672C88.2212 3.60628 87.5785 3.57166 86.6787 3.52319C88.5401 3.25762 84.2052 3.16638 83.8974 3.30223C84.1899 3.46026 85.4436 3.31438 86.3825 3.43609C85.4362 3.45625 84.2212 3.68551 83.2902 3.41179C83.8974 3.30223 83.2975 3.26991 82.3549 3.21914C82.0476 3.34486 82.6475 3.37717 83.2902 3.41179C81.725 3.76445 77.4012 3.46042 74.301 3.58812C73.7011 3.55581 74.0084 3.43008 74.0163 3.27807C73.0774 3.15636 72.7701 3.28209 72.1702 3.24977C71.874 3.16268 71.8703 3.23362 72.1702 3.24977C72.1665 3.32071 71.8666 3.30455 71.5667 3.28839C71.8476 3.66936 72.8166 3.21346 73.7053 3.47474C72.4554 3.54968 70.0052 3.57013 67.8163 3.52335C67.8126 3.59429 67.809 3.66523 68.1047 3.76246C69.0473 3.81323 69.0589 3.59027 70.2544 3.73597C69.9471 3.86169 69.0044 3.81091 68.9928 4.03385C68.4046 3.7786 67.1541 3.86368 65.9116 3.79675C65.9042 3.93862 66.8506 3.91847 66.4999 4.05201C65.9 4.0197 65.5498 4.1431 64.6538 4.02369C64.6611 3.88182 65.6001 4.00353 65.608 3.85152C64.0618 3.83937 65.0081 3.81922 65.3196 3.61243C64.3844 3.41978 64.0544 3.98124 63.4467 4.10094C63.1467 4.08478 63.1504 4.01385 62.8505 3.9977C63.1578 3.87198 63.8084 3.75458 63.1731 3.57809C62.5695 3.61671 62.8616 3.78489 62.2268 3.59826C61.627 3.56595 62.2152 3.8212 62.8193 3.77245C61.5651 3.92846 61.2731 3.76029 59.7269 3.74814C59.7196 3.89001 60.6659 3.86985 60.3152 4.0034C61.2578 4.05417 61.2652 3.9123 62.165 3.96077C60.9034 4.25865 59.0457 4.45328 56.2723 4.08032C56.257 4.3742 54.7261 4.06817 53.7798 4.08833C52.5336 4.09233 50.9721 4.37406 49.1408 4.062C47.5909 4.12079 45.0827 4.43282 44.1829 4.38435C43.583 4.35204 39.5628 3.99321 39.5365 4.4999C29.6554 4.47575 18.4621 4.89918 8.01118 4.26509C4.36065 3.40789 2.22868 2.26666 0.139075 1.13788C2.06109 -0.293091 11.9586 0.240067 17.5048 0.172985C17.8048 0.189141 17.8011 0.260079 17.7974 0.331016C19.0363 0.468885 18.12 -0.0885773 19.955 0.152542C19.6398 0.430267 20.8976 0.203318 19.955 0.152542C22.101 0.197007 24.2978 0.0917639 26.1286 0.413954C26.4286 0.43011 26.7322 0.375328 26.7401 0.22332C27.0284 0.462422 29.2251 0.357193 30.1286 0.334724C31.6711 0.417813 32.2784 0.308253 33.5135 0.51706C34.4598 0.4969 33.221 0.359021 33.5288 0.22317C34.4678 0.344883 36.3064 0.515072 36.3175 0.302261C37.5527 0.511068 40.3451 0.519214 42.1991 0.395514C42.499 0.41167 43.4417 0.462441 43.438 0.533377C44.0378 0.56569 44.0452 0.423823 44.0531 0.271815C44.3457 0.429845 46.1838 0.610161 46.5382 0.40568C53.666 0.494931 59.4969 0.737883 65.3974 0.466321C70.3132 0.954688 74.9901 0.251364 81.1448 0.877602C85.5028 0.52295 91.3686 0.920233 96.3265 0.597893C97.8537 0.974864 99.4342 0.328317 101.561 0.7376C102.165 0.698974 102.511 0.646492 102.819 0.510641C103.115 0.597733 104.35 0.816684 104.065 0.506646C105.296 0.796523 107.158 0.53095 107.75 0.705137C107.147 0.743761 107.746 0.776073 107.75 0.705137C109.312 0.423406 112.689 0.747613 115.182 0.739605C117.031 0.696976 118.889 0.502337 121.082 0.468039C127.271 0.435576 134.048 0.658362 139.645 0.441579C141.195 0.382794 143.03 0.62392 144.576 0.636071C147.069 0.628063 148.93 0.362488 151.376 0.412975C151.976 0.445288 151.973 0.516218 152.615 0.550839C154.758 0.66624 156.962 0.419135 158.808 0.447444C162.196 0.558841 164.689 0.540701 167.782 0.565004C168.082 0.581161 168.085 0.510232 167.785 0.494075C171.482 0.469621 173.963 0.684553 178.014 0.455618C190.369 0.826449 200.615 0.433309 212.324 0.840457C218.22 0.649963 227.483 0.996486 233.376 0.87693C233.972 0.98018 234.614 1.0148 234.911 1.10189C236.169 0.874944 237.403 1.09389 239.254 1.04113C244.492 1.09977 249.474 1.15468 254.409 1.2681C255.009 1.30041 254.116 1.11007 254.716 1.14238C258.394 1.48274 262.444 1.26394 266.475 1.40996C266.775 1.42612 266.768 1.56799 266.475 1.40996C267.421 1.3898 270.164 1.53751 271.402 1.67538C274.818 1.26995 280.373 1.86387 283.477 1.66523C289.65 1.92665 297.989 1.85758 305.721 1.9082C307.544 2.37227 306.283 2.67016 307.203 3.1567C307.802 3.18901 307.81 3.04712 307.818 2.89512C308.022 3.08907 308.907 3.43142 308.3 3.54098C308.296 3.61191 307.696 3.5796 308.3 3.54098ZM37.8691 4.33896C38.1691 4.35511 38.469 4.37126 38.4727 4.30033C38.1728 4.28417 37.8728 4.26802 37.8691 4.33896ZM50.2659 3.90921C50.5658 3.92537 50.8657 3.94151 50.8694 3.87058C50.5695 3.85442 50.2695 3.83827 50.2659 3.90921ZM51.1657 3.95768C51.4656 3.97384 51.7655 3.98998 51.7692 3.91905C51.5121 3.9052 51.1693 3.88674 51.1657 3.95768ZM55.5084 3.8969C55.5158 3.75502 55.8084 3.91306 56.1046 4.00016C56.1083 3.92922 56.7081 3.96152 57.0509 3.97999C57.0583 3.83811 57.0625 3.75705 56.7663 3.66996C56.1701 3.56671 55.8121 3.84212 55.8274 3.54824C55.2275 3.51592 53.6776 3.57471 54.5732 3.70425C54.9276 3.49977 54.9044 3.94566 55.5084 3.8969ZM58.9387 3.20772C57.9961 3.15695 57.6924 3.21173 57.3846 3.34758C58.3235 3.46929 58.3351 3.24635 58.9387 3.20772ZM59.6267 2.37083C59.3268 2.35467 59.0342 2.19664 58.6915 2.17818C58.6841 2.32005 58.3841 2.3039 58.08 2.36881C58.3805 2.37484 59.6193 2.5127 59.6267 2.37083ZM59.0336 1.38364C59.3335 1.3998 59.6334 1.41595 59.6371 1.34501C59.38 1.33116 59.0373 1.31271 59.0336 1.38364ZM59.6536 1.85401C59.9535 1.87017 60.2534 1.88633 60.2571 1.81539C59.9572 1.79924 59.6573 1.78307 59.6536 1.85401ZM63.642 1.99773C63.942 2.01389 64.2419 2.03003 64.2456 1.9591C63.9885 1.94525 63.6457 1.92679 63.642 1.99773ZM64.5694 2.34238C64.8693 2.35854 65.1692 2.37469 65.1729 2.30375C64.873 2.28759 64.5731 2.27144 64.5694 2.34238ZM67.9126 3.32528C68.2125 3.34144 68.5124 3.3576 68.5161 3.28666L68.8161 3.30282C68.8008 3.5967 70.0586 3.36975 68.8161 3.30282C68.8198 3.23188 68.5198 3.21573 68.5161 3.28666C67.92 3.18341 67.5851 3.01294 67.2736 3.21973C67.6164 3.2382 67.9163 3.25434 67.9126 3.32528C67.901 3.54822 66.6737 3.18741 67.9126 3.32528ZM67.7039 1.55597C68.0038 1.57213 68.3037 1.58829 68.3074 1.51736C68.0075 1.5012 67.7076 1.48504 67.7039 1.55597ZM71.4076 1.38964C70.8078 1.35733 70.1725 1.18085 69.8615 1.3775C70.2043 1.39597 71.3997 1.54165 71.4076 1.38964C72.9464 1.54367 71.7615 1.1953 71.4076 1.38964ZM73.8701 1.95927C73.5585 2.16606 72.9275 1.90849 72.6312 1.8214C72.6275 1.89233 72.0277 1.86003 71.6849 1.84156C71.6775 1.98344 71.3776 1.96728 71.3734 2.04835C72.6122 2.18622 72.3123 2.17006 73.512 2.23468C73.5585 2.16605 74.8085 2.09112 73.8701 1.95927C73.5701 1.94312 73.5738 1.87218 73.8701 1.95927ZM73.479 3.69627C73.4753 3.76721 72.8754 3.73489 72.5326 3.71642C72.5363 3.64548 73.179 3.68011 73.479 3.69627ZM74.0672 3.95153C74.0598 4.0934 73.1172 4.04261 72.8209 3.95552C72.8246 3.88458 73.4674 3.91921 74.0672 3.95153ZM74.8391 1.50336C74.1927 1.53967 74.8354 1.57429 74.8391 1.50336C75.139 1.51951 75.1427 1.44857 74.8427 1.43241C74.8464 1.36148 74.8502 1.29054 74.5502 1.27438C74.5465 1.34532 72.4079 1.15898 73.596 1.44655C73.5997 1.37562 74.1995 1.40792 74.8422 1.44254L74.8391 1.50336ZM74.7252 3.69226C74.7215 3.76319 74.1216 3.73089 73.7789 3.71242C73.7825 3.64149 74.3824 3.67379 74.7252 3.69226ZM74.4736 1.92064C74.4662 2.06251 74.7662 2.07867 74.762 2.15974C74.1584 2.19837 74.7583 2.23068 74.762 2.15974C75.0656 2.10496 76.0045 2.22668 76.0119 2.0848C76.0272 1.79092 77.2544 2.15173 76.0119 2.0848C75.4125 2.04235 75.4199 1.90048 74.4736 1.92064ZM75.0557 3.12066C75.3556 3.13682 75.9983 3.17143 76.002 3.1005C75.6593 3.08203 75.0594 3.04973 75.0557 3.12066ZM76.6968 1.30871C76.0969 1.2764 75.4542 1.24178 75.4468 1.38365C76.0461 1.4261 76.9851 1.54781 76.6968 1.30871ZM76.8675 3.80766C76.8559 4.0306 75.9249 3.75688 76.275 3.63347C76.575 3.64963 76.5676 3.7915 76.8675 3.80766ZM76.4042 1.15068C76.7041 1.16684 77.3468 1.20147 77.3505 1.13053C77.0078 1.11207 76.4079 1.07975 76.4042 1.15068ZM76.9208 2.78414C76.9244 2.71321 77.2244 2.72936 76.9208 2.78414C76.3172 2.82277 76.9171 2.85508 76.9208 2.78414ZM78.5086 1.99572C77.5696 1.87401 77.2544 2.15174 77.8934 2.2573C77.5623 2.01589 78.7974 2.22469 78.5086 1.99572ZM82.8324 2.29978C82.2479 1.97358 84.0823 2.22483 84.0902 2.07282C81.6014 2.00989 80.059 1.9268 78.1939 2.26331C80.0321 2.44363 80.6588 1.95913 82.8324 2.29978ZM78.7026 4.04878C78.6989 4.11971 78.3989 4.10357 78.099 4.08741C78.1027 4.01647 78.4026 4.03262 78.7026 4.04878ZM78.5392 1.40796C78.8391 1.42411 79.139 1.44028 79.1427 1.36934C78.8428 1.35318 78.5428 1.33702 78.5392 1.40796ZM81.0353 1.32902C81.3353 1.34518 81.3316 1.41611 81.3279 1.48705C81.9278 1.51936 82.2742 1.46689 82.5778 1.41211C83.1814 1.37349 86.9127 1.50334 83.8357 1.18515C83.8241 1.4081 82.2932 1.10207 82.5778 1.41211C82.2393 1.31257 81.0432 1.17701 81.0353 1.32902ZM81.6051 1.93895C81.6088 1.86802 81.6088 1.86802 81.6125 1.79708C81.3126 1.78092 81.3126 1.78092 81.0127 1.76477C81.009 1.83571 81.009 1.83571 81.0053 1.90664C81.3052 1.9228 81.3052 1.9228 81.6051 1.93895ZM82.1633 2.77185C82.4633 2.788 82.7632 2.80415 82.7669 2.73322C82.5098 2.71937 82.167 2.70091 82.1633 2.77185ZM82.7982 2.95847C83.0981 2.97463 83.398 2.99078 83.4017 2.91984C83.1018 2.90368 82.8018 2.88754 82.7982 2.95847ZM83.7585 1.84155C85.0164 1.6146 84.99 2.1213 83.7585 1.84155C82.2203 1.67739 83.4475 2.03821 83.7585 1.84155ZM83.7095 2.78399C84.0094 2.80015 84.3093 2.81631 84.313 2.74538C84.056 2.73153 83.7132 2.71306 83.7095 2.78399ZM84.9864 2.19223C84.0474 2.07052 84.3791 2.3018 84.0321 2.3644C84.9711 2.48612 84.6822 2.25715 84.9864 2.19223ZM85.301 1.92464C87.4507 1.89817 84.6938 2.0342 85.2936 2.06652C86.2399 2.04636 86.8361 2.14961 87.1287 2.30764C87.436 2.18192 88.3828 2.15162 88.6901 2.02591C88.9827 2.18394 89.629 2.14762 88.9784 2.26501C89.582 2.22638 90.2284 2.19006 90.5362 2.0542C89.5973 1.93249 89.5862 2.14531 88.6901 2.02591C88.4018 1.78681 90.2326 2.10898 89.9479 1.79895C88.7017 1.80295 89.0016 1.81911 87.8056 1.68355C86.2595 1.67139 87.5173 1.44444 87.8056 1.68355C87.7903 1.97743 85.0201 1.54367 85.301 1.92464ZM86.5325 2.20438C86.2326 2.18822 85.9327 2.17207 85.5899 2.1536C85.8824 2.31163 84.6357 2.32578 85.5746 2.44749C85.6248 2.30793 86.2289 2.25916 86.5325 2.20438ZM87.8241 1.32887C87.2242 1.29656 85.3353 1.26594 86.27 1.46873C86.5778 1.33288 87.8167 1.47074 87.8241 1.32887ZM86.202 2.77599L87.1409 2.89771C87.7482 2.78815 86.2099 2.62398 86.202 2.77599ZM87.5283 1.23164C87.8283 1.2478 88.1283 1.26395 88.1319 1.19301C87.832 1.17685 87.532 1.1607 87.5283 1.23164ZM89.2833 3.01311C89.2869 2.94217 89.2869 2.94217 89.2906 2.87124C89.298 2.72936 88.0481 2.8043 87.7445 2.85908C88.3443 2.89139 88.3369 3.03327 89.2833 3.01311ZM94.6091 1.39965C94.6128 1.32871 94.9556 1.34718 94.6091 1.39965C94.3129 1.31256 92.7667 1.30041 92.4631 1.35519C91.5242 1.23348 91.867 1.25194 90.928 1.13023C90.9164 1.35317 90.6244 1.185 90.3245 1.16885C90.6017 1.62076 88.782 1.08576 88.763 1.45058C89.713 1.35948 90.909 1.49505 91.5443 1.67154C91.5517 1.52967 91.2518 1.51351 91.256 1.43244C91.8559 1.46475 92.4986 1.49937 92.5059 1.3575C93.0592 1.45844 93.702 1.49305 94.6091 1.39965ZM89.5868 2.95832C89.8868 2.97447 90.5295 3.0091 90.5332 2.93817C90.2332 2.92201 89.5905 2.88738 89.5868 2.95832ZM91.4788 2.10498C91.7788 2.12114 91.7751 2.19208 92.075 2.20824C92.3749 2.22439 92.3675 2.36627 92.075 2.20824C92.3865 2.00145 92.6712 2.31149 93.6175 2.29133C93.6138 2.36226 93.0139 2.32995 93.0102 2.40089C93.6101 2.4332 94.2528 2.46782 94.5601 2.3421C94.2602 2.32595 93.9602 2.30979 93.6175 2.29133C94.2247 2.18177 95.7672 2.26485 96.4214 2.07653C94.579 1.97728 93.9248 2.1656 92.3902 1.93051C92.3939 1.85957 92.4018 1.70756 92.7017 1.72371C92.698 1.79465 92.698 1.79465 92.6943 1.86559C93.2942 1.8979 93.6406 1.84543 93.9442 1.79065C93.9479 1.71971 94.2479 1.73586 93.9442 1.79065C93.6443 1.77449 93.0017 1.73987 92.7017 1.72371C92.7054 1.65278 92.7054 1.65278 92.7091 1.58184C91.7628 1.602 91.7512 1.82495 90.8478 1.84742C91.4402 2.0216 91.4476 1.87973 92.3902 1.93051C93.0176 2.25901 91.4862 1.96311 91.4788 2.10498ZM91.791 2.71121C91.7873 2.78215 90.5411 2.78615 91.4795 2.918C91.4408 2.83462 92.6871 2.83062 91.791 2.71121ZM92.0377 3.75088C92.034 3.82182 91.7341 3.80567 91.4341 3.78951C91.395 3.71627 91.7377 3.73472 92.0377 3.75088ZM91.8706 1.18101C92.1706 1.19716 92.4705 1.21331 92.4742 1.14237C92.1748 1.11608 91.8749 1.09993 91.8706 1.18101ZM93.0746 1.16456C93.0782 1.09362 93.421 1.11208 93.0746 1.16456C92.4705 1.21332 93.0703 1.24563 93.0746 1.16456ZM93.3335 2.7943C94.2449 2.61982 95.4722 2.98064 93.3335 2.7943C92.0947 2.65643 93.3224 3.00711 93.3335 2.7943ZM95.5291 1.88619C95.829 1.90234 96.1216 2.06038 96.4717 1.93697C96.1289 1.9185 95.8364 1.76047 95.5291 1.88619ZM96.0604 3.2359C97.0067 3.21574 96.6528 3.41009 97.2955 3.44471C97.6028 3.31899 96.4111 3.10236 96.0604 3.2359ZM97.6751 1.93065C97.975 1.9468 98.275 1.96297 98.2786 1.89203C98.0216 1.87818 97.6788 1.85971 97.6751 1.93065ZM100.688 3.48517C100.692 3.41423 100.995 3.35944 101.295 3.3756C101.335 3.43871 101.331 3.51979 100.688 3.48517ZM101.111 1.96329C101.107 2.03422 101.107 2.03422 101.103 2.10516C101.403 2.12132 101.4 2.19224 101.7 2.2084C101.707 2.06653 102.007 2.08268 102.011 2.00161C102.311 2.01777 102.603 2.1758 102.946 2.19426C102.965 1.82944 104.185 2.33214 105.435 2.2572C105.439 2.18626 105.442 2.11532 105.142 2.09917L105.146 2.02822C104.546 1.99591 105.15 1.95729 105.154 1.88635C104.857 1.79926 103.915 1.74849 103.315 1.71618C104.242 2.06083 102.703 1.90681 102.053 2.01406C101.711 1.9956 101.411 1.97944 101.111 1.96329ZM101.418 1.83757C101.718 1.85372 102.018 1.86987 102.022 1.79894C101.722 1.78278 101.422 1.76663 101.418 1.83757ZM105.783 1.34104C104.241 1.25795 102.699 1.17487 102.087 1.3655C103.883 1.53337 104.833 1.43214 105.783 1.34104ZM106.288 3.19745L106.588 3.2136C107.2 3.02297 109.085 3.12452 109.104 2.75971C106.965 2.57337 106.604 2.91972 104.465 2.73338C104.746 3.11436 101.673 2.72523 102.9 3.08604C103.846 3.06588 105.392 3.07804 105.404 2.85509C106.004 2.8874 105.992 3.11036 106.288 3.19745C106.285 3.26839 105.685 3.23608 106.288 3.19745ZM104.499 2.07467C104.496 2.14561 105.095 2.17792 105.099 2.10699C104.799 2.09083 104.799 2.09083 104.499 2.07467ZM106.045 2.08683C106.345 2.10299 106.642 2.19007 107.284 2.2247C107.895 2.0442 106.053 1.94496 106.045 2.08683ZM106.995 1.18272C107.295 1.19888 107.595 1.21503 107.598 1.14409C107.341 1.13024 106.999 1.11178 106.995 1.18272ZM107.345 1.05931C107.645 1.07546 107.945 1.09161 107.948 1.02068C107.649 1.00452 107.349 0.988372 107.345 1.05931ZM108.222 1.54353C108.229 1.40165 108.529 1.41781 108.534 1.33674C109.48 1.31658 109.126 1.51092 108.822 1.57584C109.765 1.62662 110.368 1.58799 110.672 1.53321C110.072 1.5009 109.425 1.53722 109.433 1.39535C110.036 1.35673 111.275 1.49459 112.225 1.4035C112.825 1.43581 113.172 1.38334 113.175 1.3124C112.575 1.28009 112.229 1.33256 112.225 1.4035C111.925 1.38734 111.933 1.24547 111.633 1.22931C111.318 1.50704 108.844 1.15022 108.533 1.35701C107.641 1.1464 107.622 1.51121 108.222 1.54353ZM108.176 2.42518C108.476 2.44134 108.776 2.45749 108.78 2.38655C108.48 2.36026 108.18 2.34411 108.176 2.42518ZM108.51 1.78263C108.514 1.71169 108.857 1.73016 108.51 1.78263C107.907 1.82126 108.507 1.85357 108.51 1.78263ZM109.461 1.6814C109.457 1.75234 108.854 1.79096 109.449 1.90435C109.453 1.83341 110.057 1.79479 109.461 1.6814ZM110.045 2.00759C110.645 2.0399 111.288 2.07453 111.284 2.14547C110.345 2.02376 109.127 2.32394 110.326 2.38857L110.323 2.45951C112.158 2.70063 111.281 2.2164 112.48 2.28102C112.488 2.13915 112.188 2.123 112.196 1.97099C111.592 2.01975 110.396 1.88418 110.045 2.00759C110.042 2.07853 109.442 2.04621 110.045 2.00759ZM111.041 1.03485C110.445 0.931604 109.487 1.17471 110.43 1.22549C110.434 1.15455 111.037 1.11592 111.041 1.03485ZM110.404 1.73218C111.007 1.69355 110.696 1.89021 111.339 1.92483C111.65 1.71804 113.485 1.96929 113.839 1.76481C111.957 1.60245 111.957 1.60246 110.404 1.73218C110.399 1.81325 109.757 1.77863 110.404 1.73218ZM111.576 2.31362C111.273 2.36841 110.969 2.42319 110.326 2.38857C110.034 2.23054 111.584 2.16162 111.576 2.31362ZM111.22 3.39193C111.216 3.46286 110.916 3.44672 110.616 3.43056C110.62 3.35962 110.92 3.37577 111.22 3.39193ZM111.516 3.47903C111.827 3.27224 112.462 3.45886 113.662 3.52348C113.058 3.56211 111.855 3.56843 111.516 3.47903ZM112.542 1.92865C112.53 2.1516 113.769 2.28946 113.781 2.06652C113.481 2.05036 113.141 1.96097 112.542 1.92865ZM114.97 3.15698C114.962 3.29885 113.724 3.16097 113.424 3.14482C113.432 2.99281 114.323 3.19329 114.97 3.15698ZM116.188 2.85678C115.242 2.87694 114.35 2.68659 113.7 2.79385C114.335 2.97034 115.881 2.9825 116.188 2.85678C116.535 2.79418 116.193 2.77571 116.188 2.85678ZM115.023 2.13345C115.019 2.20438 114.719 2.18823 114.716 2.25917C116.255 2.41319 117.22 2.02822 117.804 2.35442C118.116 2.14763 118.112 2.2287 117.823 1.9896C116.881 1.93882 116.573 2.06453 115.966 2.18423C115.969 2.11329 115.973 2.04235 115.673 2.0262C115.623 2.16576 115.323 2.1496 115.023 2.13345C114.692 1.89204 113.477 2.1213 115.023 2.13345ZM115.965 1.38135C116.922 1.13825 116.896 1.64494 115.965 1.38135C113.526 1.16872 115.054 1.54569 115.965 1.38135ZM115.938 1.88804C116.238 1.9042 116.538 1.92035 116.542 1.84941C116.242 1.83326 115.942 1.81711 115.938 1.88804ZM117.724 3.08174C118.024 3.0979 118.32 3.185 118.312 3.337C117.369 3.28623 116.766 3.32485 116.458 3.4607C117.4 3.51148 118.004 3.47286 118.608 3.43423C118.919 3.22744 118.323 3.12419 119.23 3.03078C118.378 2.89342 118.078 2.87726 117.724 3.08174C117.72 3.15268 117.12 3.12037 117.724 3.08174ZM116.835 2.81033C117.135 2.82649 117.778 2.8611 117.782 2.79016C117.439 2.7717 116.839 2.7394 116.835 2.81033ZM121.853 1.33273C120.311 1.24964 119.065 1.25365 118.457 1.37334C120 1.4463 121.246 1.44229 121.853 1.33273ZM118.382 2.82248C118.682 2.83863 118.981 2.8548 118.985 2.78386C118.685 2.7677 118.385 2.75154 118.382 2.82248ZM120.228 2.85079C120.231 2.77985 120.231 2.77985 120.235 2.70892C119.635 2.67661 119.289 2.72908 119.285 2.80001C119.628 2.81848 119.928 2.83464 120.228 2.85079C120.52 3.00882 120.528 2.86695 120.228 2.85079ZM120.569 2.06637C120.269 2.05021 120.273 1.97928 119.63 1.94466C119.319 2.15145 120.215 2.27085 119.608 2.38041C120.55 2.43119 120.262 2.19208 120.569 2.06637ZM120.82 3.02498C120.835 2.74123 122.063 3.09191 120.82 3.02498C119.624 2.88941 120.809 3.24792 120.82 3.02498ZM121.486 2.62384C121.47 2.91772 122.417 2.89756 122.724 2.76171C122.082 2.72709 121.782 2.71093 121.486 2.62384ZM122.104 2.29133C122.701 2.39458 124.597 2.28333 125.505 2.17979C124.301 2.19623 122.42 2.0136 122.104 2.29133C122.101 2.36227 121.501 2.32995 122.104 2.29133ZM122.42 2.01361C122.719 2.02976 123.019 2.04591 123.023 1.97498C122.766 1.96113 122.423 1.94267 122.42 2.01361ZM123.977 1.81295C123.677 1.79679 123.377 1.78063 123.038 1.69123C123.034 1.76217 122.731 1.81695 122.726 1.89802C123.37 1.92251 123.673 1.86773 123.977 1.81295ZM124.309 2.04422C124.608 2.06037 124.908 2.07654 124.912 2.0056C124.612 1.98944 124.312 1.97328 124.309 2.04422ZM125.17 2.82233C124.87 2.80617 124.574 2.71908 124.231 2.70062C124.228 2.77156 124.228 2.77156 124.224 2.84249C124.563 2.94203 124.863 2.95818 125.17 2.82233C125.474 2.76755 125.174 2.75139 125.17 2.82233ZM126.496 1.28811C126.489 1.42998 124.35 1.24364 125.542 1.46028C125.55 1.30827 127.731 1.49691 126.496 1.28811ZM125.752 4.02235C125.749 4.09328 125.449 4.07712 125.149 4.06096C125.11 3.98772 125.41 4.00388 125.752 4.02235ZM127.054 2.121C127.058 2.05007 127.058 2.05007 127.062 1.97913C126.762 1.96297 126.762 1.96297 126.462 1.94682C126.458 2.01775 126.458 2.01775 126.455 2.08869C126.754 2.10485 126.754 2.10485 127.054 2.121ZM129.498 3.05544C129.486 3.27838 128.252 3.05945 128.54 3.29855C129.479 3.42026 130.094 3.15869 129.498 3.05544ZM130.158 1.92236C129.858 1.90621 129.858 1.90621 129.558 1.89005C129.555 1.96099 129.255 1.94483 129.251 2.01576C129.851 2.04808 130.151 2.06424 130.158 1.92236ZM129.448 4.00802C129.456 3.86615 130.398 3.91693 130.406 3.76492C131.006 3.79723 130.699 3.92295 130.395 3.98787C130.695 4.00402 130.695 4.00402 130.994 4.02018C130.987 4.16205 129.748 4.02418 129.448 4.00802ZM130.189 1.3346C130.489 1.35075 130.789 1.36692 130.792 1.29598C130.535 1.28213 130.193 1.26366 130.189 1.3346ZM131.983 3.1893C131.037 3.20946 131.379 3.22793 130.44 3.10621C130.433 3.24809 130.729 3.34532 131.025 3.43241C131.032 3.29054 131.975 3.34131 131.983 3.1893ZM131.124 1.53737C130.827 1.45028 130.824 1.52122 131.124 1.53737C131.424 1.55353 131.416 1.6954 131.124 1.53737ZM131.135 1.31444C131.435 1.3306 132.078 1.36521 132.082 1.29428C131.739 1.27581 131.139 1.24351 131.135 1.31444ZM131.994 2.9765C130.744 3.05144 131.706 2.7374 131.063 2.70278C131.059 2.77371 131.051 2.92571 131.048 2.99665C131.348 3.01281 131.99 3.04744 131.994 2.9765ZM130.994 4.02018C130.998 3.94924 131.598 3.98155 132.241 4.01617C132.244 3.94523 131.644 3.91292 131.305 3.82352C131.609 3.76874 132.252 3.80336 132.855 3.76473C132.852 3.83567 133.148 3.92276 133.14 4.07477C133.44 4.09092 133.44 4.09092 133.74 4.10708C133.476 4.22497 131.941 3.98989 130.994 4.02018ZM131.382 2.35411C131.682 2.37027 131.982 2.38642 131.985 2.31548C131.685 2.29932 131.386 2.28317 131.382 2.35411ZM132.943 2.07238C133.243 2.08854 133.543 2.10469 133.547 2.03375C133.247 2.01759 132.947 2.00145 132.943 2.07238ZM135.694 2.8811C135.698 2.81016 135.998 2.82632 135.694 2.8811C135.398 2.79401 135.098 2.77786 135.091 2.91973C134.491 2.88742 134.152 2.79802 133.855 2.71092C133.544 2.91771 135.375 3.22977 135.091 2.91973C135.39 2.93589 135.69 2.95204 135.694 2.8811ZM133.89 2.05221C134.19 2.06837 134.832 2.103 134.836 2.03206C134.493 2.0136 133.893 1.98128 133.89 2.05221ZM133.825 3.28854C134.125 3.3047 134.425 3.32087 134.429 3.24993C134.129 3.23377 133.829 3.21761 133.825 3.28854ZM135.353 3.66552C135.652 3.68168 136.295 3.71629 136.299 3.64536C135.956 3.62689 135.356 3.59459 135.353 3.66552ZM137.891 2.77586C137.895 2.70492 138.194 2.72108 137.891 2.77586C136.652 2.63799 137.879 2.99881 137.891 2.77586ZM139.809 1.41585C140.113 1.36107 140.421 1.22521 139.821 1.1929C139.813 1.33478 138.282 1.03888 138.867 1.36507C139.167 1.38123 139.466 1.39738 139.809 1.41585C140.101 1.58401 140.109 1.432 139.809 1.41585ZM140.599 3.58228C139.368 3.29241 139.341 3.80923 140.599 3.58228C140.602 3.51135 140.902 3.5275 140.599 3.58228ZM143.388 3.66136C141.841 3.64921 142.141 3.66538 141.249 3.47503C141.245 3.54597 141.237 3.69797 141.234 3.76891C142.488 3.6129 142.165 4.04264 143.061 4.16204C143.369 4.02619 143.072 3.93909 143.388 3.66136C143.687 3.67752 143.691 3.60659 143.391 3.59044C142.145 3.59444 143.403 3.36749 143.391 3.59044L143.388 3.66136ZM142.267 1.25351C142.263 1.32445 142.263 1.32445 142.259 1.39539C142.559 1.41154 142.556 1.48249 142.856 1.49864C142.563 1.34061 143.459 1.46002 143.467 1.30801C143.778 1.10122 145.006 1.46203 143.467 1.30801C143.209 1.30429 142.61 1.27198 142.267 1.25351ZM144.934 3.67352C145.23 3.76062 145.533 3.70583 145.876 3.7243C146.176 3.74045 146.169 3.88233 145.876 3.7243C145.88 3.65336 145.884 3.58243 145.584 3.56627C145.538 3.62476 144.938 3.59245 144.934 3.67352C144.93 3.74446 144.33 3.71215 144.934 3.67352ZM146.78 3.6917C146.784 3.62076 147.127 3.63922 146.78 3.6917C145.88 3.64323 147.108 4.00404 146.78 3.6917ZM148.148 1.35691C148.448 1.37307 149.09 1.40768 149.094 1.33674C148.794 1.32059 148.151 1.28597 148.148 1.35691ZM148.03 3.61675C148.33 3.63291 148.973 3.66752 148.976 3.59659C148.677 3.58043 148.034 3.54582 148.03 3.61675ZM149.561 3.92279C149.873 3.716 151.1 4.07681 149.561 3.92279C148.323 3.77478 149.55 4.1356 149.561 3.92279ZM152.787 1.38323C153.087 1.39939 153.387 1.41554 153.39 1.3446C153.09 1.32844 152.79 1.31229 152.787 1.38323ZM154.633 1.41153C153.433 1.34691 154.618 1.70542 154.633 1.41153C154.933 1.42769 155.236 1.37291 155.24 1.30197C155.244 1.23104 155.544 1.24719 155.24 1.30197C154.64 1.26966 154.637 1.3406 154.633 1.41153ZM159.611 1.53739C159.91 1.55355 160.21 1.56971 160.214 1.49878C159.915 1.47249 159.615 1.45632 159.611 1.53739ZM160.537 1.06904C160.53 1.21091 160.215 1.48864 161.118 1.46617C160.825 1.30814 160.833 1.15613 160.537 1.06904ZM160.685 4.00373C160.985 4.01989 161.285 4.03605 161.289 3.96512C161.032 3.95127 160.689 3.9328 160.685 4.00373ZM161.78 1.13597C162.08 1.15213 162.38 1.16828 162.383 1.09734C162.083 1.08118 161.783 1.06504 161.78 1.13597ZM161.692 2.81818C161.992 2.83434 162.292 2.8505 162.296 2.77956C161.996 2.76341 161.696 2.74724 161.692 2.81818ZM163.314 1.37106C163.918 1.33244 164.257 1.42184 164.257 1.42184C167.642 1.60417 165.176 1.10549 163.314 1.37106ZM165.153 1.54125C165.453 1.55741 165.753 1.57356 165.757 1.50262C165.457 1.48646 165.157 1.47031 165.153 1.54125ZM166.266 4.09097C166.566 4.10713 166.866 4.12328 166.87 4.05234C166.57 4.02605 166.271 4.0099 166.266 4.09097ZM168.162 3.16669C167.866 3.0796 167.862 3.15053 168.162 3.16669C168.151 3.3795 169.408 3.16269 168.162 3.16669ZM170.659 3.07763C170.959 3.09378 171.259 3.10993 171.262 3.03899C170.962 3.02284 170.662 3.00669 170.659 3.07763ZM171.958 2.0501C172.562 2.01148 172.889 2.32382 173.201 2.11703C172.601 2.08472 173.204 2.0461 173.208 1.97516C173.212 1.90422 173.512 1.92038 173.208 1.97516C172.565 1.94054 172.262 1.99532 171.958 2.0501ZM173.2 1.31414C172.596 1.35277 173.196 1.38508 173.2 1.31414C173.496 1.40123 174.438 1.45202 174.446 1.31015C174.146 1.29399 173.503 1.25936 173.507 1.18843C173.511 1.11749 173.81 1.13365 173.507 1.18843C173.207 1.17227 173.203 1.2432 173.2 1.31414ZM178.473 1.5271C179.081 1.41754 177.542 1.25337 177.534 1.40538C177.834 1.42154 177.834 1.42154 177.831 1.49248C178.173 1.51094 178.173 1.51095 178.473 1.5271ZM178.405 2.83436C178.409 2.76342 178.709 2.77958 178.405 2.83436C177.758 2.88081 178.401 2.91543 178.405 2.83436ZM180.935 1.29384C180.335 1.26153 179.692 1.2269 179.396 1.13981C179.384 1.36275 178.446 1.23091 178.773 1.54326C180.024 1.45818 180.319 1.55541 180.935 1.29384ZM184.666 1.42369C184.966 1.43985 185.609 1.47448 185.612 1.40354C185.27 1.37494 184.67 1.34262 184.666 1.42369ZM187.459 1.42171C187.759 1.43787 188.059 1.45403 188.402 1.47249C188.409 1.33062 188.113 1.23339 187.813 1.21723C187.517 1.13014 187.513 1.20108 187.813 1.21723C187.763 1.36693 187.463 1.35078 187.459 1.42171ZM187.736 1.87362C188.036 1.88977 188.336 1.90594 188.34 1.835C188.04 1.81884 187.74 1.80268 187.736 1.87362ZM190.208 1.42755C189.912 1.34046 188.378 1.10536 188.662 1.41539C189.609 1.39523 189.266 1.37678 189.901 1.55327C189.905 1.48233 190.205 1.49849 190.208 1.42755C190.508 1.44371 190.808 1.45986 190.812 1.38892C190.816 1.31799 191.116 1.33414 190.812 1.38892C190.555 1.37507 190.212 1.35662 190.208 1.42755ZM188.564 3.31043C188.864 3.32659 189.506 3.3612 189.51 3.29027C189.21 3.27411 188.567 3.2395 188.564 3.31043ZM189.279 1.95671C189.282 1.88577 189.582 1.90192 189.279 1.95671C188.336 1.90593 189.563 2.26674 189.279 1.95671ZM191.778 0.993807C192.078 1.00996 192.72 1.04459 192.724 0.973655C192.424 0.957499 191.782 0.922871 191.778 0.993807ZM193.309 1.29984C192.366 1.24907 192.359 1.39094 192.055 1.45585C192.997 1.50663 193.297 1.52279 193.309 1.29984ZM192.914 3.10778C193.214 3.12394 193.514 3.1401 193.517 3.06916C193.217 3.05301 192.918 3.03684 192.914 3.10778ZM194.513 2.09641C194.517 2.02547 194.817 2.04163 194.513 2.09641C193.274 1.95854 194.502 2.31936 194.513 2.09641ZM196.238 4.45552L196.242 4.38457C195.642 4.35226 195.296 4.40473 195.292 4.47567C195.935 4.51029 195.938 4.43936 196.238 4.45552C196.573 4.62599 196.581 4.47398 196.238 4.45552ZM195.801 1.29183C195.494 1.41755 195.186 1.55341 196.389 1.54709C196.397 1.39509 196.101 1.30799 195.801 1.29183ZM195.809 1.13983L196.109 1.15599C196.409 1.17214 196.402 1.31402 196.109 1.15599C196.113 1.08505 195.813 1.0689 195.809 1.13983C195.805 1.21077 195.206 1.17846 195.809 1.13983ZM197.348 1.29385C197.648 1.31001 197.344 1.36479 197.341 1.43572C197.94 1.46804 198.279 1.55744 198.579 1.5736C198.891 1.36681 197.987 1.39942 197.995 1.24741C198.006 1.02447 199.234 1.38528 197.995 1.24741C197.651 1.23908 197.352 1.22291 197.348 1.29385ZM197.222 3.70571C197.522 3.72187 197.822 3.73803 197.826 3.6671C197.526 3.65094 197.226 3.63478 197.222 3.70571ZM203.222 1.53912C203.225 1.46818 203.229 1.39725 202.629 1.36493C202.625 1.43587 202.617 1.58788 202.917 1.60404C202.922 1.52297 202.922 1.52297 203.222 1.53912ZM205.667 1.59973C205.671 1.5288 205.675 1.45786 205.679 1.37679C204.733 1.39695 204.44 1.23893 203.829 1.41943C204.125 1.51666 204.768 1.55126 205.667 1.59973ZM205.69 1.16398C205.694 1.09305 206.037 1.11151 205.69 1.16398C205.087 1.20261 205.686 1.23492 205.69 1.16398ZM206.314 1.56343C206.033 1.18245 207.853 1.71745 206.314 1.56343C205.667 1.59974 206.31 1.63436 206.314 1.56343ZM210.664 1.36077C210.964 1.37693 211.257 1.53496 211.264 1.39308C211.268 1.31201 210.668 1.2797 210.664 1.36077ZM211.86 1.49634C211.564 1.40925 211.56 1.48018 211.86 1.49634C212.203 1.5148 212.195 1.65668 211.86 1.49634ZM213.418 1.28554C213.422 1.2146 213.764 1.23307 213.418 1.28554C211.579 1.11536 212.806 1.47617 213.418 1.28554ZM212.803 1.54712C212.499 1.6019 212.191 1.73775 212.791 1.77006C212.795 1.69913 213.098 1.64435 213.103 1.56328C213.106 1.49234 213.406 1.50849 213.103 1.56328L212.803 1.54712ZM214.645 1.64636C214.33 1.92409 216.184 1.80038 215.591 1.6262C215.296 1.52897 214.645 1.64636 214.645 1.64636ZM215.903 1.41941C215.907 1.34847 215.907 1.34847 215.91 1.27753C215.61 1.26138 215.61 1.26138 215.31 1.24522C215.307 1.31616 215.307 1.31616 215.303 1.38709C215.603 1.40325 215.603 1.40325 215.903 1.41941ZM215.732 4.70278C216.032 4.71893 216.332 4.7351 216.336 4.66416C216.036 4.648 215.736 4.63184 215.732 4.70278ZM218.536 4.48798C218.529 4.62986 217.59 4.50815 217.921 4.74956C218.517 4.85281 219.132 4.59123 218.536 4.48798ZM219.588 1.6179L219.931 1.63636C219.919 1.85931 221.177 1.63236 219.931 1.63636C219.934 1.56542 219.591 1.54696 219.588 1.6179C219.912 2.00118 218.049 1.46387 219.588 1.6179ZM221.48 1.57758C221.142 1.47804 221.138 1.55911 221.48 1.57758C221.769 1.80654 223.027 1.57959 221.48 1.57758ZM223.023 1.66066C223.323 1.67682 223.623 1.69299 223.626 1.62205C223.327 1.59576 223.027 1.57959 223.023 1.66066ZM223.239 3.27797C223.243 3.20703 223.543 3.22319 223.239 3.27797C222.593 3.31429 223.236 3.34891 223.239 3.27797ZM224.565 1.74375C224.865 1.75991 224.865 1.75991 225.165 1.77607C225.173 1.63419 224.873 1.61804 224.573 1.60188C223.618 1.77405 223.984 1.34662 224.573 1.60188C224.57 1.66268 224.57 1.66268 224.565 1.74375ZM224.831 2.40847C225.131 2.42463 225.431 2.44079 225.435 2.36986C225.135 2.3537 224.835 2.33754 224.831 2.40847ZM225.313 4.71077C225.029 4.40074 226.256 4.76155 225.313 4.71077C224.71 4.7494 225.31 4.78171 225.313 4.71077ZM226.716 1.70715C226.116 1.67484 225.769 1.72731 225.766 1.79825C226.408 1.843 226.712 1.77809 226.716 1.70715ZM226.362 2.71451C226.366 2.64357 226.666 2.65973 226.362 2.71451C225.716 2.75083 226.359 2.78545 226.362 2.71451ZM226.256 4.76155C226.26 4.68048 226.56 4.69664 226.256 4.76155C225.609 4.79787 226.252 4.83249 226.256 4.76155ZM227.658 1.75793C227.662 1.68699 227.962 1.70315 227.658 1.75793C227.012 1.79425 227.655 1.82887 227.658 1.75793ZM228.573 1.51252C228.273 1.49637 228.27 1.5673 228.57 1.58345C228.566 1.65439 228.866 1.67055 228.869 1.59961C229.169 1.61577 229.169 1.61577 229.469 1.63192C229.769 1.64808 229.762 1.78995 229.469 1.63192C229.473 1.56098 229.173 1.54484 228.873 1.52868C228.877 1.45774 228.881 1.38681 228.581 1.37065C227.638 1.31987 228.896 1.09292 228.581 1.37065C228.577 1.44159 228.577 1.44159 228.573 1.51252ZM228.869 1.60974L228.873 1.53881L228.573 1.52265L228.569 1.59358L228.869 1.60974ZM231.65 1.8307C231.662 1.60776 230.723 1.48604 230.711 1.70898C231.054 1.72745 231.35 1.81455 231.65 1.8307ZM240.172 4.85066C240.176 4.77972 240.476 4.79588 240.172 4.85066C239.526 4.88698 240.169 4.9216 240.172 4.85066ZM247.456 1.95042C247.459 1.87948 247.759 1.89564 247.456 1.95042C246.809 1.98674 247.452 2.02136 247.456 1.95042ZM250.678 5.26411C249.435 5.19718 249.143 5.03914 250.089 5.00885C249.151 4.88714 248.547 4.92576 247.94 5.03532C249.143 5.03914 250.016 5.59431 250.678 5.26411ZM251.452 1.94212C251.752 1.95828 252.052 1.97444 252.056 1.9035C251.756 1.88735 251.456 1.87118 251.452 1.94212ZM251.289 5.08362C251.589 5.09977 251.889 5.11592 251.892 5.04499C251.592 5.02883 251.292 5.01268 251.289 5.08362ZM251.706 2.83992C252.006 2.85607 252.306 2.87224 252.31 2.8013C252.053 2.77732 251.71 2.75885 251.706 2.83992ZM258.576 2.11245C258.28 2.01522 258.276 2.09629 258.576 2.11245C258.876 2.12861 258.868 2.27048 258.576 2.11245ZM262.234 2.81763C262.534 2.83379 262.834 2.84994 262.838 2.779C262.538 2.76284 262.238 2.7467 262.234 2.81763ZM264.602 5.21134C264.002 5.17903 263.655 5.2315 263.652 5.30244C264.294 5.34719 264.598 5.28228 264.602 5.21134ZM265.661 2.19938C265.061 2.16707 264.714 2.21954 264.711 2.29048C265.353 2.3251 265.657 2.27032 265.661 2.19938ZM270.288 2.44865C270.588 2.46481 270.888 2.48097 270.892 2.41003C270.635 2.39619 270.292 2.37771 270.288 2.44865ZM270.639 2.31511C270.939 2.33127 271.239 2.34742 271.242 2.27648C270.942 2.26032 270.642 2.24418 270.639 2.31511ZM273.229 5.38136C272.29 5.25965 271.683 5.36922 271.083 5.33691C270.772 5.5437 273.221 5.53337 273.229 5.38136ZM278.507 5.52338C278.807 5.53953 279.449 5.57416 279.453 5.50322C279.11 5.48476 278.51 5.45244 278.507 5.52338ZM283.441 5.64693C283.741 5.66308 284.98 5.80096 284.988 5.65909C284.384 5.69771 283.449 5.49492 283.441 5.64693ZM286.815 6.04208C288.08 5.67326 291.154 6.05224 292.708 5.92252C291.735 6.4595 288.673 5.84744 286.815 6.04208Z" fill="#FFC000"/>
</svg>
