<svg width="198" height="198" viewBox="0 0 198 198" fill="none" xmlns="http://www.w3.org/2000/svg">
<path d="M0 81.4958L20.6141 70.6837L11.8543 49.2499L35.0392 46.0111L34.2299 22.9579L57.1291 27.7686L64.3655 5.85855L84.313 18.0996L98.7382 0L113.258 18.1472L133.111 6.04907L140.49 28.0067L163.389 23.3389L162.723 46.3921L185.908 49.7262L177.243 71.1123L197.905 82.0673L182.337 99.2143L198 116.457L177.386 127.316L186.146 148.75L162.961 151.941L163.77 174.994L140.871 170.231L133.635 192.141L113.687 179.9L99.2618 198L84.7415 179.805L64.8892 191.903L57.51 169.993L34.6107 174.661L35.2772 151.608L12.0923 148.226L20.7569 126.84L0.0952065 115.885L15.6629 98.738L0 81.4958Z" fill="#1CC6F3"/>
</svg>
