<svg width="576" height="767" viewBox="0 0 576 767" fill="none" xmlns="http://www.w3.org/2000/svg">
<g clip-path="url(#clip0_1038_57827)">
<rect width="622" height="767" fill="white"/>
<path d="M372.813 500.289L372.812 999.508H872.997V500.289L372.813 500.289Z" fill="#17BBF1"/>
<path d="M790.271 752.69H454.952L375.312 500.288H869.792L790.271 752.69Z" fill="#1CC6F3"/>
<path d="M454.952 752.216H790.271L869.792 1001.05H375.312L454.952 752.216Z" fill="#009EFF"/>
<path d="M-122.375 1.0701L-122.375 500.289L373.65 500.289L373.65 1.0701L-122.375 1.0701Z" fill="#17BBF1"/>
<path d="M372.938 1.0701L372.938 500.289L872.29 500.289V1.0701L372.938 1.0701Z" fill="#009EFF"/>
<path d="M-122.375 500.289L-122.375 999.508H372.699L372.699 500.289L-122.375 500.289Z" fill="#1CC6F3"/>
<path d="M372.938 166.843V333.566H539.349V166.843H372.938Z" fill="#1CC6F3"/>
<path d="M539.344 0.000534058V166.724H705.755V0.000534058H539.344Z" fill="#1CC6F3"/>
<path d="M539.344 333.566V504.687H705.755V333.566H539.344Z" fill="#1CC6F3"/>
<path d="M-17.7812 601.891L-17.7812 1102.77H275.34L275.34 601.891H-17.7812Z" fill="#1CC6F3"/>
<path d="M81.7221 1245.97L54.7397 1194.51L1.25037 1216.38L-6.83247 1158.51L-64.3632 1160.53L-52.3578 1103.37L-107.036 1085.31L-76.4875 1035.51L-121.656 999.507L-76.3686 963.263L-106.56 913.71L-51.7635 895.291L-63.4123 838.132L-5.88154 839.795L2.43903 781.924L55.8095 803.551L83.1485 751.978L125.94 790.836L168.969 751.74L196.07 803.195L249.56 781.329L257.524 839.201L315.055 837.181L303.168 894.34L357.846 912.403L327.298 962.194L372.466 998.2L327.06 1034.44L357.252 1084L302.574 1102.42L314.222 1159.58L256.692 1157.91L248.252 1215.78L194.882 1194.16L167.543 1245.73L124.751 1206.87L81.7221 1245.97Z" fill="#005CFF"/>
<path d="M372.818 498.744C372.818 635.283 262.036 746.036 125.46 746.036C-11.1161 745.917 -121.898 635.283 -121.898 498.744" fill="#17BBF1"/>
<path d="M298.883 1.06995L298.883 498.744H372.698V1.06995H298.883Z" fill="#005CFF"/>
<path d="M158.742 1.06995L158.742 498.744H232.557L232.557 1.06995H158.742Z" fill="#005CFF"/>
<path d="M18.4844 1.06995L18.4844 498.744H92.2997L92.2997 1.06995H18.4844Z" fill="#005CFF"/>
</g>
<defs>
<clipPath id="clip0_1038_57827">
<rect width="622" height="767" fill="white"/>
</clipPath>
</defs>
</svg>
