<svg width="504" height="559" viewBox="0 0 504 559" fill="none" xmlns="http://www.w3.org/2000/svg">
<g opacity="0.4">
<path d="M567.41 276.796H284.109V558.405H567.41V276.796Z" fill="#FFE800"/>
<path d="M424.172 511.826V323.038L567.407 278.2V556.597L424.172 511.826Z" fill="#FFF000"/>
<path d="M424.446 323.038V511.826L283.234 556.597V278.2L424.446 323.038Z" fill="#FFE800"/>
<path d="M567.41 -2H284.109V276.731H567.41V-2Z" fill="#FFF000"/>
<path d="M284.109 -1.59814H0V277.267H284.109V-1.59814Z" fill="#FFC000"/>
<path d="M284.109 276.796H0V558.205H284.109V276.796Z" fill="#FFC000"/>
<path d="M142.287 558.14C220.612 558.14 284.106 495.129 284.106 417.402C284.106 339.675 220.612 276.665 142.287 276.665C63.9632 276.665 0.46875 339.675 0.46875 417.402C0.46875 495.129 63.9632 558.14 142.287 558.14Z" fill="#FFE800"/>
<path d="M509.76 56.8931H225.516V221.923H509.76V56.8931Z" fill="#FFF000"/>
<path d="M144.25 112.906L173.45 97.7145L161.042 67.5995L193.883 63.0488L192.737 30.6584L225.174 37.4175L235.424 6.6333L263.68 23.8323L284.113 -1.59814L304.681 23.8992L332.802 6.90098L343.255 37.7522L375.692 31.1938L374.748 63.5842L407.589 68.2687L395.316 98.3168L424.583 113.709L402.531 137.801L424.718 162.027L395.518 177.285L407.926 207.4L375.085 211.884L376.231 244.274L343.794 237.582L333.544 268.366L305.288 251.167L284.855 276.598L264.287 251.034L236.166 268.032L225.713 237.248L193.276 243.806L194.22 211.416L161.379 206.664L173.652 176.616L144.385 161.224L166.437 137.132L144.25 112.906Z" fill="#FFC000"/>
<path d="M192.26 368.012L283.299 417.4L192.26 466.856L142.492 557.201L92.6563 466.856L1.61719 417.4L92.6563 368.012L142.492 277.667L192.26 368.012Z" fill="#FFF000"/>
<path d="M211.283 134.589L138.047 -1.59814H284.519L211.283 134.589Z" fill="#FFF000"/>
<path d="M211.482 276.864L138.516 134.587H284.515L211.482 276.864Z" fill="#FFE800"/>
<path d="M73.2359 134.589L0 -1.59814H146.404L73.2359 134.589Z" fill="#FFF000"/>
<path d="M72.9662 276.864L0 134.587H146L72.9662 276.864Z" fill="#FFF000"/>
<path d="M568.288 276.801C490.804 276.801 427.953 214.429 427.953 137.535C428.021 60.6416 490.804 -1.72998 568.288 -1.72998" fill="#FFC000"/>
</g>
</svg>
