<svg width="23" height="23" viewBox="0 0 23 23" fill="none" xmlns="http://www.w3.org/2000/svg">
<path d="M21.2354 5.47021C20.511 5.7919 19.7329 6.00838 18.9162 6.10602C19.7503 5.60645 20.3899 4.81547 20.6911 3.87235C19.9115 4.33483 19.0471 4.6709 18.1267 4.85256C17.3902 4.06763 16.3411 3.57715 15.18 3.57715C12.9501 3.57715 11.1426 5.38543 11.1426 7.61456C11.1426 7.93095 11.1789 8.23978 11.2471 8.53422C7.89162 8.36618 4.91693 6.75848 2.92471 4.31515C2.57804 4.9116 2.37897 5.60494 2.37897 6.34596C2.37897 7.74627 3.09124 8.98232 4.17439 9.70593C3.51284 9.68474 2.88989 9.50308 2.34567 9.20107C2.34567 9.21848 2.34567 9.23437 2.34567 9.25178C2.34567 11.2084 3.73689 12.8403 5.58453 13.2105C5.24619 13.3028 4.88892 13.352 4.5203 13.352C4.26068 13.352 4.00711 13.3263 3.76111 13.2801C4.27506 14.884 5.76619 16.052 7.53284 16.0845C6.15146 17.1677 4.41055 17.8133 2.51825 17.8133C2.19277 17.8133 1.87108 17.7944 1.55469 17.7565C3.34178 18.9018 5.46342 19.5701 7.74403 19.5701C15.1709 19.5701 19.231 13.4179 19.231 8.08234C19.231 7.90749 19.2273 7.7334 19.2197 7.56006C20.0092 6.9901 20.6942 6.27935 21.2354 5.47021Z" fill="#4D4D4D"/>
</svg>
