<svg width="371" height="8" viewBox="0 0 371 8" fill="none" xmlns="http://www.w3.org/2000/svg">
<path d="M368.51 3.55704C368.869 3.57219 369.228 3.58733 369.638 3.60464C369.988 3.84285 369.979 4.05579 369.252 4.24857C369.608 4.33469 369.97 4.27886 370.733 4.45326C369.985 5.15301 370.691 5.47735 369.946 6.10612C368.824 5.91657 367.733 6.23614 366.246 6.17339C366.243 6.24437 366.599 6.3305 366.593 6.48259C365.875 6.4523 365.462 6.50597 365.459 6.57694C362.133 6.29436 361.389 6.91298 359.172 7.11399C355.117 7.08502 353.292 6.50018 351.829 5.84935C348.132 5.83552 345.928 5.74248 342.59 5.75394C341.872 5.72365 342.587 5.82492 342.581 5.97701C340.014 5.93981 338.166 5.93289 335.186 5.95949C333.341 5.8816 329.635 6.09085 329.285 5.85263C326.294 6.16314 321.165 6.01777 317.066 5.77371C305.614 5.7982 294.526 5.69589 283.438 5.59358C275.685 5.56092 267.941 5.3052 260.541 5.42964C260.547 5.28769 260.191 5.19142 259.832 5.17628C259.115 5.14599 259.829 5.24726 259.823 5.39935C257.984 5.17951 256.132 5.24357 253.928 5.15054C251.708 5.42252 250.225 5.28881 247.251 5.16333C246.124 5.11573 246.118 5.25768 245.756 5.32365C244.278 5.03784 242.782 5.19815 242.062 5.23884C240.213 5.23193 235.81 4.90392 234.318 4.98313C233.597 5.02381 233.591 5.1759 232.822 5.14345C229.484 5.14477 226.559 5.10256 223.582 5.04804C221.375 5.02599 218.025 5.32135 216.912 4.90873C214.687 5.32267 211.02 4.58894 210.23 5.06346C205.827 4.73544 203.189 5.20305 199.513 4.68225C198.382 4.70563 199.507 4.8242 198.783 4.946C193.961 4.8136 186.199 5.00401 181.441 4.57973C180.723 4.54944 180.714 4.77252 180.301 4.82619C177.333 4.55875 175.877 5.00514 174.406 4.57738C174.394 4.87142 171.414 4.88788 168.134 4.74941C168.136 4.67843 168.139 4.60746 167.78 4.59231L167.783 4.52134C167.424 4.5062 167.422 4.57717 167.78 4.59231C167.778 4.66329 167.419 4.64814 167.412 4.80024C164.433 4.8167 161.514 4.6224 160.021 4.71175C160.027 4.5698 159.328 4.09338 160.398 4.29091C160.404 4.14896 160.045 4.13381 159.689 4.03755C158.954 4.44325 155.995 3.95274 156.339 4.3329C155.981 4.31776 155.983 4.24679 155.625 4.23165L155.628 4.16066C155.986 4.17581 155.986 4.17582 155.989 4.10484C155.63 4.0897 155.63 4.08969 155.628 4.16066C155.269 4.14552 155.266 4.2165 155.625 4.23165C155.619 4.3736 154.129 4.39196 154.135 4.23987C154.144 4.01681 155.619 4.37359 154.135 4.23987C151.572 4.13169 151.141 4.62136 149.307 4.25957C148.948 4.24442 148.945 4.3154 149.301 4.40152C148.942 4.38637 148.578 4.51318 148.173 4.35392C148.176 4.28294 148.535 4.29809 148.173 4.35392C147.45 4.46558 147.048 4.23534 146.696 4.0681C145.565 4.09148 147.043 4.37729 146.322 4.41798C145.607 4.31672 144.121 4.25398 144.13 4.03091C142.993 4.20638 141.139 4.34142 138.578 4.16227C138.581 4.09129 138.225 4.00517 137.866 3.99002C137.869 3.91905 137.872 3.84807 137.875 3.76695C137.158 3.73666 136.389 3.70421 135.671 3.67392C135.674 3.60295 135.677 3.53197 135.68 3.45085C134.197 3.31714 134.547 3.54521 133.47 3.49977C133.479 3.27671 132.348 3.31022 131.983 3.43703L131.625 3.42188C131.622 3.49286 131.981 3.508 131.983 3.43703C132.695 3.60927 132.342 3.45218 133.47 3.49977C133.467 3.57075 133.464 3.64173 133.461 3.72284C133.105 3.63672 131.615 3.64495 130.895 3.68563C130.889 3.82758 133.099 3.77867 133.461 3.72284C133.82 3.73799 133.823 3.667 134.592 3.69945C135.3 3.95281 133.099 3.77866 134.224 3.90738C132.363 4.19451 127.556 3.69709 127.535 4.2142C127.526 4.43727 126.407 4.1666 126.823 4.04196C124.628 3.72586 123.479 4.19538 121.284 3.87928C122.78 3.71896 120.94 3.49912 120.572 3.70704C120.213 3.69189 119.444 3.65944 119.085 3.6443C117.963 3.45475 116.516 3.67805 115.385 3.71157C115.026 3.69643 115.026 3.69643 114.668 3.68128C114.665 3.75226 115.382 3.78255 115.385 3.71157C117.222 4.01253 117.599 3.58155 119.085 3.6443C118.714 3.92319 120.21 3.76287 120.572 3.70704C121.272 4.17332 117.59 3.80462 118.347 4.12098C117.635 3.94873 117.632 4.01971 116.86 4.05823C116.857 4.12921 117.575 4.15949 117.985 4.1768C117.262 4.28846 115.413 4.29168 114.282 4.31506C114.285 4.24408 114.288 4.17312 114.65 4.10715C112.431 4.37914 109.454 4.32462 106.888 4.28742C106.891 4.21644 106.894 4.14547 106.176 4.11518C106.182 3.97323 104.693 3.98145 104.687 4.1234C105.04 4.2805 105.046 4.13856 106.171 4.25713C105.447 4.36879 104.678 4.33634 103.602 4.2909C105.821 4.01892 100.637 3.94234 100.272 4.07929C100.625 4.23639 102.121 4.0862 103.246 4.20478C102.115 4.22815 100.668 4.46162 99.5488 4.19095C100.272 4.07929 99.5546 4.049 98.4268 4.0014C98.0622 4.12821 98.7799 4.1585 99.5488 4.19095C97.6854 4.54906 92.5107 4.25957 88.8076 4.39784C88.0899 4.36755 88.4545 4.24073 88.4608 4.08864C87.3359 3.97006 86.9712 4.09688 86.2535 4.06659C85.8976 3.98047 85.8947 4.05145 86.2535 4.06659C86.2506 4.13757 85.8918 4.12241 85.5329 4.10727C85.8768 4.48743 87.0254 4.02807 88.0932 4.28643C86.6008 4.36564 83.6724 4.3944 81.055 4.35504C81.0521 4.42601 81.0492 4.49699 81.4048 4.59325C82.5326 4.64085 82.5417 4.41777 83.9738 4.55946C83.6091 4.68627 82.4813 4.63867 82.4721 4.86174C81.7636 4.60838 80.2707 4.69774 78.784 4.63499C78.7782 4.77694 79.909 4.75357 79.4926 4.88835C78.7749 4.85806 78.359 4.9827 77.2853 4.86629C77.2911 4.72434 78.416 4.84291 78.4223 4.69082C76.5739 4.68391 77.7045 4.66054 78.0725 4.45262C76.9505 4.26307 76.568 4.82586 75.8441 4.94766C75.4853 4.93251 75.4882 4.86155 75.1293 4.8464C75.494 4.71959 76.2691 4.59995 75.506 4.42554C74.7854 4.46623 75.1381 4.63347 74.3753 4.44893C73.6576 4.41864 74.3662 4.672 75.0872 4.62117C73.5914 4.78149 73.2388 4.61426 71.3904 4.60734C71.3846 4.7493 72.5153 4.72592 72.0989 4.8607C73.2267 4.9083 73.2325 4.76635 74.3091 4.81178C72.8074 5.11406 70.5911 5.31506 67.268 4.95136C67.256 5.24541 65.4196 4.94445 64.2889 4.96783C62.7993 4.97606 60.9388 5.26319 58.7432 4.95723C56.8918 5.02129 53.9003 5.34194 52.8237 5.29651C52.106 5.26622 47.293 4.92089 47.2722 5.42786C35.4606 5.43721 22.09 5.89877 9.58438 5.29988C5.20266 4.45475 2.6301 3.32033 0.108437 2.19821C2.37554 0.760192 14.2176 1.25998 20.8456 1.17406C21.2045 1.18921 21.2016 1.26018 21.1987 1.33116C22.6825 1.46488 21.5754 0.910316 23.774 1.1453C23.4031 1.4242 24.9018 1.1929 23.774 1.1453C26.3401 1.1825 28.9637 1.06977 31.159 1.38587C31.5178 1.40102 31.8796 1.34518 31.8858 1.19309C32.2355 1.43131 34.8591 1.31859 35.9386 1.29305C37.7841 1.37093 38.5076 1.25928 39.9885 1.46397C41.1192 1.44059 39.6354 1.30686 40.0005 1.16992C41.1254 1.28849 43.3269 1.45251 43.3356 1.23958C44.8164 1.44428 48.1544 1.44295 50.3679 1.31292C50.7268 1.32807 51.8546 1.37566 51.8517 1.44663C52.5694 1.47692 52.5752 1.33498 52.5815 1.18289C52.9345 1.33998 55.1355 1.51413 55.5548 1.30837C64.0767 1.37348 71.0516 1.59675 78.0989 1.30507C83.9851 1.77695 89.5607 1.0575 96.9307 1.6631C102.133 1.29353 109.152 1.67107 115.072 1.3318C116.905 1.70373 118.781 1.05158 121.332 1.4538C122.053 1.41311 122.466 1.35944 122.831 1.22249C123.187 1.30861 124.667 1.52346 124.32 1.21427C125.798 1.50008 128.017 1.22809 128.729 1.40033C128.008 1.44102 128.726 1.47131 128.729 1.40033C130.589 1.1132 134.634 1.42608 137.613 1.40961C139.823 1.36069 142.039 1.15968 144.66 1.11793C152.057 1.06447 160.163 1.26435 166.848 1.0285C168.699 0.964441 170.898 1.19943 172.746 1.20634C175.726 1.18988 177.945 0.917893 180.87 0.960101C181.588 0.990391 181.585 1.06136 182.354 1.09381C184.917 1.20199 187.547 0.947321 189.754 0.969378C193.807 1.06932 196.786 1.04272 200.483 1.05655C200.842 1.07169 200.845 1.00072 200.486 0.985579C204.904 0.948579 207.874 1.15518 212.711 0.912418C227.487 1.24148 239.727 0.813445 253.731 1.18103C260.775 0.97047 271.854 1.28571 278.895 1.14612C279.61 1.24739 280.379 1.27984 280.735 1.36596C282.234 1.13466 283.714 1.3495 285.925 1.29045C292.188 1.33133 298.144 1.36938 304.045 1.4661C304.763 1.49639 303.692 1.309 304.41 1.33929C308.813 1.66731 313.65 1.43469 318.471 1.56709C318.83 1.58223 318.824 1.72418 318.471 1.56709C319.602 1.54371 322.883 1.68218 324.367 1.8159C328.441 1.39873 335.093 1.97403 338.799 1.76479C346.184 2.00537 356.15 1.90799 365.393 1.93241C367.582 2.39046 366.081 2.69275 367.191 3.17634C367.908 3.20663 367.914 3.06467 367.92 2.91258C368.169 3.1059 369.234 3.44538 368.51 3.55704C368.507 3.62802 367.79 3.59773 368.51 3.55704ZM45.2758 5.27251C45.6346 5.28766 45.9935 5.3028 45.9964 5.23182C45.6376 5.21668 45.2787 5.20154 45.2758 5.27251ZM60.0847 4.80056C60.4436 4.81571 60.8024 4.83084 60.8053 4.75987C60.4465 4.74472 60.0876 4.72959 60.0847 4.80056ZM61.1613 4.846C61.5202 4.86114 61.879 4.87628 61.8819 4.80531C61.5743 4.79232 61.1642 4.77502 61.1613 4.846ZM66.351 4.77047C66.3569 4.62851 66.7099 4.78562 67.0658 4.87174C67.0687 4.80076 67.7864 4.83105 68.1966 4.84835C68.2024 4.7064 68.2057 4.6253 67.8498 4.53918C67.135 4.43791 66.7128 4.71464 66.7249 4.42059C66.0072 4.3903 64.1558 4.45437 65.229 4.58092C65.6483 4.37516 65.63 4.82129 66.351 4.77047ZM70.4367 4.0694C69.3089 4.0218 68.9471 4.07763 68.582 4.21458C69.7069 4.33315 69.7161 4.11009 70.4367 4.0694ZM71.2414 3.22986C70.8825 3.21472 70.5295 3.05762 70.1194 3.04031C70.1135 3.18226 69.7547 3.16712 69.3925 3.23309C69.7518 3.2381 71.2355 3.37182 71.2414 3.22986ZM70.5115 2.24432C70.8703 2.25947 71.2292 2.2746 71.2321 2.20363C70.9245 2.19065 70.5144 2.17334 70.5115 2.24432ZM71.2626 2.71276C71.6214 2.7279 71.9803 2.74306 71.9832 2.67208C71.6243 2.65694 71.2655 2.64178 71.2626 2.71276ZM76.0331 2.843C76.3919 2.85815 76.7508 2.87329 76.7537 2.80231C76.4461 2.78933 76.036 2.77203 76.0331 2.843ZM77.1489 3.18464C77.5077 3.19978 77.8666 3.21492 77.8695 3.14395C77.5106 3.1288 77.1518 3.11366 77.1489 3.18464ZM81.1659 4.15657C81.5247 4.17171 81.8836 4.18686 81.8865 4.11589L82.2454 4.13103C82.2333 4.42508 83.732 4.19378 82.2454 4.13103C82.2483 4.06006 81.8894 4.04491 81.8865 4.11589C81.1717 4.01462 80.7678 3.84522 80.3999 4.05315C80.81 4.07045 81.1688 4.08559 81.1659 4.15657C81.1567 4.37963 79.6821 4.02285 81.1659 4.15657ZM80.8789 2.38731C81.2378 2.40246 81.5966 2.41761 81.5996 2.34663C81.2407 2.33149 80.8819 2.31633 80.8789 2.38731ZM85.3026 2.20835C84.5849 2.17806 83.8218 2.00367 83.4542 2.20145C83.8643 2.21876 85.2963 2.36045 85.3026 2.20835C87.1452 2.35722 85.7214 2.01274 85.3026 2.20835ZM88.258 2.76984C87.89 2.97777 87.1303 2.72224 86.7743 2.63612C86.7714 2.70709 86.0537 2.67681 85.6436 2.6595C85.6378 2.80146 85.2789 2.78631 85.2756 2.86743C86.7593 3.00114 86.4005 2.98599 87.8359 3.04657C87.89 2.97776 89.3825 2.89856 88.258 2.76984C87.8992 2.7547 87.9021 2.68372 88.258 2.76984ZM87.8273 4.50881C87.8244 4.57979 87.1067 4.54949 86.6966 4.53218C86.6995 4.46121 87.4685 4.49367 87.8273 4.50881ZM88.5359 4.76217C88.5301 4.90412 87.4022 4.85651 87.0463 4.77039C87.0492 4.69942 87.8182 4.73188 88.5359 4.76217ZM89.4066 2.31047C88.6348 2.349 89.4037 2.38145 89.4066 2.31047C89.7655 2.32562 89.7684 2.25463 89.4095 2.23949C89.4125 2.16851 89.4154 2.09754 89.0565 2.08239C89.0536 2.15337 86.4933 1.97422 87.9196 2.25786C87.9225 2.18689 88.6402 2.21717 89.4091 2.24962L89.4066 2.31047ZM89.3169 4.50057C89.314 4.57155 88.5963 4.54126 88.1861 4.52396C88.1891 4.45298 88.9068 4.48326 89.3169 4.50057ZM88.9786 2.72915C88.9728 2.8711 89.3317 2.88625 89.3284 2.96737C88.6078 3.00805 89.3255 3.03834 89.3284 2.96737C89.6901 2.91153 90.815 3.03011 90.8208 2.88816C90.8329 2.59411 92.3075 2.9509 90.8208 2.88816C90.1035 2.84773 90.1094 2.70577 88.9786 2.72915ZM89.6999 3.92765C90.0587 3.94279 90.8277 3.97524 90.8306 3.90426C90.4205 3.88695 89.7028 3.85667 89.6999 3.92765ZM91.6231 2.10946C90.9054 2.07917 90.1364 2.04671 90.1306 2.18866C90.8478 2.22909 91.9728 2.34767 91.6231 2.10946ZM91.8801 4.60875C91.8709 4.83182 90.7523 4.56115 91.1682 4.43651C91.5271 4.45165 91.5212 4.5936 91.8801 4.60875ZM91.27 1.95236C91.6289 1.9675 92.3978 1.99997 92.4007 1.92899C91.9906 1.91168 91.2729 1.88138 91.27 1.95236ZM91.9221 3.58468C91.925 3.5137 92.2838 3.52885 91.9221 3.58468C91.2015 3.62536 91.9191 3.65565 91.9221 3.58468ZM93.8033 2.79057C92.6784 2.672 92.3075 2.95091 93.0736 3.05434C92.6726 2.81396 94.1534 3.01865 93.8033 2.79057ZM98.9782 3.08008C98.2725 2.75575 100.471 3.00086 100.477 2.84877C97.5006 2.79426 95.6551 2.71637 93.4329 3.05933C95.6339 3.23348 96.3728 2.74667 98.9782 3.08008ZM94.0787 4.84374C94.0758 4.91471 93.7169 4.89957 93.3581 4.88443C93.361 4.81345 93.7198 4.82859 94.0787 4.84374ZM93.8274 2.20249C94.1863 2.21763 94.5451 2.23279 94.548 2.16181C94.1892 2.14666 93.8303 2.13151 93.8274 2.20249ZM96.8095 2.11506C97.1683 2.1302 97.1655 2.20118 97.1626 2.27215C97.8802 2.30244 98.2932 2.24878 98.655 2.19295C99.3756 2.15226 103.839 2.26951 100.154 1.96164C100.145 2.18471 98.3082 1.88376 98.655 2.19295C98.2482 2.09452 96.8157 1.96297 96.8095 2.11506ZM97.5035 2.72328C97.5064 2.65231 97.5064 2.65231 97.5093 2.58133C97.1505 2.56619 97.1505 2.56619 96.7916 2.55104C96.7887 2.62202 96.7887 2.62202 96.7858 2.69299C97.1446 2.70814 97.1446 2.70814 97.5035 2.72328ZM98.1884 3.5546C98.5472 3.56974 98.9061 3.58488 98.909 3.5139C98.6014 3.50092 98.1913 3.48362 98.1884 3.5546ZM98.9511 3.73914C99.31 3.75428 99.6688 3.76942 99.6717 3.69844C99.3129 3.6833 98.9541 3.66816 98.9511 3.73914ZM100.075 2.61854C101.574 2.38724 101.553 2.89421 100.075 2.61854C98.2332 2.45954 99.7079 2.81633 100.075 2.61854ZM100.037 3.5615C100.396 3.57665 100.754 3.5918 100.757 3.52082C100.45 3.50784 100.04 3.49052 100.037 3.5615ZM101.551 2.96519C100.426 2.84662 100.827 3.07685 100.414 3.14066C101.538 3.25923 101.188 3.03116 101.551 2.96519ZM101.921 2.69643C104.49 2.66266 101.197 2.80809 101.915 2.83838C103.046 2.81501 103.761 2.91627 104.114 3.07337C104.478 2.94656 105.61 2.91304 105.974 2.78624C106.327 2.94333 107.099 2.90481 106.324 3.02445C107.044 2.98376 107.816 2.94523 108.181 2.80829C107.057 2.68971 107.048 2.90265 105.974 2.78624C105.624 2.54803 107.82 2.86412 107.473 2.55493C105.983 2.56316 106.342 2.57831 104.91 2.44675C103.061 2.43984 104.56 2.20854 104.91 2.44675C104.898 2.74079 101.577 2.31627 101.921 2.69643ZM103.399 2.9721C103.04 2.95695 102.681 2.94181 102.271 2.9245C102.624 3.08159 101.134 3.09997 102.259 3.21855C102.316 3.07876 103.037 3.02793 103.399 2.9721ZM104.924 2.09188C104.207 2.06159 101.948 2.03737 103.07 2.23706C103.435 2.10012 104.918 2.23383 104.924 2.09188ZM103.016 3.54504L104.141 3.66362C104.864 3.55196 103.022 3.39295 103.016 3.54504ZM104.569 1.99562C104.927 2.01076 105.286 2.0259 105.289 1.95493C104.93 1.93978 104.572 1.92464 104.569 1.99562ZM106.704 3.7718C106.707 3.70082 106.707 3.70082 106.71 3.62985C106.716 3.48789 105.223 3.56709 104.861 3.62293C105.579 3.65322 105.573 3.79517 106.704 3.7718ZM113.036 2.13967C113.039 2.0687 113.449 2.08601 113.036 2.13967C112.68 2.05355 110.832 2.04665 110.47 2.10248C109.345 1.9839 109.755 2.00121 108.63 1.88264C108.621 2.10571 108.268 1.93846 107.91 1.92332C108.251 2.37446 106.064 1.84543 106.049 2.21045C107.183 2.11609 108.615 2.24766 109.378 2.42206C109.384 2.28011 109.025 2.26496 109.029 2.18385C109.746 2.21414 110.515 2.24659 110.521 2.10464C111.185 2.20374 111.954 2.23619 113.036 2.13967ZM107.066 3.71596C107.425 3.7311 108.194 3.76356 108.197 3.69259C107.838 3.67744 107.069 3.64498 107.066 3.71596ZM109.309 2.85589C109.668 2.87103 109.665 2.94201 110.024 2.95716C110.383 2.9723 110.377 3.11425 110.024 2.95716C110.392 2.74924 110.739 3.05842 111.87 3.03505C111.867 3.10602 111.149 3.07573 111.146 3.14671C111.864 3.177 112.633 3.20945 112.997 3.08265C112.639 3.0675 112.28 3.05236 111.87 3.03505C112.593 2.92338 114.439 3.00127 115.217 2.81066C113.012 2.71763 112.234 2.90823 110.395 2.67825C110.398 2.60728 110.404 2.45518 110.763 2.47033C110.76 2.5413 110.76 2.5413 110.757 2.61228C111.475 2.64257 111.888 2.5889 112.25 2.53307C112.252 2.46209 112.611 2.47724 112.25 2.53307C111.891 2.51793 111.122 2.48547 110.763 2.47033C110.766 2.39935 110.766 2.39935 110.769 2.32838C109.638 2.35176 109.629 2.57482 108.549 2.60036C109.261 2.77261 109.267 2.63066 110.395 2.67825C111.152 3.00475 109.315 2.71393 109.309 2.85589ZM109.695 3.46128C109.692 3.53226 108.203 3.54049 109.327 3.6692C109.279 3.58592 110.769 3.57769 109.695 3.46128ZM110.012 4.5005C110.009 4.57147 109.65 4.55634 109.292 4.54119C109.243 4.46805 109.653 4.48535 110.012 4.5005ZM109.758 1.93024C110.117 1.94538 110.476 1.96052 110.479 1.88954C110.12 1.86426 109.761 1.84912 109.758 1.93024ZM111.197 1.9097C111.2 1.83872 111.61 1.85603 111.197 1.9097C110.476 1.96053 111.193 1.99082 111.197 1.9097ZM111.541 3.53917C112.626 3.36154 114.101 3.71832 111.541 3.53917C110.057 3.40545 111.532 3.7521 111.541 3.53917ZM114.146 2.62327C114.505 2.63842 114.858 2.79552 115.274 2.67087C114.864 2.65357 114.511 2.49647 114.146 2.62327ZM114.81 3.97169C115.94 3.94831 115.522 4.14393 116.29 4.17638C116.655 4.04958 115.226 3.83691 114.81 3.97169ZM116.712 2.66047C117.071 2.67561 117.43 2.69077 117.433 2.61979C117.125 2.60681 116.715 2.58949 116.712 2.66047ZM120.346 4.20535C120.349 4.13438 120.711 4.07853 121.07 4.09368C121.118 4.15668 121.115 4.23781 120.346 4.20535ZM120.819 2.68147C120.817 2.75245 120.817 2.75245 120.814 2.82342C121.173 2.83857 121.17 2.90953 121.528 2.92468C121.534 2.78273 121.893 2.79787 121.896 2.71675C122.255 2.7319 122.608 2.889 123.018 2.9063C123.033 2.54129 124.502 3.04003 125.995 2.96082C125.998 2.88985 126 2.81887 125.642 2.80373L125.645 2.73274C124.927 2.70245 125.647 2.66177 125.65 2.59079C125.294 2.50467 124.167 2.45708 123.449 2.42679C124.565 2.76843 122.722 2.61957 121.947 2.72907C121.537 2.71176 121.178 2.69662 120.819 2.68147ZM121.184 2.55466C121.543 2.56981 121.902 2.58495 121.905 2.51397C121.546 2.49882 121.187 2.48369 121.184 2.55466ZM126.392 2.04314C124.546 1.96526 122.701 1.88737 121.974 2.08015C124.124 2.24199 125.258 2.1375 126.392 2.04314ZM127.035 3.89853L127.393 3.91368C128.12 3.7209 130.376 3.81609 130.391 3.45108C127.831 3.27192 127.406 3.61963 124.845 3.44048C125.189 3.82064 121.507 3.44179 122.982 3.79858C124.113 3.7752 125.961 3.78211 125.97 3.55904C126.688 3.58933 126.679 3.81241 127.035 3.89853C127.032 3.96951 126.314 3.93922 127.035 3.89853ZM124.872 2.78141C124.869 2.85238 125.587 2.88267 125.59 2.8117C125.231 2.79655 125.231 2.79655 124.872 2.78141ZM126.721 2.78833C127.08 2.80347 127.435 2.88958 128.204 2.92204C128.931 2.7394 126.726 2.64638 126.721 2.78833ZM127.836 1.88066C128.195 1.8958 128.554 1.91094 128.557 1.83996C128.249 1.82698 127.839 1.80968 127.836 1.88066ZM128.252 1.75601C128.611 1.77116 128.97 1.7863 128.973 1.71532C128.614 1.70017 128.255 1.68504 128.252 1.75601ZM129.311 2.23744C129.317 2.09548 129.676 2.11063 129.679 2.02951C130.81 2.00614 130.391 2.20176 130.029 2.26773C131.156 2.31532 131.877 2.27464 132.239 2.21881C131.521 2.18852 130.749 2.22705 130.755 2.0851C131.476 2.04441 132.959 2.17813 134.093 2.08378C134.811 2.11407 135.224 2.0604 135.227 1.98942C134.509 1.95913 134.096 2.0128 134.093 2.08378C133.734 2.06863 133.74 1.92668 133.381 1.91154C133.01 2.19043 130.046 1.84188 129.678 2.0498C128.608 1.84213 128.593 2.20715 129.311 2.23744ZM129.275 3.11957C129.634 3.13472 129.992 3.14986 129.995 3.07888C129.637 3.0536 129.278 3.03846 129.275 3.11957ZM129.661 2.47565C129.664 2.40467 130.074 2.42198 129.661 2.47565C128.94 2.51634 129.658 2.54663 129.661 2.47565ZM130.795 2.37116C130.792 2.44214 130.071 2.48282 130.785 2.59423C130.788 2.52325 131.509 2.48257 130.795 2.37116ZM131.5 2.69549C132.218 2.72578 132.987 2.75824 132.984 2.82922C131.859 2.71064 130.409 3.01507 131.844 3.07565L131.841 3.14664C134.04 3.38162 132.981 2.90018 134.417 2.96076C134.422 2.81881 134.063 2.80367 134.07 2.65158C133.349 2.70241 131.916 2.57084 131.5 2.69549C131.497 2.76646 130.78 2.73617 131.5 2.69549ZM132.67 1.71901C131.955 1.61775 130.815 1.86419 131.943 1.91179C131.946 1.84081 132.667 1.80013 132.67 1.71901ZM131.922 2.41876C132.643 2.37807 132.275 2.57586 133.044 2.60831C133.412 2.40039 135.611 2.6455 136.03 2.43975C133.777 2.28371 133.777 2.28372 131.922 2.41876C131.919 2.49988 131.15 2.46742 131.922 2.41876ZM133.337 2.99644C132.975 3.05227 132.613 3.10811 131.844 3.07565C131.491 2.91856 133.343 2.84435 133.337 2.99644ZM132.933 4.07636C132.93 4.14733 132.571 4.1322 132.212 4.11705C132.215 4.04608 132.574 4.06121 132.933 4.07636ZM133.289 4.16248C133.657 3.95456 134.42 4.1391 135.855 4.19968C135.134 4.24037 133.696 4.25077 133.289 4.16248ZM134.482 2.60806C134.473 2.83112 135.957 2.96484 135.966 2.74177C135.607 2.72662 135.2 2.63835 134.482 2.60806ZM137.411 3.8286C137.405 3.97055 135.921 3.83682 135.562 3.82168C135.569 3.66959 136.639 3.86712 137.411 3.8286ZM138.861 3.52416C137.73 3.54754 136.66 3.36014 135.885 3.46964C136.648 3.64405 138.496 3.65097 138.861 3.52416C139.275 3.46035 138.864 3.44304 138.861 3.52416ZM137.453 2.80451C137.45 2.87549 137.091 2.86034 137.088 2.93132C138.931 3.08018 140.076 2.69179 140.782 3.01613C141.15 2.80821 141.147 2.88932 140.797 2.65111C139.669 2.60351 139.305 2.73031 138.581 2.85211C138.583 2.78113 138.586 2.71016 138.228 2.69501C138.171 2.8348 137.812 2.81966 137.453 2.80451C137.052 2.56414 135.604 2.7976 137.453 2.80451ZM138.562 2.04894C139.702 1.8025 139.681 2.30947 138.562 2.04894C135.643 1.8445 137.477 2.21643 138.562 2.04894ZM138.541 2.55591C138.9 2.57106 139.259 2.58619 139.262 2.51522C138.903 2.50007 138.544 2.48493 138.541 2.55591ZM140.701 3.744C141.06 3.75915 141.416 3.84527 141.409 3.99736C140.282 3.94976 139.561 3.99045 139.196 4.12739C140.324 4.17499 141.044 4.13431 141.765 4.09362C142.133 3.8857 141.418 3.78442 142.501 3.68791C141.479 3.55338 141.12 3.53824 140.701 3.744C140.698 3.81498 139.98 3.78469 140.701 3.744ZM139.633 3.4755C139.992 3.49064 140.761 3.52309 140.764 3.45211C140.354 3.43481 139.636 3.40452 139.633 3.4755ZM145.6 1.98033C143.755 1.90244 142.265 1.91068 141.541 2.03248C143.387 2.10023 144.877 2.09199 145.6 1.98033ZM141.482 3.4824C141.841 3.49755 142.2 3.5127 142.203 3.44173C141.844 3.42658 141.485 3.41143 141.482 3.4824ZM143.689 3.50447C143.692 3.43349 143.692 3.43349 143.695 3.36252C142.977 3.33223 142.564 3.38589 142.561 3.45687C142.971 3.47418 143.33 3.48932 143.689 3.50447C144.042 3.66156 144.048 3.51961 143.689 3.50447ZM144.081 2.71859C143.722 2.70345 143.725 2.63248 142.956 2.60003C142.588 2.80795 143.662 2.92435 142.938 3.03601C144.066 3.08361 143.716 2.8454 144.081 2.71859ZM144.401 3.67671C144.413 3.3928 145.888 3.73945 144.401 3.67671C142.969 3.54515 144.392 3.89977 144.401 3.67671ZM145.188 3.27316C145.176 3.5672 146.307 3.54383 146.672 3.40689C145.903 3.37443 145.544 3.35928 145.188 3.27316ZM145.921 2.93843C146.635 3.0397 148.9 2.92197 149.982 2.81532C148.544 2.83585 146.291 2.65954 145.921 2.93843C145.918 3.00941 145.2 2.97912 145.921 2.93843ZM146.291 2.65954C146.65 2.67468 147.009 2.68982 147.012 2.61885C146.704 2.60587 146.294 2.58856 146.291 2.65954ZM148.149 2.45353C147.79 2.43838 147.431 2.42323 147.024 2.33494C147.021 2.40592 146.659 2.46175 146.656 2.54287C147.425 2.56518 147.787 2.50936 148.149 2.45353ZM148.55 2.68375C148.909 2.6989 149.268 2.71405 149.271 2.64308C148.912 2.62793 148.553 2.61278 148.55 2.68375ZM149.597 3.45923C149.238 3.44408 148.882 3.35797 148.472 3.34066C148.469 3.41164 148.469 3.41164 148.466 3.48261C148.873 3.58104 149.232 3.59617 149.597 3.45923C149.958 3.4034 149.6 3.38825 149.597 3.45923ZM151.149 1.91994C151.143 2.0619 148.583 1.88274 150.012 2.09541C150.018 1.94332 152.63 2.12464 151.149 1.91994ZM150.318 4.65772C150.315 4.7287 149.956 4.71354 149.597 4.6984C149.549 4.62526 149.908 4.64041 150.318 4.65772ZM151.834 2.75125C151.837 2.68028 151.837 2.68028 151.84 2.6093C151.481 2.59416 151.481 2.59416 151.122 2.57901C151.119 2.64999 151.119 2.64999 151.116 2.72097C151.475 2.73611 151.475 2.73611 151.834 2.75125ZM154.774 3.67775C154.765 3.90081 153.285 3.68599 153.634 3.9242C154.759 4.04277 155.489 3.77901 154.774 3.67775ZM155.54 2.54201C155.181 2.52687 155.181 2.52687 154.822 2.51172C154.819 2.5827 154.46 2.56755 154.457 2.63853C155.175 2.66882 155.534 2.68396 155.54 2.54201ZM154.735 4.63085C154.741 4.4889 155.869 4.53651 155.875 4.38442C156.593 4.41471 156.228 4.54151 155.866 4.60748C156.225 4.62263 156.225 4.62263 156.584 4.63777C156.578 4.77973 155.094 4.646 154.735 4.63085ZM155.564 1.95392C155.923 1.96907 156.282 1.98422 156.284 1.91325C155.977 1.90027 155.567 1.88295 155.564 1.95392ZM157.748 3.80323C156.617 3.82661 157.027 3.84392 155.902 3.72535C155.896 3.8673 156.252 3.96357 156.608 4.04969C156.614 3.90774 157.741 3.95533 157.748 3.80323ZM156.685 2.15361C156.33 2.06749 156.327 2.13846 156.685 2.15361C157.044 2.16875 157.039 2.31071 156.685 2.15361ZM156.695 1.93056C157.053 1.9457 157.822 1.97815 157.825 1.90717C157.415 1.88986 156.698 1.85958 156.695 1.93056ZM157.756 3.59032C156.264 3.66952 157.407 3.3521 156.638 3.31965C156.635 3.39062 156.629 3.54271 156.626 3.61369C156.984 3.62883 157.753 3.66129 157.756 3.59032ZM156.584 4.63777C156.587 4.5668 157.304 4.59708 158.073 4.62953C158.076 4.55856 157.358 4.52827 156.951 4.43998C157.313 4.38415 158.082 4.41661 158.803 4.37592C158.8 4.4469 159.156 4.53301 159.149 4.6851C159.508 4.70025 159.508 4.70025 159.867 4.71539C159.554 4.83422 157.715 4.60426 156.584 4.63777ZM157.011 2.96977C157.37 2.98492 157.729 3.00006 157.732 2.92908C157.373 2.91393 157.014 2.8988 157.011 2.96977ZM158.872 2.68264C159.231 2.69779 159.59 2.71292 159.593 2.64195C159.234 2.6268 158.875 2.61167 158.872 2.68264ZM162.177 3.48233C162.18 3.41136 162.539 3.4265 162.177 3.48233C161.821 3.39621 161.462 3.38107 161.457 3.52302C160.739 3.49273 160.332 3.40445 159.976 3.31833C159.608 3.52625 161.803 3.83221 161.457 3.52302C161.815 3.53817 162.174 3.55331 162.177 3.48233ZM160.003 2.65926C160.362 2.6744 161.13 2.70687 161.133 2.63589C160.723 2.61858 160.006 2.58828 160.003 2.65926ZM159.952 3.89627C160.311 3.91141 160.67 3.92656 160.673 3.85559C160.314 3.84044 159.955 3.82529 159.952 3.89627ZM161.785 4.26821C162.144 4.28335 162.913 4.3158 162.916 4.24482C162.506 4.22751 161.788 4.19723 161.785 4.26821ZM164.801 3.3696C164.804 3.29863 165.162 3.31377 164.801 3.3696C163.317 3.23588 164.792 3.59267 164.801 3.3696ZM167.065 2.00258C167.427 1.94675 167.792 1.8098 167.074 1.77951C167.068 1.92146 165.232 1.63065 165.937 1.95498C166.296 1.97012 166.655 1.98527 167.065 2.00258C167.418 2.16981 167.424 2.01772 167.065 2.00258ZM168.055 4.16714C166.577 3.88133 166.556 4.39844 168.055 4.16714C168.058 4.09617 168.416 4.11131 168.055 4.16714ZM171.39 4.23679C169.541 4.22988 169.9 4.24503 168.829 4.05765C168.827 4.12862 168.82 4.28071 168.817 4.35168C170.313 4.19136 169.936 4.62236 171.01 4.73877C171.375 4.60182 171.019 4.51569 171.39 4.23679C171.749 4.25194 171.752 4.18097 171.393 4.16582C169.903 4.17406 171.402 3.94276 171.393 4.16582L171.39 4.23679ZM169.999 1.83185C169.996 1.90282 169.996 1.90282 169.993 1.9738C170.352 1.98894 170.349 2.05993 170.708 2.07507C170.355 1.91798 171.429 2.03438 171.435 1.88229C171.803 1.67437 173.277 2.03116 171.435 1.88229C171.127 1.87945 170.409 1.84916 169.999 1.83185ZM173.238 4.24371C173.594 4.32983 173.956 4.274 174.366 4.29131C174.725 4.30645 174.719 4.44841 174.366 4.29131C174.369 4.22033 174.372 4.14936 174.013 4.13421C173.959 4.19289 173.242 4.1626 173.238 4.24371C173.235 4.31469 172.518 4.2844 173.238 4.24371ZM175.446 4.25563C175.449 4.18465 175.859 4.20196 175.446 4.25563C174.369 4.21019 175.844 4.56698 175.446 4.25563ZM177.031 1.91534C177.39 1.93048 178.159 1.96293 178.162 1.89195C177.803 1.87681 177.034 1.84436 177.031 1.91534ZM176.938 4.17642C177.297 4.19156 178.066 4.22401 178.069 4.15303C177.71 4.13789 176.941 4.10544 176.938 4.17642ZM178.775 4.47738C179.143 4.26945 180.617 4.62624 178.775 4.47738C177.291 4.33352 178.766 4.6903 178.775 4.47738ZM182.577 1.92593C182.936 1.94108 183.294 1.95622 183.297 1.88524C182.938 1.8701 182.58 1.85496 182.577 1.92593ZM184.784 1.94799C183.349 1.88741 184.772 2.24203 184.784 1.94799C185.143 1.96313 185.505 1.9073 185.507 1.83632C185.51 1.76535 185.869 1.78049 185.507 1.83632C184.79 1.80603 184.787 1.87701 184.784 1.94799ZM190.736 2.05701C191.095 2.07215 191.454 2.08731 191.457 2.01633C191.099 1.99105 190.74 1.97589 190.736 2.05701ZM191.834 1.58534C191.828 1.72729 191.457 2.00619 192.537 1.98065C192.184 1.82355 192.19 1.67146 191.834 1.58534ZM192.073 4.52062C192.432 4.53577 192.791 4.55092 192.794 4.47994C192.486 4.46696 192.076 4.44965 192.073 4.52062ZM193.321 1.64808C193.68 1.66323 194.039 1.67837 194.041 1.60739C193.683 1.59225 193.324 1.57711 193.321 1.64808ZM193.252 3.33121C193.611 3.34636 193.97 3.36151 193.972 3.29053C193.614 3.27539 193.255 3.26024 193.252 3.33121ZM195.16 1.87806C195.881 1.83737 196.288 1.92565 196.288 1.92565C200.338 2.09657 197.379 1.60607 195.16 1.87806ZM197.362 2.04207C197.72 2.05722 198.079 2.07235 198.082 2.00138C197.723 1.98623 197.364 1.9711 197.362 2.04207ZM198.746 4.58896C199.105 4.60411 199.464 4.61925 199.467 4.54827C199.109 4.52299 198.75 4.50785 198.746 4.58896ZM200.993 3.65791C200.637 3.57179 200.634 3.64276 200.993 3.65791C200.984 3.87084 202.482 3.64968 200.993 3.65791ZM203.975 3.56034C204.334 3.57549 204.693 3.59063 204.696 3.51965C204.337 3.50451 203.978 3.48937 203.975 3.56034ZM205.507 2.52803C206.227 2.48734 206.625 2.7987 206.993 2.59077C206.276 2.56048 206.996 2.5198 206.999 2.44882C207.002 2.37785 207.361 2.39299 206.999 2.44882C206.23 2.41637 205.869 2.4722 205.507 2.52803ZM206.975 1.78759C206.254 1.82827 206.972 1.85856 206.975 1.78759C207.331 1.87371 208.459 1.92132 208.465 1.77936C208.106 1.76422 207.337 1.73176 207.34 1.66078C207.343 1.58981 207.701 1.60495 207.34 1.66078C206.981 1.64564 206.978 1.71661 206.975 1.78759ZM213.283 1.98274C214.007 1.87108 212.165 1.71207 212.159 1.86416C212.517 1.8793 212.517 1.87931 212.514 1.95028C212.925 1.96759 212.925 1.9676 213.283 1.98274ZM213.23 3.29072C213.233 3.21974 213.592 3.23489 213.23 3.29072C212.458 3.33938 213.227 3.37183 213.23 3.29072ZM216.22 1.74104C215.503 1.71075 214.734 1.67829 214.378 1.59217C214.369 1.81524 213.244 1.68653 213.642 1.99788C215.135 1.90854 215.491 2.0048 216.22 1.74104ZM220.683 1.85829C221.042 1.87343 221.811 1.9059 221.814 1.83492C221.404 1.80747 220.687 1.77717 220.683 1.85829ZM224.022 1.84684C224.381 1.86198 224.739 1.87713 225.15 1.89444C225.155 1.75248 224.8 1.65622 224.441 1.64108C224.085 1.55496 224.082 1.62593 224.441 1.64108C224.384 1.79101 224.025 1.77586 224.022 1.84684ZM224.363 2.29797C224.722 2.31311 225.08 2.32827 225.083 2.25729C224.724 2.24214 224.366 2.22699 224.363 2.29797ZM227.308 1.84335C226.953 1.75723 225.113 1.52725 225.46 1.83643C226.591 1.81306 226.181 1.79575 226.944 1.97016C226.947 1.89918 227.306 1.91433 227.308 1.84335C227.667 1.8585 228.026 1.87364 228.029 1.80266C228.032 1.73169 228.391 1.74683 228.029 1.80266C227.722 1.78968 227.311 1.77238 227.308 1.84335ZM225.382 3.73251C225.741 3.74766 226.51 3.7801 226.513 3.70913C226.154 3.69398 225.385 3.66154 225.382 3.73251ZM226.208 2.37586C226.211 2.30488 226.57 2.32002 226.208 2.37586C225.08 2.32826 226.555 2.68504 226.208 2.37586ZM229.175 1.40412C229.534 1.41927 230.303 1.45173 230.306 1.38075C229.947 1.36561 229.178 1.33315 229.175 1.40412ZM231.012 1.70508C229.884 1.65748 229.878 1.79943 229.516 1.8654C230.644 1.913 231.002 1.92815 231.012 1.70508ZM230.578 3.51503C230.937 3.53017 231.296 3.54533 231.299 3.47435C230.94 3.45921 230.581 3.44405 230.578 3.51503ZM232.468 2.49786C232.471 2.42688 232.83 2.44203 232.468 2.49786C230.985 2.36414 232.459 2.72093 232.468 2.49786ZM234.58 4.85199L234.583 4.78101C233.865 4.75072 233.452 4.80439 233.449 4.87536C234.218 4.90782 234.221 4.83685 234.58 4.85199C234.984 5.02139 234.99 4.8693 234.58 4.85199ZM233.991 1.68862C233.626 1.81542 233.261 1.95237 234.699 1.94197C234.706 1.78988 234.35 1.70376 233.991 1.68862ZM233.997 1.53653L234.356 1.55167C234.715 1.56682 234.709 1.70877 234.356 1.55167C234.359 1.4807 234 1.46556 233.997 1.53653C233.994 1.60751 233.276 1.57722 233.997 1.53653ZM235.84 1.68539C236.198 1.70053 235.837 1.75636 235.834 1.82734C236.551 1.85763 236.959 1.94592 237.317 1.96106C237.685 1.75314 236.606 1.78883 236.612 1.63674C236.621 1.41367 238.096 1.77046 236.612 1.63674C236.201 1.62957 235.842 1.61441 235.84 1.68539ZM235.741 4.09857C236.1 4.11372 236.458 4.12887 236.461 4.05789C236.102 4.04275 235.744 4.02759 235.741 4.09857ZM242.866 1.91083C242.869 1.83985 242.871 1.76888 242.154 1.73859C242.151 1.80956 242.145 1.96165 242.503 1.9768C242.507 1.89568 242.507 1.89568 242.866 1.91083ZM245.791 1.96317C245.794 1.89219 245.796 1.82121 245.8 1.7401C244.669 1.76347 244.316 1.60639 243.59 1.78903C243.945 1.88529 244.714 1.91773 245.791 1.96317ZM245.808 1.52718C245.811 1.4562 246.222 1.47351 245.808 1.52718C245.088 1.56786 245.806 1.59815 245.808 1.52718ZM246.563 1.92465C246.219 1.54449 248.405 2.07352 246.563 1.92465C245.791 1.96318 246.56 1.99563 246.563 1.92465ZM251.758 1.70717C252.117 1.72231 252.47 1.87941 252.476 1.73746C252.479 1.65634 251.761 1.62605 251.758 1.70717ZM253.191 1.83873C252.835 1.75261 252.832 1.82359 253.191 1.83873C253.601 1.85604 253.595 1.99799 253.191 1.83873ZM255.048 1.62257C255.051 1.55159 255.461 1.5689 255.048 1.62257C252.847 1.45856 254.321 1.81535 255.048 1.62257ZM254.318 1.88633C253.957 1.94216 253.592 2.07911 254.309 2.1094C254.312 2.03842 254.674 1.98259 254.677 1.90148C254.68 1.8305 255.039 1.84565 254.677 1.90148L254.318 1.88633ZM256.523 1.97937C256.152 2.25826 258.365 2.12822 257.654 1.95598C257.298 1.85972 256.523 1.97937 256.523 1.97937ZM258.021 1.74806C258.024 1.67708 258.024 1.67708 258.027 1.60611C257.668 1.59096 257.668 1.59096 257.31 1.57582C257.307 1.64679 257.307 1.64679 257.304 1.71777C257.663 1.73291 257.663 1.73291 258.021 1.74806ZM257.887 5.03323C258.246 5.04837 258.605 5.06353 258.607 4.99255C258.249 4.97741 257.89 4.96225 257.887 5.03323ZM261.234 4.80884C261.228 4.9508 260.103 4.83223 260.504 5.0726C261.219 5.17387 261.949 4.91011 261.234 4.80884ZM262.43 1.93412L262.84 1.95143C262.831 2.1745 264.33 1.9432 262.84 1.95143C262.843 1.88046 262.433 1.86315 262.43 1.93412C262.825 2.31645 260.588 1.78526 262.43 1.93412ZM264.692 1.88737C264.285 1.78895 264.282 1.87006 264.692 1.88737C265.042 2.11544 266.54 1.88414 264.692 1.88737ZM266.537 1.96526C266.896 1.9804 267.255 1.99556 267.258 1.92458C266.899 1.8993 266.54 1.88414 266.537 1.96526ZM266.83 3.58243C266.833 3.51145 267.192 3.5266 266.83 3.58243C266.058 3.62095 266.827 3.6534 266.83 3.58243ZM268.383 2.04315C268.742 2.05829 268.742 2.05829 269.1 2.07344C269.106 1.93149 268.747 1.91634 268.388 1.9012C267.252 2.07666 267.68 1.64784 268.388 1.9012C268.386 1.96203 268.386 1.96203 268.383 2.04315ZM268.715 2.70721C269.074 2.72236 269.433 2.73751 269.436 2.66653C269.077 2.65139 268.718 2.63624 268.715 2.70721ZM269.34 5.00873C268.993 4.69954 270.467 5.05633 269.34 5.00873C268.619 5.04942 269.337 5.07971 269.34 5.00873ZM270.952 1.99924C270.234 1.96895 269.821 2.02262 269.818 2.09359C270.587 2.13619 270.949 2.07022 270.952 1.99924ZM270.551 3.00817C270.554 2.93719 270.913 2.95234 270.551 3.00817C269.779 3.04669 270.548 3.07914 270.551 3.00817ZM270.467 5.05633C270.471 4.97522 270.83 4.99036 270.467 5.05633C269.695 5.09485 270.464 5.12731 270.467 5.05633ZM272.08 2.04684C272.083 1.97586 272.442 1.99101 272.08 2.04684C271.308 2.08536 272.077 2.11782 272.08 2.04684ZM273.169 1.79824C272.81 1.78309 272.807 1.85406 273.166 1.8692C273.163 1.94018 273.522 1.95533 273.525 1.88435C273.883 1.8995 273.883 1.8995 274.242 1.91464C274.601 1.92979 274.595 2.07174 274.242 1.91464C274.245 1.84366 273.886 1.82853 273.527 1.81338C273.53 1.74241 273.533 1.67143 273.174 1.65629C272.047 1.60869 273.545 1.37739 273.174 1.65629C273.171 1.72726 273.171 1.72726 273.169 1.79824ZM273.524 1.89449L273.527 1.82352L273.168 1.80837L273.165 1.87934L273.524 1.89449ZM276.853 2.1061C276.862 1.88303 275.738 1.76445 275.728 1.98752C276.139 2.00482 276.494 2.09095 276.853 2.1061ZM287.104 5.09827C287.107 5.0273 287.466 5.04244 287.104 5.09827C286.332 5.1368 287.101 5.16925 287.104 5.09827ZM295.749 2.17225C295.751 2.10128 296.11 2.11642 295.749 2.17225C294.977 2.21078 295.746 2.24323 295.749 2.17225ZM299.67 5.47625C298.183 5.4135 297.83 5.2564 298.961 5.22289C297.837 5.10431 297.116 5.145 296.392 5.25666C297.83 5.2564 298.886 5.80881 299.67 5.47625ZM300.525 2.1504C300.884 2.16554 301.243 2.18069 301.246 2.10972C300.887 2.09457 300.528 2.07942 300.525 2.1504ZM300.396 5.29362C300.755 5.30876 301.114 5.3239 301.117 5.25292C300.758 5.23778 300.399 5.22264 300.396 5.29362ZM300.848 3.04766C301.207 3.06281 301.566 3.07796 301.569 3.00699C301.261 2.98387 300.851 2.96655 300.848 3.04766ZM309.044 2.29663C308.688 2.20037 308.685 2.28148 309.044 2.29663C309.403 2.31178 309.397 2.45373 309.044 2.29663ZM313.432 2.98967C313.791 3.00481 314.149 3.01995 314.152 2.94897C313.794 2.93383 313.435 2.91869 313.432 2.98967ZM316.312 5.37624C315.595 5.34595 315.182 5.39961 315.179 5.47059C315.947 5.51318 316.31 5.44721 316.312 5.37624ZM317.514 2.35957C316.797 2.32928 316.384 2.38294 316.381 2.45392C317.15 2.48637 317.512 2.43054 317.514 2.35957ZM323.051 2.59323C323.41 2.60838 323.769 2.62353 323.772 2.55255C323.464 2.53957 323.054 2.52225 323.051 2.59323ZM323.467 2.45845C323.826 2.4736 324.185 2.48874 324.188 2.41776C323.829 2.40262 323.47 2.38748 323.467 2.45845ZM326.629 5.51706C325.504 5.39849 324.78 5.51016 324.062 5.47986C323.694 5.68779 326.622 5.66915 326.629 5.51706ZM332.94 5.64123C333.299 5.65637 334.068 5.68883 334.071 5.61786C333.661 5.60055 332.943 5.57025 332.94 5.64123ZM338.841 5.74809C339.2 5.76323 340.684 5.89696 340.69 5.75501C339.969 5.79569 338.847 5.596 338.841 5.74809ZM342.882 6.13194C344.387 5.75869 348.069 6.12739 349.923 5.99235C348.772 6.53284 345.099 5.93093 342.882 6.13194Z" fill="#74A02B"/>
</svg>
