<svg width="675" height="7" viewBox="0 0 675 7" fill="none" xmlns="http://www.w3.org/2000/svg">
<path d="M670.541 2.15792C671.195 2.17064 671.849 2.18336 672.596 2.19789C673.246 2.43383 673.243 2.64691 671.931 2.84469C672.583 2.92843 673.238 2.87013 674.637 3.03943C673.316 3.74452 674.618 4.0642 673.298 4.69827C671.246 4.51625 669.278 4.84334 666.569 4.79065C666.567 4.86168 667.22 4.94543 667.217 5.09762C665.91 5.07218 665.161 5.12867 665.16 5.19969C659.09 4.93955 657.771 5.56346 653.749 5.77957C646.367 5.77808 643.013 5.20537 640.315 4.5642C633.587 4.57543 629.57 4.49729 623.495 4.53138C622.187 4.50595 623.494 4.60241 623.491 4.7546C618.819 4.73478 615.455 4.74039 610.034 4.7872C606.671 4.72179 599.939 4.95623 599.289 4.7203C593.864 5.0512 584.521 4.94054 577.049 4.72416C556.209 4.82629 536.025 4.7991 515.842 4.7719C501.731 4.79179 487.625 4.58845 474.165 4.7631C474.168 4.62105 473.516 4.52716 472.862 4.51444C471.554 4.489 472.86 4.58547 472.858 4.73766C469.497 4.5302 466.132 4.60684 462.115 4.52871C458.092 4.81585 455.384 4.69214 449.966 4.58676C447.911 4.54679 447.909 4.68883 447.253 4.75728C444.548 4.48138 441.835 4.65189 440.526 4.69748C437.162 4.70309 429.131 4.4048 426.42 4.49415C425.111 4.53974 425.108 4.69193 423.707 4.66468C417.632 4.68863 412.306 4.66622 406.887 4.63187C402.869 4.62476 396.789 4.94295 394.741 4.53771C390.715 4.96689 384 4.25773 382.589 4.73779C374.558 4.43948 369.784 4.92516 363.065 4.42908C361.009 4.46013 363.062 4.57112 361.752 4.69788C352.97 4.59811 338.855 4.84121 330.172 4.44901C328.864 4.42358 328.86 4.6468 328.111 4.70329C322.696 4.45586 320.071 4.9123 317.369 4.49434C317.364 4.78858 311.943 4.82524 305.965 4.70896C305.966 4.63793 305.967 4.56691 305.313 4.55419L305.315 4.48318C304.661 4.47046 304.659 4.54147 305.313 4.55419C305.312 4.62521 304.658 4.6125 304.655 4.76469C299.235 4.80136 293.912 4.62677 291.2 4.72627C291.203 4.58422 289.903 4.11236 291.862 4.30271C291.864 4.16066 291.21 4.14794 290.558 4.05405C289.242 4.4649 283.831 3.99425 284.478 4.37223C283.825 4.35951 283.826 4.2885 283.172 4.27578L283.173 4.20475C283.827 4.21747 283.827 4.21748 283.828 4.14645C283.175 4.13373 283.174 4.13372 283.173 4.20475C282.519 4.19203 282.518 4.26306 283.172 4.27578C283.169 4.41783 280.459 4.4463 280.462 4.2941C280.466 4.07089 283.169 4.41782 280.462 4.2941C275.791 4.20326 275.035 4.69603 271.677 4.34653C271.023 4.33381 271.022 4.40483 271.674 4.48858C271.02 4.47586 270.364 4.60519 269.619 4.4486C269.621 4.37758 270.274 4.3903 269.619 4.4486C268.309 4.56521 267.565 4.3376 266.914 4.17269C264.858 4.20374 267.563 4.47965 266.254 4.52524C264.947 4.42878 262.238 4.37609 262.242 4.15288C260.183 4.33612 256.817 4.48379 252.147 4.32191C252.149 4.25089 251.496 4.16715 250.842 4.15443C250.843 4.0834 250.845 4.01238 250.846 3.93121C249.538 3.90577 248.137 3.87852 246.829 3.85308C246.831 3.78206 246.832 3.71103 246.833 3.62986C244.126 3.50615 244.776 3.73194 242.814 3.69378C242.818 3.47057 240.762 3.51176 240.105 3.64109L239.451 3.62837C239.45 3.6994 240.104 3.71211 240.105 3.64109C241.41 3.80858 240.759 3.65381 242.814 3.69378C242.813 3.76481 242.812 3.83583 242.81 3.917C242.158 3.83326 239.447 3.85158 238.138 3.89717C238.136 4.03922 242.155 3.97531 242.81 3.917C243.464 3.92972 243.465 3.85869 244.866 3.88594C246.17 4.1346 242.155 3.9753 244.208 4.09644C240.839 4.3963 232.064 3.93127 232.054 4.44872C232.05 4.67194 229.999 4.40875 230.749 4.28124C226.736 3.97989 224.672 4.45739 220.659 4.15604C223.372 3.98551 220.012 3.77806 219.354 3.98856C218.7 3.97584 217.299 3.94859 216.645 3.93587C214.593 3.75385 211.972 3.98705 209.915 4.02825C209.261 4.01553 209.261 4.01553 208.608 4.00281C208.606 4.07384 209.914 4.09927 209.915 4.02825C213.274 4.31688 213.936 3.88318 216.645 3.93587C215.986 4.21739 218.699 4.04686 219.354 3.98856C220.654 4.45028 213.932 4.10639 215.328 4.41774C214.023 4.25026 214.022 4.32128 212.619 4.36505C212.618 4.43607 213.926 4.4615 214.673 4.47604C213.362 4.59265 209.998 4.6084 207.942 4.63945C207.943 4.56843 207.944 4.49742 208.6 4.42897C204.576 4.7161 199.157 4.68174 194.485 4.66192C194.486 4.5909 194.488 4.51987 193.18 4.49444C193.183 4.35239 190.472 4.37071 190.47 4.51276C191.121 4.66753 191.124 4.52549 193.177 4.63648C191.867 4.75309 190.466 4.72584 188.504 4.68768C192.528 4.40055 183.09 4.35908 182.434 4.49855C183.085 4.65332 185.798 4.49294 187.852 4.60393C185.795 4.63498 183.174 4.87835 181.123 4.61516C182.434 4.49855 181.126 4.47311 179.071 4.43314C178.414 4.56247 179.722 4.58791 181.123 4.61516C177.753 4.98604 168.319 4.73151 161.588 4.89494C160.281 4.8695 160.937 4.74016 160.94 4.58797C158.886 4.47697 158.23 4.60631 156.922 4.58087C156.269 4.49713 156.268 4.56815 156.922 4.58087C156.92 4.65189 156.267 4.63917 155.613 4.62645C156.26 5.00443 158.324 4.5371 160.282 4.78833C157.57 4.87768 152.243 4.92631 147.478 4.90467C147.476 4.97569 147.475 5.04672 148.128 5.14061C150.183 5.18058 150.187 4.95735 152.801 5.08939C152.144 5.21872 150.089 5.17875 150.085 5.40196C148.781 5.15331 146.07 5.25282 143.361 5.20013C143.358 5.34218 145.415 5.31113 144.665 5.44879C143.357 5.42335 142.607 5.55085 140.647 5.44167C140.649 5.29962 142.703 5.41062 142.706 5.25843C139.342 5.26404 141.398 5.233 142.056 5.0225C140.003 4.84048 139.339 5.40609 138.028 5.53284C137.375 5.52013 137.376 5.44911 136.722 5.43639C137.378 5.30706 138.782 5.18211 137.384 5.01281C136.075 5.0584 136.726 5.22332 135.327 5.04387C134.02 5.01844 135.323 5.26709 136.633 5.21136C133.92 5.38188 133.268 5.21697 129.904 5.22258C129.902 5.36463 131.958 5.33358 131.208 5.47124C133.263 5.51121 133.266 5.36916 135.227 5.40732C132.512 5.71989 128.49 5.936 122.422 5.59468C122.417 5.88892 119.058 5.60029 117.001 5.63134C114.291 5.64968 110.922 5.94953 106.909 5.65833C103.543 5.73497 98.1174 6.07602 96.1557 6.03787C94.8479 6.01243 86.0698 5.69959 86.0605 6.2069C64.5665 6.29632 40.2606 6.84869 17.4693 6.33433C9.44792 5.51857 4.70248 4.40113 0.0503652 3.29566C4.09502 1.84171 25.6732 2.26143 37.7301 2.13055C38.384 2.14327 38.3827 2.21429 38.3814 2.28531C41.0891 2.40903 39.0433 1.86175 43.0574 2.08193C42.3982 2.36345 45.1125 2.1219 43.0574 2.08193C47.7293 2.10175 52.4974 1.97119 56.5101 2.27254C57.164 2.28525 57.8191 2.22695 57.8219 2.07475C58.4717 2.31069 63.2398 2.18014 65.2027 2.14728C68.5656 2.21269 69.876 2.09608 72.5824 2.29082C74.6387 2.25977 71.9311 2.13604 72.5877 1.99657C74.6415 2.10756 78.6569 2.25672 78.6608 2.04365C81.3671 2.23839 87.4415 2.21444 91.4623 2.06935C92.1161 2.08207 94.1713 2.12204 94.17 2.19306C95.4778 2.2185 95.4803 2.07646 95.4831 1.92426C96.1344 2.07903 100.15 2.23833 100.901 2.02965C116.413 2.03702 129.118 2.2131 141.926 1.87353C152.665 2.3057 162.771 1.54818 176.217 2.10406C185.662 1.69909 198.458 2.02919 209.211 1.64966C212.569 2.00931 215.945 1.34419 220.61 1.72928C221.919 1.68369 222.668 1.62719 223.324 1.48772C223.977 1.57146 226.683 1.77635 226.035 1.46939C228.739 1.7453 232.763 1.45817 234.068 1.62565C232.759 1.67124 234.067 1.69668 234.068 1.62565C237.438 1.3258 244.814 1.61138 250.235 1.57472C254.254 1.5108 258.276 1.29468 263.043 1.23515C276.501 1.13153 291.263 1.27655 303.416 0.995295C306.781 0.918657 310.795 1.13884 314.16 1.13323C319.58 1.09656 323.603 0.809424 328.929 0.831819C330.237 0.857257 330.236 0.928273 331.637 0.955528C336.308 1.04637 341.078 0.77378 345.096 0.780884C352.477 0.853399 357.898 0.806589 364.626 0.795362C365.28 0.808081 365.282 0.737065 364.628 0.724347C372.665 0.657386 378.081 0.843935 386.87 0.568293C413.778 0.797331 436.028 0.286162 461.533 0.55897C474.34 0.300579 494.52 0.540841 507.325 0.353474C508.632 0.449935 510.033 0.477189 510.686 0.560931C513.4 0.319382 516.106 0.524275 520.126 0.45021C531.526 0.44866 542.366 0.446352 553.111 0.503106C554.419 0.528544 552.46 0.34834 553.767 0.373777C561.798 0.672081 570.587 0.406586 579.369 0.506355C580.023 0.519073 580.02 0.66112 579.369 0.506355C581.425 0.475304 587.404 0.591587 590.111 0.715302C597.502 0.270359 609.64 0.800791 616.372 0.566347C629.825 0.756963 647.956 0.59199 664.777 0.553775C668.787 0.997168 666.072 1.30975 668.119 1.78601C669.426 1.81145 669.429 1.66939 669.432 1.5172C669.896 1.70892 671.852 2.04131 670.541 2.15792C670.54 2.22894 669.232 2.20351 670.541 2.15792ZM82.4187 6.06503C83.0726 6.07775 83.7265 6.09046 83.7278 6.01943C83.0739 6.00672 82.42 5.994 82.4187 6.06503ZM109.341 5.49251C109.995 5.50523 110.649 5.51794 110.65 5.44692C109.997 5.4342 109.343 5.42149 109.341 5.49251ZM111.303 5.53067C111.957 5.54339 112.611 5.5561 112.612 5.48507C112.052 5.47417 111.304 5.45964 111.303 5.53067ZM120.743 5.41993C120.746 5.27788 121.397 5.43265 122.049 5.5164C122.051 5.44537 123.359 5.4708 124.106 5.48534C124.108 5.34329 124.11 5.26213 123.457 5.17839C122.151 5.08193 121.398 5.36162 121.404 5.06738C120.096 5.04195 116.73 5.11858 118.691 5.23791C119.442 5.02923 119.434 5.47566 120.743 5.41993ZM128.139 4.69089C126.083 4.65092 125.428 4.70922 124.772 4.8487C126.825 4.9597 126.829 4.73648 128.139 4.69089ZM129.556 3.84557C128.902 3.83285 128.25 3.67808 127.503 3.66355C127.501 3.8056 126.847 3.79288 126.191 3.86133C126.845 3.8639 129.553 3.98762 129.556 3.84557ZM128.172 2.86458C128.826 2.8773 129.48 2.89001 129.481 2.81899C128.92 2.80809 128.173 2.79356 128.172 2.86458ZM129.565 3.32812C130.219 3.34084 130.873 3.35356 130.874 3.28254C130.22 3.26982 129.566 3.25709 129.565 3.32812ZM138.254 3.42608C138.908 3.4388 139.561 3.45151 139.563 3.38048C139.002 3.36958 138.255 3.35505 138.254 3.42608ZM140.303 3.76028C140.957 3.773 141.611 3.78571 141.613 3.71469C140.959 3.70197 140.305 3.68926 140.303 3.76028ZM147.668 4.70537C148.322 4.71808 148.976 4.73081 148.977 4.65979L149.631 4.67251C149.626 4.96675 152.34 4.7252 149.631 4.67251C149.633 4.60148 148.979 4.58876 148.977 4.65979C147.671 4.56333 146.926 4.3966 146.269 4.6071C147.016 4.62163 147.67 4.63434 147.668 4.70537C147.664 4.92858 144.961 4.58165 147.668 4.70537ZM147.047 2.93736C147.7 2.95007 148.354 2.9628 148.356 2.89178C147.702 2.87906 147.048 2.86633 147.047 2.93736ZM155.086 2.72835C153.779 2.70291 152.38 2.53362 151.722 2.73397C152.47 2.7485 155.084 2.88054 155.086 2.72835C158.448 2.86478 155.838 2.52981 155.086 2.72835ZM160.496 3.27002C159.839 3.48052 158.441 3.23005 157.789 3.1463C157.788 3.21733 156.48 3.1919 155.732 3.17736C155.73 3.31941 155.076 3.30669 155.074 3.38786C157.782 3.51157 157.128 3.49885 159.744 3.54972C159.838 3.48052 162.55 3.39117 160.496 3.27002C159.843 3.25731 159.844 3.18628 160.496 3.27002ZM159.811 5.0126C159.809 5.08362 158.502 5.05818 157.754 5.04364C157.756 4.97262 159.157 4.99988 159.811 5.0126ZM161.114 5.26125C161.112 5.4033 159.057 5.36332 158.404 5.27958C158.405 5.20855 159.807 5.23582 161.114 5.26125ZM162.561 2.80269C161.158 2.84646 162.56 2.87371 162.561 2.80269C163.215 2.8154 163.216 2.74437 162.562 2.73165C162.563 2.66063 162.565 2.58961 161.911 2.57689C161.91 2.64791 157.24 2.48605 159.852 2.76014C159.853 2.68911 161.161 2.71454 162.562 2.7418L162.561 2.80269ZM162.521 4.99426C162.52 5.06528 161.212 5.03985 160.464 5.02532C160.466 4.95429 161.774 4.97972 162.521 4.99426ZM161.806 3.22443C161.803 3.36648 162.457 3.3792 162.455 3.46037C161.146 3.50596 162.454 3.53139 162.455 3.46037C163.111 3.40206 165.164 3.51306 165.167 3.37101C165.172 3.07677 167.876 3.4237 165.167 3.37101C163.859 3.33543 163.862 3.19338 161.806 3.22443ZM163.186 4.41851C163.839 4.43123 165.241 4.45848 165.242 4.38745C164.495 4.37292 163.187 4.34749 163.186 4.41851ZM166.583 2.58657C165.275 2.56113 163.874 2.53387 163.871 2.67592C165.179 2.7115 167.233 2.8225 166.583 2.58657ZM167.191 5.08511C167.187 5.30832 165.136 5.04513 165.886 4.91762C166.54 4.93034 166.538 5.07239 167.191 5.08511ZM165.932 2.4318C166.585 2.44452 167.987 2.47178 167.988 2.40076C167.241 2.38622 165.933 2.36078 165.932 2.4318ZM167.21 4.06034C167.211 3.98932 167.865 4.00204 167.21 4.06034C165.901 4.10593 167.209 4.13137 167.21 4.06034ZM170.589 3.25318C168.535 3.14218 167.876 3.42371 169.276 3.52199C168.533 3.28424 171.239 3.47897 170.589 3.25318ZM180.022 3.50772C178.72 3.18804 182.734 3.41835 182.737 3.26616C177.317 3.2318 173.955 3.16639 169.93 3.52455C173.945 3.68385 175.262 3.19184 180.022 3.50772ZM171.206 5.30528C171.204 5.37631 170.55 5.3636 169.897 5.35088C169.898 5.27985 170.552 5.29256 171.206 5.30528ZM170.6 2.66469C171.254 2.67741 171.907 2.69014 171.909 2.61911C171.255 2.6064 170.601 2.59367 170.6 2.66469ZM176.021 2.55701C176.675 2.56973 176.674 2.64076 176.673 2.71178C177.981 2.73722 178.729 2.68073 179.384 2.62242C180.693 2.57684 188.822 2.66388 182.099 2.38087C182.095 2.60408 178.736 2.31546 179.384 2.62242C178.638 2.52672 176.024 2.40482 176.021 2.55701ZM177.319 3.16078C177.32 3.08975 177.32 3.08976 177.321 3.01873C176.667 3.00601 176.667 3.00601 176.013 2.99329C176.012 3.06432 176.012 3.06432 176.011 3.13534C176.665 3.14806 176.665 3.14806 177.319 3.16078ZM178.612 3.98778C179.266 4.00049 179.92 4.01321 179.921 3.94218C179.36 3.93128 178.613 3.91675 178.612 3.98778ZM180.01 4.16722C180.664 4.17994 181.318 4.19265 181.319 4.12163C180.665 4.10891 180.012 4.09619 180.01 4.16722ZM181.993 3.03856C184.707 2.79701 184.698 3.30432 181.993 3.03856C178.632 2.89198 181.335 3.23891 181.993 3.03856ZM181.976 3.98215C182.63 3.99487 183.284 4.0076 183.285 3.93658C182.725 3.92567 181.977 3.91113 181.976 3.98215ZM184.697 3.37535C182.643 3.26435 183.387 3.49196 182.638 3.55859C184.692 3.66959 184.042 3.4438 184.697 3.37535ZM185.356 3.10397C190.029 3.05277 184.046 3.22058 185.353 3.24602C187.41 3.21497 188.716 3.31143 189.368 3.4662C190.024 3.33687 192.081 3.29567 192.737 3.16634C193.388 3.32111 194.791 3.27734 193.387 3.40228C194.696 3.35669 196.098 3.31291 196.755 3.17344C194.701 3.06244 194.697 3.27552 192.737 3.16634C192.087 2.93041 196.1 3.23174 195.451 2.92478C192.741 2.94311 193.395 2.95583 190.781 2.83393C187.417 2.83955 190.131 2.598 190.781 2.83393C190.775 3.12818 184.709 2.72599 185.356 3.10397ZM188.061 3.36973C187.407 3.35701 186.753 3.34429 186.006 3.32975C186.657 3.48452 183.947 3.51301 186.001 3.624C186.097 3.48377 187.406 3.42803 188.061 3.36973ZM190.787 2.47883C189.479 2.45339 185.368 2.44447 187.42 2.63663C188.077 2.49716 190.785 2.62087 190.787 2.47883ZM187.396 3.94549L189.45 4.0565C190.761 3.93989 187.399 3.7933 187.396 3.94549ZM190.135 2.38493C190.789 2.39765 191.443 2.41037 191.444 2.33934C190.79 2.32663 190.136 2.31391 190.135 2.38493ZM194.121 4.14734C194.122 4.07632 194.122 4.07632 194.123 4.0053C194.126 3.86325 191.414 3.9526 190.759 4.0109C192.067 4.03634 192.064 4.17839 194.121 4.14734ZM205.552 2.47165C205.553 2.40063 206.3 2.41517 205.552 2.47165C204.899 2.38791 201.535 2.39353 200.88 2.45184C198.826 2.34084 199.573 2.35538 197.52 2.24438C197.516 2.4676 196.864 2.30268 196.211 2.28996C196.856 2.73897 192.848 2.22455 192.841 2.58981C194.899 2.48774 197.513 2.60964 198.911 2.77895C198.914 2.6369 198.26 2.62418 198.262 2.54301C199.569 2.56845 200.971 2.5957 200.973 2.45365C202.186 2.5483 203.588 2.57554 205.552 2.47165ZM194.776 4.08903C195.43 4.10175 196.831 4.12901 196.832 4.05798C196.178 4.04527 194.777 4.018 194.776 4.08903ZM198.81 3.21341C199.464 3.22613 199.463 3.29716 200.117 3.30988C200.771 3.3226 200.768 3.46464 200.117 3.30988C200.775 3.09938 201.423 3.40634 203.479 3.37529C203.478 3.44631 202.17 3.42087 202.169 3.4919C203.477 3.51733 204.878 3.54459 205.535 3.41526C204.881 3.40254 204.227 3.38982 203.479 3.37529C204.79 3.25868 208.153 3.32409 209.558 3.12812C205.541 3.04999 204.136 3.24595 200.776 3.02835C200.777 2.95732 200.78 2.80513 201.434 2.81785C201.433 2.88887 201.433 2.88887 201.431 2.95989C202.739 2.98533 203.488 2.92884 204.143 2.87054C204.144 2.79951 204.798 2.81223 204.143 2.87054C203.489 2.85782 202.088 2.83057 201.434 2.81785C201.435 2.74682 201.435 2.74682 201.436 2.6758C199.38 2.70685 199.376 2.93007 197.413 2.96294C198.718 3.13042 198.721 2.98838 200.776 3.02835C202.172 3.34984 198.813 3.07136 198.81 3.21341ZM199.547 3.81643C199.545 3.88745 196.835 3.90579 198.889 4.02693C198.797 3.94394 201.507 3.92561 199.547 3.81643ZM200.182 4.85391C200.181 4.92493 199.527 4.91222 198.873 4.8995C198.781 4.82666 199.528 4.84119 200.182 4.85391ZM199.575 2.28435C200.229 2.29707 200.882 2.30978 200.884 2.23876C200.23 2.2159 199.576 2.20318 199.575 2.28435ZM202.192 2.25406C202.193 2.18303 202.94 2.19757 202.192 2.25406C200.882 2.30979 202.19 2.33523 202.192 2.25406ZM202.91 3.88184C204.875 3.69678 207.579 4.04371 202.91 3.88184C200.202 3.75812 202.906 4.09491 202.91 3.88184ZM207.599 2.94792C208.253 2.96064 208.904 3.11541 209.654 2.9879C208.907 2.97336 208.255 2.81859 207.599 2.94792ZM208.883 4.29237C210.939 4.26132 210.188 4.45985 211.589 4.48711C212.245 4.35778 209.633 4.15471 208.883 4.29237ZM212.271 2.96774C212.925 2.98046 213.579 2.99318 213.58 2.92216C213.019 2.91126 212.272 2.89671 212.271 2.96774ZM218.971 4.4886C218.972 4.41758 219.628 4.35926 220.281 4.37198C220.374 4.43467 220.372 4.51586 218.971 4.4886ZM219.747 2.96091C219.745 3.03193 219.745 3.03193 219.744 3.10295C220.398 3.11567 220.397 3.18669 221.05 3.19941C221.053 3.05736 221.707 3.07007 221.708 2.9889C222.362 3.00162 223.014 3.15639 223.761 3.17092C223.767 2.80566 226.468 3.29465 229.18 3.20529C229.181 3.13427 229.183 3.06324 228.529 3.05053L228.53 2.97949C227.222 2.95406 228.531 2.90847 228.533 2.83745C227.88 2.7537 225.825 2.71374 224.517 2.68831C226.567 3.02252 223.205 2.88609 221.802 3.00088C221.054 2.98634 220.4 2.97362 219.747 2.96091ZM220.403 2.83158C221.057 2.8443 221.711 2.85701 221.712 2.78598C221.058 2.77326 220.404 2.76055 220.403 2.83158ZM229.851 2.28456C226.488 2.21915 223.125 2.15374 221.813 2.35152C225.735 2.49886 227.793 2.38663 229.851 2.28456ZM231.125 4.13632L231.779 4.14904C233.091 3.95126 237.201 4.0312 237.208 3.66594C232.539 3.50407 231.785 3.8548 227.115 3.69293C227.763 4.07091 221.041 3.71687 223.745 4.0638C225.801 4.03275 229.165 4.02713 229.169 3.80392C230.477 3.82935 230.473 4.05258 231.125 4.13632C231.124 4.20735 229.816 4.18191 231.125 4.13632ZM227.127 3.03341C227.126 3.10444 228.434 3.12987 228.435 3.05885C227.781 3.04613 227.781 3.04613 227.127 3.03341ZM230.491 3.02781C231.145 3.04053 231.798 3.12426 233.199 3.15151C234.511 2.96388 230.494 2.88576 230.491 3.02781ZM232.471 2.11222C233.124 2.12493 233.778 2.13765 233.78 2.06662C233.219 2.05572 232.472 2.04119 232.471 2.11222ZM233.22 1.9847C233.874 1.99742 234.528 2.01013 234.529 1.93911C233.876 1.92639 233.222 1.91368 233.22 1.9847ZM235.174 2.45914C235.177 2.31709 235.831 2.32981 235.832 2.24864C237.889 2.21759 237.137 2.41613 236.482 2.48458C238.537 2.52455 239.846 2.47897 240.501 2.42066C239.194 2.39522 237.791 2.439 237.794 2.29695C239.103 2.25137 241.81 2.37508 243.868 2.27301C245.176 2.29844 245.924 2.24196 245.926 2.17093C244.618 2.14549 243.869 2.20198 243.868 2.27301C243.214 2.26029 243.217 2.11824 242.563 2.10552C241.903 2.38704 236.49 2.05844 235.832 2.26894C233.873 2.06844 233.866 2.4337 235.174 2.45914ZM235.158 3.34187C235.812 3.35459 236.466 3.3673 236.467 3.29628C235.813 3.27341 235.16 3.2607 235.158 3.34187ZM235.824 2.69508C235.825 2.62405 236.573 2.63859 235.824 2.69508C234.515 2.74066 235.823 2.7661 235.824 2.69508ZM237.882 2.58286C237.88 2.65388 236.571 2.69947 237.878 2.80608C237.879 2.73506 239.188 2.68947 237.882 2.58286ZM239.184 2.90253C240.492 2.92797 241.893 2.95523 241.892 3.02626C239.838 2.91526 237.216 3.22964 239.831 3.28052L239.83 3.35155C243.844 3.57172 241.891 3.09727 244.506 3.14815C244.509 3.0061 243.855 2.99339 243.858 2.84119C242.548 2.89692 239.934 2.77502 239.184 2.90253C239.183 2.97356 237.875 2.94812 239.184 2.90253ZM241.258 1.91774C239.951 1.82128 237.891 2.07555 239.946 2.11552C239.947 2.0445 241.256 1.99891 241.258 1.91774ZM239.937 2.62283C241.246 2.57725 240.588 2.7776 241.989 2.80485C242.647 2.59436 246.661 2.82467 247.413 2.61599C243.304 2.47516 243.304 2.47517 239.937 2.62283C239.935 2.704 238.534 2.67675 239.937 2.62283ZM242.543 3.19116C241.888 3.24946 241.233 3.30777 239.831 3.28052C239.18 3.12575 242.546 3.03897 242.543 3.19116ZM241.869 4.27424C241.868 4.34526 241.214 4.33255 240.56 4.31983C240.561 4.24881 241.215 4.26152 241.869 4.27424ZM242.522 4.35799C243.18 4.14749 244.578 4.32693 247.194 4.3778C245.884 4.42339 243.268 4.44354 242.522 4.35799ZM244.606 2.79485C244.602 3.01807 247.31 3.14178 247.314 2.91856C246.66 2.90584 245.914 2.82029 244.606 2.79485ZM250.004 3.99603C250.001 4.13808 247.294 4.01435 246.64 4.00164C246.643 3.84944 248.601 4.0398 250.004 3.99603ZM252.626 3.68164C250.57 3.71269 248.611 3.53248 247.207 3.64727C248.605 3.81657 251.97 3.81097 252.626 3.68164C253.375 3.615 252.628 3.60047 252.626 3.68164ZM250.023 2.97125C250.021 3.04227 249.367 3.02956 249.366 3.10058C252.728 3.23701 254.791 2.84071 256.093 3.16039C256.751 2.94989 256.75 3.03106 256.1 2.79512C254.045 2.75515 253.388 2.88447 252.078 3.01122C252.079 2.9402 252.08 2.86918 251.426 2.85646C251.33 2.99669 250.676 2.98397 250.023 2.97125C249.279 2.7335 246.658 2.97687 250.023 2.97125ZM251.999 2.20786C254.059 1.95359 254.05 2.46091 251.999 2.20786C246.676 2.02313 250.033 2.38278 251.999 2.20786ZM251.99 2.71517C252.644 2.72789 253.297 2.7406 253.299 2.66958C252.645 2.65686 251.991 2.64415 251.99 2.71517ZM255.986 3.8891C256.64 3.90181 257.293 3.98556 257.29 4.13775C255.235 4.09778 253.926 4.14337 253.269 4.28284C255.324 4.32282 256.633 4.27723 257.942 4.23164C258.6 4.02114 257.294 3.92467 259.258 3.82078C257.392 3.69313 256.738 3.68041 255.986 3.8891C255.985 3.96012 254.677 3.93468 255.986 3.8891ZM254.029 3.62772C254.683 3.64044 256.084 3.66769 256.085 3.59667C255.338 3.58213 254.03 3.5567 254.029 3.62772ZM264.803 2.09152C261.44 2.02611 258.73 2.04444 257.419 2.1712C260.782 2.22646 263.493 2.20813 264.803 2.09152ZM257.393 3.6221C258.047 3.63482 258.701 3.64755 258.702 3.57652C258.048 3.5638 257.394 3.55108 257.393 3.6221ZM261.411 3.62921C261.412 3.55819 261.412 3.55819 261.414 3.48717C260.106 3.46173 259.357 3.51822 259.356 3.58924C260.103 3.60378 260.757 3.6165 261.411 3.62921C262.062 3.78398 262.065 3.64193 261.411 3.62921ZM262.079 2.84037C261.426 2.82765 261.427 2.75664 260.026 2.72939C259.368 2.93988 261.328 3.04906 260.018 3.16567C262.073 3.20564 261.423 2.9697 262.079 2.84037ZM262.716 3.7967C262.721 3.5126 265.425 3.84939 262.716 3.7967C260.102 3.6748 262.712 4.01991 262.716 3.7967ZM264.125 3.38766C264.12 3.6819 266.176 3.65085 266.833 3.51138C265.432 3.48412 264.778 3.4714 264.125 3.38766ZM265.44 3.04783C266.746 3.14429 270.86 3.01117 272.825 2.89713C270.208 2.92743 266.099 2.76631 265.44 3.04783C265.438 3.11885 264.131 3.09342 265.44 3.04783ZM266.099 2.76631C266.753 2.77903 267.407 2.79174 267.408 2.72072C266.847 2.70982 266.1 2.69529 266.099 2.76631ZM269.467 2.54763C268.813 2.53491 268.159 2.52218 267.413 2.43663C267.412 2.50765 266.757 2.56596 266.755 2.64713C268.157 2.66424 268.812 2.60593 269.467 2.54763ZM270.21 2.77523C270.864 2.78795 271.518 2.80067 271.519 2.72965C270.866 2.71693 270.212 2.7042 270.21 2.77523ZM272.159 3.54391C271.505 3.5312 270.852 3.44746 270.105 3.43293C270.104 3.50395 270.104 3.50395 270.102 3.57497C270.848 3.67068 271.502 3.68339 272.159 3.54391C272.814 3.48561 272.16 3.47289 272.159 3.54391ZM274.897 1.9935C274.894 2.13555 270.225 1.97368 272.838 2.17674C272.841 2.02455 277.603 2.18824 274.897 1.9935ZM273.539 4.73799C273.537 4.80902 272.883 4.79629 272.23 4.78357C272.137 4.71073 272.791 4.72346 273.539 4.73799ZM276.19 2.8205C276.191 2.74947 276.191 2.74947 276.193 2.67845C275.539 2.66573 275.539 2.66573 274.885 2.65301C274.884 2.72404 274.884 2.72404 274.882 2.79506C275.536 2.80778 275.536 2.80778 276.19 2.8205ZM281.593 3.72742C281.589 3.95064 278.883 3.74576 279.533 3.9817C281.587 4.0927 282.9 3.82388 281.593 3.72742ZM282.922 2.58605C282.268 2.57333 282.269 2.57333 281.615 2.56061C281.613 2.63164 280.959 2.61892 280.958 2.68994C282.266 2.71538 282.92 2.7281 282.922 2.58605ZM281.576 4.68117C281.579 4.53912 283.634 4.5791 283.636 4.42691C284.944 4.45235 284.288 4.58168 283.632 4.65013C284.286 4.66285 284.286 4.66285 284.94 4.67557C284.938 4.81761 282.23 4.69389 281.576 4.68117ZM282.933 1.99757C283.587 2.01029 284.241 2.02301 284.242 1.95199C283.682 1.94109 282.934 1.92654 282.933 1.99757ZM287.011 3.83281C284.955 3.86386 285.702 3.87839 283.648 3.7674C283.646 3.90944 284.298 4.00334 284.951 4.08708C284.953 3.94504 287.008 3.985 287.011 3.83281ZM284.985 2.18973C284.333 2.10599 284.332 2.17701 284.985 2.18973C285.639 2.20245 285.637 2.34449 284.985 2.18973ZM284.99 1.96653C285.643 1.97924 287.045 2.00649 287.046 1.93547C286.299 1.92093 284.991 1.8955 284.99 1.96653ZM287.015 3.61974C284.304 3.7091 286.365 3.38381 284.964 3.35655C284.963 3.42758 284.96 3.57976 284.959 3.65079C285.613 3.66351 287.014 3.69077 287.015 3.61974ZM284.94 4.67557C284.941 4.60454 286.249 4.62997 287.65 4.65723C287.652 4.5862 286.344 4.56077 285.598 4.47521C286.253 4.4169 287.654 4.44416 288.963 4.39857C288.962 4.46959 289.615 4.55333 289.612 4.70552C290.266 4.71824 290.266 4.71824 290.92 4.73096C290.357 4.85196 286.997 4.63437 284.94 4.67557ZM285.625 3.00401C286.278 3.01672 286.932 3.02944 286.934 2.95841C286.28 2.94569 285.626 2.93298 285.625 3.00401ZM288.994 2.70415C289.648 2.71687 290.302 2.72958 290.303 2.65856C289.649 2.64584 288.995 2.63313 288.994 2.70415ZM295.054 3.48175C295.055 3.41073 295.709 3.42345 295.054 3.48175C294.401 3.39801 293.748 3.3853 293.745 3.52735C292.437 3.50191 291.691 3.41635 291.038 3.33261C290.381 3.54311 294.393 3.83431 293.745 3.52735C294.399 3.54007 295.053 3.55278 295.054 3.48175ZM291.051 2.67309C291.704 2.68581 293.106 2.71307 293.107 2.64205C292.36 2.62752 291.052 2.60207 291.051 2.67309ZM291.028 3.91093C291.682 3.92365 292.336 3.93638 292.337 3.86536C291.683 3.85264 291.029 3.83991 291.028 3.91093ZM294.385 4.27059C295.039 4.28331 296.44 4.31056 296.442 4.23953C295.694 4.225 294.387 4.19957 294.385 4.27059ZM299.822 3.3512C299.823 3.28017 300.477 3.29289 299.822 3.3512C297.114 3.22748 299.818 3.57441 299.822 3.3512ZM303.865 1.96828C304.521 1.90998 305.177 1.7705 303.87 1.74507C303.867 1.88711 300.508 1.60863 301.81 1.92831C302.464 1.94103 303.118 1.95375 303.865 1.96828C304.517 2.1332 304.519 1.981 303.865 1.96828ZM305.788 4.127C303.083 3.85109 303.074 4.36854 305.788 4.127C305.79 4.05597 306.444 4.06869 305.788 4.127ZM311.862 4.17407C308.497 4.17968 309.151 4.19241 307.192 4.0122C307.191 4.08323 307.188 4.23542 307.187 4.30644C309.9 4.13591 309.238 4.56964 311.198 4.67881C311.855 4.53934 311.202 4.45559 311.862 4.17407C312.515 4.18679 312.517 4.11577 311.863 4.10305C309.153 4.12138 311.867 3.87983 311.863 4.10305L311.862 4.17407ZM309.195 1.7776C309.194 1.84862 309.194 1.84862 309.193 1.91965C309.847 1.93236 309.845 2.00339 310.499 2.01611C309.848 1.86135 311.808 1.97053 311.811 1.81833C312.469 1.60783 315.173 1.95476 311.811 1.81833C311.25 1.81758 309.943 1.79213 309.195 1.7776ZM315.226 4.16846C315.878 4.2522 316.533 4.1939 317.281 4.20843C317.935 4.22115 317.932 4.3632 317.281 4.20843C317.282 4.13741 317.283 4.06639 316.629 4.05367C316.535 4.11273 315.227 4.08729 315.226 4.16846C315.224 4.23949 313.917 4.21405 315.226 4.16846ZM319.244 4.16542C319.245 4.09439 319.992 4.10893 319.244 4.16542C317.282 4.12726 319.986 4.47419 319.244 4.16542ZM321.997 1.81346C322.65 1.82617 324.052 1.85342 324.053 1.7824C323.399 1.76968 321.998 1.74243 321.997 1.81346ZM321.955 4.07606C322.609 4.08878 324.01 4.11603 324.012 4.045C323.358 4.03228 321.957 4.00504 321.955 4.07606ZM325.314 4.36469C325.972 4.15419 328.676 4.50112 325.314 4.36469C322.607 4.23083 325.31 4.57776 325.314 4.36469ZM332.089 1.78647C332.743 1.79919 333.397 1.8119 333.398 1.74087C332.744 1.72815 332.09 1.71544 332.089 1.78647ZM336.107 1.79357C333.492 1.74269 336.102 2.08781 336.107 1.79357C336.761 1.80629 337.416 1.74798 337.418 1.67696C337.419 1.60593 338.073 1.61865 337.418 1.67696C336.11 1.65152 336.109 1.72254 336.107 1.79357ZM346.946 1.86229C347.6 1.875 348.253 1.88773 348.255 1.81671C347.601 1.79384 346.947 1.78112 346.946 1.86229ZM348.917 1.38299C348.914 1.52503 348.255 1.80656 350.218 1.77369C349.567 1.61892 349.569 1.46673 348.917 1.38299ZM349.517 4.31781C350.171 4.33053 350.825 4.34326 350.826 4.27223C350.266 4.26133 349.519 4.24679 349.517 4.31781ZM351.626 1.43568C352.28 1.4484 352.934 1.46111 352.935 1.39009C352.281 1.37737 351.627 1.36466 351.626 1.43568ZM351.595 3.11994C352.249 3.13266 352.903 3.14539 352.904 3.07436C352.25 3.06165 351.596 3.04892 351.595 3.11994ZM354.986 1.65328C356.295 1.60769 357.041 1.69325 357.041 1.69325C364.42 1.83679 359.009 1.36614 354.986 1.65328ZM359.001 1.80244C359.655 1.81515 360.309 1.82787 360.31 1.75684C359.656 1.74412 359.002 1.73141 359.001 1.80244ZM361.665 4.34095C362.319 4.35367 362.973 4.36638 362.974 4.29535C362.32 4.27249 361.666 4.25978 361.665 4.34095ZM365.7 3.3943C365.048 3.31056 365.046 3.38158 365.7 3.3943C365.696 3.60737 368.41 3.37597 365.7 3.3943ZM371.122 3.27648C371.776 3.2892 372.43 3.30191 372.431 3.23089C371.777 3.21817 371.124 3.20546 371.122 3.27648ZM373.851 2.23337C375.16 2.18779 375.902 2.49657 376.56 2.28607C375.252 2.26063 376.561 2.21505 376.563 2.14402C376.564 2.073 377.218 2.08572 376.563 2.14402C375.162 2.11677 374.506 2.17507 373.851 2.23337ZM376.481 1.48269C375.172 1.52827 376.48 1.55371 376.481 1.48269C377.134 1.56643 379.189 1.60641 379.192 1.46437C378.538 1.45165 377.136 1.42439 377.138 1.35336C377.139 1.28234 377.793 1.29506 377.138 1.35336C376.484 1.34064 376.483 1.41166 376.481 1.48269ZM387.972 1.63516C389.283 1.51855 385.921 1.37196 385.919 1.52415C386.572 1.53687 386.572 1.53688 386.571 1.6079C387.318 1.62244 387.318 1.62244 387.972 1.63516ZM387.948 2.94401C387.95 2.87299 388.604 2.88571 387.948 2.94401C386.546 2.99793 387.947 3.02518 387.948 2.94401ZM393.303 1.37346C391.996 1.34802 390.594 1.32076 389.942 1.23702C389.938 1.46023 387.884 1.3391 388.626 1.64788C391.338 1.54837 391.99 1.64226 393.303 1.37346ZM401.432 1.4605C402.085 1.47322 403.487 1.50048 403.488 1.42946C402.741 1.40478 401.433 1.37933 401.432 1.4605ZM407.506 1.42641C408.16 1.43913 408.814 1.45185 409.561 1.46639C409.564 1.32434 408.911 1.23045 408.258 1.21773C407.605 1.13399 407.604 1.20501 408.258 1.21773C408.161 1.36811 407.507 1.35539 407.506 1.42641ZM408.152 1.87541C408.806 1.88813 409.46 1.90086 409.461 1.82983C408.807 1.81712 408.153 1.80439 408.152 1.87541ZM413.487 1.40065C412.835 1.31691 409.475 1.0993 410.123 1.40626C412.179 1.37521 411.432 1.36068 412.831 1.52998C412.832 1.45896 413.486 1.47168 413.487 1.40065C414.141 1.41337 414.795 1.42608 414.796 1.35506C414.798 1.28404 415.451 1.29675 414.796 1.35506C414.236 1.34416 413.488 1.32963 413.487 1.40065ZM410.088 3.30361C410.742 3.31633 412.144 3.34358 412.145 3.27256C411.491 3.25984 410.09 3.23259 410.088 3.30361ZM411.515 1.94082C411.516 1.8698 412.17 1.88252 411.515 1.94082C409.46 1.90085 412.163 2.24778 411.515 1.94082ZM416.859 0.948595C417.513 0.961314 418.915 0.988576 418.916 0.917552C418.262 0.904834 416.861 0.877571 416.859 0.948595ZM420.218 1.23722C418.163 1.19725 418.16 1.3393 417.505 1.40775C419.56 1.44772 420.214 1.46044 420.218 1.23722ZM419.531 3.05083C420.185 3.06355 420.839 3.07627 420.84 3.00525C420.186 2.99253 419.532 2.9798 419.531 3.05083ZM422.914 2.02044C422.915 1.94942 423.569 1.96214 422.914 2.02044C420.206 1.89673 422.91 2.24366 422.914 2.02044ZM426.889 4.36119L426.891 4.29016C425.583 4.26472 424.834 4.32121 424.833 4.39224C426.234 4.41949 426.235 4.34847 426.889 4.36119C427.634 4.52792 427.637 4.37573 426.889 4.36119ZM425.639 1.20056C424.982 1.32989 424.326 1.46936 426.942 1.44921C426.945 1.29702 426.293 1.21328 425.639 1.20056ZM425.641 1.04837L426.295 1.06109C426.949 1.07381 426.947 1.21586 426.295 1.06109C426.297 0.990066 425.643 0.977349 425.641 1.04837C425.64 1.1194 424.332 1.09396 425.641 1.04837ZM429.003 1.1848C429.657 1.19752 429.002 1.25582 429 1.32684C430.308 1.35228 431.054 1.43785 431.708 1.45057C432.366 1.24007 430.403 1.28309 430.406 1.13089C430.41 0.907677 433.113 1.25461 430.406 1.13089C429.658 1.12651 429.004 1.11377 429.003 1.1848ZM428.959 3.59961C429.613 3.61232 430.267 3.62505 430.268 3.55403C429.614 3.54131 428.96 3.52858 428.959 3.59961ZM441.802 1.3627C441.803 1.29168 441.804 1.22066 440.497 1.19522C440.495 1.26624 440.492 1.41844 441.146 1.43115C441.148 1.34998 441.148 1.34998 441.802 1.3627ZM447.127 1.39524C447.129 1.32421 447.13 1.25319 447.132 1.17202C445.075 1.20307 444.424 1.04832 443.112 1.23595C443.765 1.32984 445.166 1.35708 447.127 1.39524ZM447.135 0.958955C447.137 0.887931 447.884 0.902467 447.135 0.958955C445.826 1.00454 447.134 1.02998 447.135 0.958955ZM448.53 1.35148C447.883 0.973493 451.892 1.48791 448.53 1.35148C447.128 1.39524 448.529 1.4225 448.53 1.35148ZM457.973 1.09869C458.626 1.11141 459.278 1.26617 459.28 1.12413C459.282 1.04296 457.974 1.01752 457.973 1.09869ZM460.587 1.22059C459.934 1.13685 459.933 1.20788 460.587 1.22059C461.334 1.23513 461.332 1.37718 460.587 1.22059ZM463.955 0.991755C463.956 0.920732 464.704 0.935267 463.955 0.991755C459.94 0.842603 462.643 1.18953 463.955 0.991755ZM462.642 1.26057C461.987 1.31887 461.33 1.45835 462.638 1.48379C462.639 1.41276 463.294 1.35446 463.296 1.27329C463.297 1.20226 463.951 1.21498 463.296 1.27329L462.642 1.26057ZM466.659 1.3387C465.999 1.62022 470.02 1.47512 468.715 1.30764C468.063 1.21375 466.659 1.3387 466.659 1.3387ZM469.373 1.09714C469.374 1.02611 469.374 1.02612 469.376 0.955092C468.722 0.942373 468.722 0.942373 468.068 0.929655C468.066 1.00068 468.066 1.00068 468.065 1.0717C468.719 1.08442 468.719 1.08442 469.373 1.09714ZM469.313 4.38452C469.967 4.39724 470.621 4.40997 470.622 4.33894C469.968 4.32622 469.314 4.3135 469.313 4.38452ZM475.392 4.13736C475.389 4.27941 473.335 4.16842 474.078 4.40617C475.385 4.50263 476.698 4.23382 475.392 4.13736ZM477.406 1.25339L478.154 1.26793C478.15 1.49115 480.864 1.2496 478.154 1.26793C478.155 1.19691 477.408 1.18237 477.406 1.25339C478.147 1.63319 474.045 1.11696 477.406 1.25339ZM481.519 1.19129C480.773 1.09559 480.772 1.17676 481.519 1.19129C482.169 1.41708 484.883 1.17553 481.519 1.19129ZM484.882 1.2567C485.536 1.26942 486.19 1.28215 486.191 1.21113C485.537 1.18826 484.883 1.17553 484.882 1.2567ZM485.507 2.87253C485.508 2.8015 486.162 2.81422 485.507 2.87253C484.104 2.9163 485.505 2.94355 485.507 2.87253ZM488.245 1.32211C488.899 1.33483 488.899 1.33483 489.553 1.34755C489.555 1.2055 488.901 1.19279 488.247 1.18007C486.188 1.36331 486.944 0.931413 488.247 1.18007C488.246 1.24094 488.246 1.24094 488.245 1.32211ZM488.887 1.98419C489.541 1.99691 490.195 2.00963 490.196 1.93861C489.542 1.92589 488.888 1.91317 488.887 1.98419ZM490.153 4.28239C489.505 3.97543 492.208 4.32236 490.153 4.28239C488.844 4.32797 490.152 4.35341 490.153 4.28239ZM492.918 1.26077C491.61 1.23534 490.862 1.29182 490.861 1.36285C492.262 1.40025 492.917 1.3318 492.918 1.26077ZM492.246 2.27282C492.247 2.20179 492.901 2.21451 492.246 2.27282C490.843 2.31659 492.244 2.34384 492.246 2.27282ZM492.208 4.32236C492.21 4.24119 492.864 4.25391 492.208 4.32236C490.806 4.36613 492.207 4.39338 492.208 4.32236ZM494.973 1.30075C494.975 1.22972 495.629 1.24244 494.973 1.30075C493.571 1.34452 494.972 1.37177 494.973 1.30075ZM496.94 1.04467C496.286 1.03195 496.285 1.10296 496.939 1.11568C496.938 1.18671 497.592 1.19943 497.593 1.1284C498.247 1.14112 498.247 1.14112 498.901 1.15384C499.555 1.16656 499.552 1.30861 498.901 1.15384C498.902 1.08282 498.248 1.07011 497.594 1.05739C497.595 0.986363 497.597 0.915339 496.943 0.90262C494.888 0.862648 497.602 0.621099 496.943 0.90262C496.942 0.973644 496.942 0.973643 496.94 1.04467ZM497.593 1.13854L497.594 1.06753L496.94 1.05481L496.939 1.12582L497.593 1.13854ZM503.663 1.32767C503.667 1.10446 501.613 0.993453 501.609 1.21667C502.357 1.23121 503.009 1.31496 503.663 1.32767ZM522.486 4.25155C522.487 4.18053 523.141 4.19325 522.486 4.25155C521.083 4.29532 522.485 4.32257 522.486 4.25155ZM538.052 1.26578C538.054 1.19476 538.707 1.20748 538.052 1.26578C536.65 1.30955 538.051 1.3368 538.052 1.26578ZM545.375 4.5445C542.666 4.49181 542.014 4.33704 544.071 4.29584C542.017 4.18485 540.708 4.23043 539.398 4.34704C542.014 4.33704 543.967 4.88251 545.375 4.5445ZM546.744 1.21154C547.397 1.22425 548.051 1.23698 548.053 1.16596C547.399 1.15324 546.745 1.14051 546.744 1.21154ZM546.686 4.35687C547.34 4.36959 547.994 4.3823 547.995 4.31128C547.341 4.29856 546.688 4.28585 546.686 4.35687ZM547.381 2.10697C548.035 2.11969 548.689 2.13242 548.69 2.06139C548.13 2.04035 547.383 2.0258 547.381 2.10697ZM562.254 1.30009C561.602 1.2062 561.6 1.28737 562.254 1.30009C562.908 1.31281 562.905 1.45485 562.254 1.30009ZM570.278 1.96366C570.932 1.97637 571.586 1.98908 571.587 1.91806C570.933 1.90534 570.279 1.89263 570.278 1.96366ZM575.655 4.33164C574.347 4.3062 573.598 4.36269 573.597 4.43372C574.998 4.47112 575.654 4.40267 575.655 4.33164ZM577.672 1.30563C576.365 1.28019 575.616 1.33668 575.615 1.4077C577.016 1.43496 577.671 1.37665 577.672 1.30563ZM587.761 1.50186C588.415 1.51458 589.069 1.52731 589.07 1.45628C588.509 1.44538 587.762 1.43084 587.761 1.50186ZM588.511 1.36421C589.165 1.37693 589.819 1.38964 589.82 1.31862C589.166 1.3059 588.512 1.29319 588.511 1.36421ZM594.436 4.4026C592.382 4.2916 591.072 4.40822 589.764 4.38278C589.106 4.59328 594.433 4.55479 594.436 4.4026ZM605.928 4.48403C606.582 4.49675 607.983 4.52401 607.985 4.45299C607.237 4.43845 605.93 4.41301 605.928 4.48403ZM616.673 4.55094C617.327 4.56365 620.035 4.68738 620.037 4.54533C618.728 4.59092 616.676 4.39874 616.673 4.55094ZM624.049 4.90755C626.766 4.52395 633.488 4.86784 636.854 4.72018C634.789 5.26869 628.071 4.69144 624.049 4.90755Z" fill="#005CFF"/>
</svg>
