<svg width="25" height="25" viewBox="0 0 25 25" fill="none" xmlns="http://www.w3.org/2000/svg">
<path d="M22.489 7.40765C22.2929 6.32564 21.3589 5.53767 20.275 5.29167C18.6529 4.94766 15.6509 4.70166 12.403 4.70166C9.15696 4.70166 6.10695 4.94766 4.48297 5.29167C3.40096 5.53767 2.46501 6.27567 2.26898 7.40765C2.07103 8.63765 1.875 10.3596 1.875 12.5736C1.875 14.7876 2.07103 16.5096 2.31703 17.7396C2.51498 18.8216 3.44901 19.6096 4.53102 19.8556C6.25302 20.1996 9.205 20.4456 12.453 20.4456C15.7009 20.4456 18.6529 20.1996 20.3749 19.8556C21.4569 19.6096 22.3909 18.8716 22.5889 17.7396C22.7849 16.5096 23.0309 14.7377 23.0809 12.5736C22.981 10.3596 22.735 8.63765 22.489 7.40765ZM9.74697 16.0176V9.12964L15.749 12.5736L9.74697 16.0176Z" fill="#4D4D4D"/>
</svg>
